SplineFontDB: 3.2
FontName: ArialRoundedMT
FullName: Arial Rounded MT
FamilyName: Arial Rounded MT
Weight: Book
Copyright: Copyright (c) 1991 Adobe Systems Incorporated.  All Rights Reserved.Arial is a registered trademark of The Monotype Corporation plc.
Version: 1.3
ItalicAngle: 0
UnderlinePosition: -125
UnderlineWidth: 50
Ascent: 800
Descent: 200
InvalidEm: 0
sfntRevision: 0x00010003
LayerCount: 2
Layer: 0 1 "Back" 1
Layer: 1 1 "Fore" 0
XUID: [1021 56 -729070988 31241]
StyleMap: 0x0040
FSType: 0
OS2Version: 1
OS2_WeightWidthSlopeOnly: 0
OS2_UseTypoMetrics: 0
CreationTime: 955440924
ModificationTime: 1735412130
PfmFamily: 17
TTFWeight: 400
TTFWidth: 5
LineGap: 0
VLineGap: 0
Panose: 2 0 5 6 5 0 0 2 0 4
OS2TypoAscent: 728
OS2TypoAOffset: 0
OS2TypoDescent: -200
OS2TypoDOffset: 0
OS2TypoLinegap: 70
OS2WinAscent: 936
OS2WinAOffset: 0
OS2WinDescent: 223
OS2WinDOffset: 0
HheadAscent: 936
HheadAOffset: 0
HheadDescent: -223
HheadDOffset: 0
OS2SubXSize: 204
OS2SubYSize: 204
OS2SubXOff: 0
OS2SubYOff: 286
OS2SupXSize: 204
OS2SupYSize: 204
OS2SupXOff: 0
OS2SupYOff: 286
OS2StrikeYSize: 102
OS2StrikeYPos: 512
OS2Vendor: 'pyrs'
OS2CodePages: 00000001.00000000
OS2UnicodeRanges: 80000027.00000000.00000000.00000000
Lookup: 258 0 0 "'kern' Horizontal Kerning in Latin lookup 0" { "'kern' Horizontal Kerning in Latin lookup 0 subtable"  } ['kern' ('latn' <'dflt' > ) ]
DEI: 91125
TtTable: prep
PUSHW_4
 0
 3
 2
 0
CALL
CALL
PUSHW_6
 1
 52
 41
 29
 18
 8
CALL
PUSHW_6
 2
 47
 37
 27
 16
 8
CALL
PUSHW_6
 0
 67
 52
 37
 23
 8
CALL
PUSHW_3
 3
 7
 7
CALL
EndTTInstrs
TtTable: fpgm
PUSHW_1
 0
FDEF
MPPEM
PUSHW_1
 9
LT
IF
PUSHB_2
 1
 1
INSTCTRL
EIF
PUSHW_1
 511
SCANCTRL
PUSHW_1
 132
SCVTCI
PUSHW_2
 9
 3
SDS
SDB
ENDF
PUSHW_1
 1
FDEF
DUP
DUP
RCVT
ROUND[Black]
WCVTP
PUSHB_1
 1
ADD
ENDF
PUSHW_1
 2
FDEF
PUSHW_1
 1
LOOPCALL
POP
ENDF
PUSHW_1
 3
FDEF
DUP
GC[cur]
PUSHB_1
 3
CINDEX
GC[cur]
GT
IF
SWAP
EIF
DUP
ROLL
DUP
ROLL
MD[grid]
ABS
ROLL
DUP
GC[cur]
DUP
ROUND[Grey]
SUB
ABS
PUSHB_1
 4
CINDEX
GC[cur]
DUP

StartChar: exclam
Encoding: 33 33 3
Width: 333
GlyphClass: 1
Flags: W
LayerCount: 2
Fore
SplineSet
133 260 m 2,0,1
 134 237 134 237 139 217.5 c 128,-1,2
 144 198 144 198 167 198 c 0,3,4
 178 198 178 198 184.5 203.5 c 128,-1,5
 191 209 191 209 194 217.5 c 128,-1,6
 197 226 197 226 198 237 c 128,-1,7
 199 248 199 248 200 260 c 2,8,-1
 215 551 l 2,9,10
 215 559 215 559 215.5 578 c 128,-1,11
 216 597 216 597 216 619 c 256,12,13
 216 641 216 641 215.5 660 c 128,-1,14
 215 679 215 679 214 687 c 0,15,16
 211 700 211 700 205.5 708 c 128,-1,17
 200 716 200 716 193 720.5 c 128,-1,18
 186 725 186 725 178.5 726.5 c 128,-1,19
 171 728 171 728 166 728 c 256,20,21
 161 728 161 728 154 726.5 c 128,-1,22
 147 725 147 725 140 720.5 c 128,-1,23
 133 716 133 716 127.5 708 c 128,-1,24
 122 700 122 700 119 687 c 0,25,26
 117 679 117 679 117 660 c 0,27,28
 117 642 117 642 117 620 c 0,29,30
 117 599 117 599 117.5 579.5 c 128,-1,31
 118 560 118 560 118 551 c 2,32,-1
 133 260 l 2,0,1
166 98 m 256,33,34
 143 98 143 98 127 82 c 128,-1,35
 111 66 111 66 111 43 c 256,36,37
 111 20 111 20 127 4 c 128,-1,38
 143 -12 143 -12 166 -12 c 256,39,40
 189 -12 189 -12 205 4 c 128,-1,41
 221 20 221 20 221 43 c 256,42,43
 221 66 221 66 205 82 c 128,-1,44
 189 98 189 98 166 98 c 256,33,34
EndSplineSet
Validated: 9
EndChar

StartChar: quotedbl
Encoding: 34 34 4
Width: 354
GlyphClass: 1
Flags: W
LayerCount: 2
Fore
SplineSet
70 462 m 1,0,-1
 124 462 l 1,1,-1
 146 599 l 1,2,-1
 146 716 l 1,3,-1
 46 716 l 1,4,-1
 46 599 l 1,5,-1
 70 462 l 1,0,-1
232 462 m 1,6,-1
 285 462 l 1,7,-1
 308 599 l 1,8,-1
 308 716 l 1,9,-1
 208 716 l 1,10,-1
 208 599 l 1,11,-1
 232 462 l 1,6,-1
EndSplineSet
Validated: 9
EndChar

StartChar: numbersign
Encoding: 35 35 5
Width: 552
GlyphClass: 1
Flags: W
LayerCount: 2
Fore
SplineSet
93 196 m 1,0,-1
 61 42 l 2,1,2
 58 29 58 29 57.5 25 c 128,-1,3
 57 21 57 21 57 16 c 0,4,5
 57 7 57 7 64 -2.5 c 128,-1,6
 71 -12 71 -12 91 -12 c 0,7,8
 116 -12 116 -12 121.5 -2.5 c 128,-1,9
 127 7 127 7 132 30 c 2,10,-1
 166 196 l 1,11,-1
 320 196 l 1,12,-1
 288 42 l 2,13,14
 285 29 285 29 284.5 25 c 128,-1,15
 284 21 284 21 284 16 c 0,16,17
 284 7 284 7 291 -2.5 c 128,-1,18
 298 -12 298 -12 318 -12 c 0,19,20
 343 -12 343 -12 349 -2.5 c 128,-1,21
 355 7 355 7 360 30 c 2,22,-1
 393 196 l 1,23,-1
 495 196 l 2,24,25
 518 196 518 196 531 201 c 128,-1,26
 544 206 544 206 544 235 c 0,27,28
 544 260 544 260 529.5 263.5 c 128,-1,29
 515 267 515 267 495 267 c 2,30,-1
 408 267 l 1,31,-1
 444 447 l 1,32,-1
 495 447 l 2,33,34
 518 447 518 447 531 451.5 c 128,-1,35
 544 456 544 456 544 485 c 0,36,37
 544 510 544 510 529.5 514 c 128,-1,38
 515 518 515 518 495 518 c 2,39,-1
 459 518 l 1,40,-1
 490 674 l 2,41,42
 492 686 492 686 493.5 690.5 c 128,-1,43
 495 695 495 695 495 700 c 0,44,45
 495 709 495 709 488 718.5 c 128,-1,46
 481 728 481 728 461 728 c 0,47,48
 436 728 436 728 430 718.5 c 128,-1,49
 424 709 424 709 419 685 c 2,50,-1
 385 518 l 1,51,-1
 232 518 l 1,52,-1
 263 674 l 2,53,54
 265 686 265 686 266 690.5 c 128,-1,55
 267 695 267 695 267 700 c 0,56,57
 267 709 267 709 260 718.5 c 128,-1,58
 253 728 253 728 233 728 c 0,59,60
 209 728 209 728 203 718.5 c 128,-1,61
 197 709 197 709 192 685 c 2,62,-1
 158 518 l 1,63,-1
 59 518 l 2,64,65
 36 518 36 518 23 513 c 128,-1,66
 10 508 10 508 10 480 c 0,67,68
 10 467 10 467 14 460.5 c 128,-1,69
 18 454 18 454 24.5 451 c 128,-1,70
 31 448 31 448 40 447.5 c 128,-1,71
 49 447 49 447 59 447 c 2,72,-1
 144 447 l 1,73,-1
 107 267 l 1,74,-1
 59 267 l 2,75,76
 47 267 47 267 38 266.5 c 128,-1,77
 29 266 29 266 23 262.5 c 128,-1,78
 17 259 17 259 13.5 251.5 c 128,-1,79
 10 244 10 244 10 230 c 0,80,81
 10 217 10 217 14 210 c 128,-1,82
 18 203 18 203 24.5 200 c 128,-1,83
 31 197 31 197 40 196.5 c 128,-1,84
 49 196 49 196 59 196 c 2,85,-1
 93 196 l 1,0,-1
217 447 m 1,86,-1
 371 447 l 1,87,-1
 334 267 l 1,88,-1
 181 267 l 1,89,-1
 217 447 l 1,86,-1
EndSplineSet
Validated: 9
EndChar

StartChar: dollar
Encoding: 36 36 6
Width: 563
GlyphClass: 1
Flags: W
LayerCount: 2
Fore
SplineSet
306 657 m 1,0,1
 330 654 330 654 346.5 645 c 128,-1,2
 363 636 363 636 375 622.5 c 128,-1,3
 387 609 387 609 395 593 c 128,-1,4
 403 577 403 577 410 561 c 0,5,6
 415 548 415 548 423.5 536 c 128,-1,7
 432 524 432 524 452 524 c 0,8,9
 473 524 473 524 483.5 538 c 128,-1,10
 494 552 494 552 494 563 c 0,11,12
 494 583 494 583 481.5 610.5 c 128,-1,13
 469 638 469 638 449 661 c 0,14,15
 431 681 431 681 411.5 693.5 c 128,-1,16
 392 706 392 706 373 713 c 128,-1,17
 354 720 354 720 336.5 722.5 c 128,-1,18
 319 725 319 725 306 727 c 1,19,-1
 306 780 l 2,20,21
 306 783 306 783 305.5 789.5 c 128,-1,22
 305 796 305 796 303 802 c 128,-1,23
 301 808 301 808 295.5 812.5 c 128,-1,24
 290 817 290 817 281 817 c 0,25,26
 263 817 263 817 259 802.5 c 128,-1,27
 255 788 255 788 255 779 c 2,28,-1
 255 727 l 1,29,30
 234 725 234 725 200 718.5 c 128,-1,31
 166 712 166 712 129 687 c 0,32,33
 101 668 101 668 77 629.5 c 128,-1,34
 53 591 53 591 53 533 c 0,35,36
 53 518 53 518 56 497.5 c 128,-1,37
 59 477 59 477 67.5 456 c 128,-1,38
 76 435 76 435 91.5 415 c 128,-1,39
 107 395 107 395 133 380 c 0,40,41
 147 372 147 372 164 365 c 128,-1,42
 181 358 181 358 198 352 c 128,-1,43
 215 346 215 346 230 342 c 128,-1,44
 245 338 245 338 255 335 c 1,45,-1
 255 57 l 1,46,47
 224 61 224 61 202 73 c 128,-1,48
 180 85 180 85 165 102 c 128,-1,49
 150 119 150 119 140 141.5 c 128,-1,50
 130 164 130 164 122 190 c 0,51,52
 119 200 119 200 111 213.5 c 128,-1,53
 103 227 103 227 80 227 c 0,54,55
 65 227 65 227 51.5 215.5 c 128,-1,56
 38 204 38 204 38 185 c 0,57,58
 38 164 38 164 48.5 132 c 128,-1,59
 59 100 59 100 84 69 c 128,-1,60
 109 38 109 38 151 15 c 128,-1,61
 193 -8 193 -8 255 -12 c 1,62,-1
 255 -128 l 2,63,64
 255 -156 255 -156 258 -170.5 c 128,-1,65
 261 -185 261 -185 281 -185 c 0,66,67
 293 -185 293 -185 299.5 -175.5 c 128,-1,68
 306 -166 306 -166 306 -130 c 2,69,-1
 306 -11 l 1,70,71
 358 -6 358 -6 394 10 c 128,-1,72
 430 26 430 26 453.5 47.5 c 128,-1,73
 477 69 477 69 490 93.5 c 128,-1,74
 503 118 503 118 509.5 139.5 c 128,-1,75
 516 161 516 161 517 177.5 c 128,-1,76
 518 194 518 194 518 200 c 0,77,78
 518 241 518 241 503 276.5 c 128,-1,79
 488 312 488 312 459 338 c 0,80,81
 444 351 444 351 422.5 362 c 128,-1,82
 401 373 401 373 378.5 381.5 c 128,-1,83
 356 390 356 390 336 396.5 c 128,-1,84
 316 403 316 403 306 406 c 1,85,-1
 306 657 l 1,0,1
254 420 m 1,86,87
 233 426 233 426 212 434 c 128,-1,88
 191 442 191 442 174 455 c 128,-1,89
 157 468 157 468 146 488 c 128,-1,90
 135 508 135 508 135 538 c 0,91,92
 135 576 135 576 149.5 600 c 128,-1,93
 164 624 164 624 183.5 637 c 128,-1,94
 203 650 203 650 223 654.5 c 128,-1,95
 243 659 243 659 255 659 c 1,96,-1
 254 420 l 1,86,87
306 321 m 1,97,98
 328 314 328 314 351 305 c 128,-1,99
 374 296 374 296 393 282 c 128,-1,100
 412 268 412 268 424 246 c 128,-1,101
 436 224 436 224 436 191 c 0,102,103
 436 186 436 186 434 167.5 c 128,-1,104
 432 149 432 149 420 126.5 c 128,-1,105
 408 104 408 104 381.5 83.5 c 128,-1,106
 355 63 355 63 306 55 c 1,107,-1
 306 321 l 1,97,98
EndSplineSet
Validated: 9
EndChar

StartChar: percent
Encoding: 37 37 7
Width: 833
GlyphClass: 1
Flags: W
LayerCount: 2
Fore
SplineSet
22 532 m 256,0,1
 22 516 22 516 24 485 c 128,-1,2
 26 454 26 454 39.5 423 c 128,-1,3
 53 392 53 392 82.5 369 c 128,-1,4
 112 346 112 346 166 346 c 256,5,6
 220 346 220 346 249.5 369 c 128,-1,7
 279 392 279 392 292.5 423.5 c 128,-1,8
 306 455 306 455 308.5 487.5 c 128,-1,9
 311 520 311 520 311 540 c 0,10,11
 311 572 311 572 304.5 603.5 c 128,-1,12
 298 635 298 635 282 660.5 c 128,-1,13
 266 686 266 686 237.5 702 c 128,-1,14
 209 718 209 718 166 718 c 0,15,16
 112 718 112 718 82.5 695 c 128,-1,17
 53 672 53 672 39.5 641 c 128,-1,18
 26 610 26 610 24 579 c 128,-1,19
 22 548 22 548 22 532 c 256,0,1
522 180 m 256,20,21
 522 164 522 164 524 133 c 128,-1,22
 526 102 526 102 539.5 71 c 128,-1,23
 553 40 553 40 582.5 17 c 128,-1,24
 612 -6 612 -6 666 -6 c 256,25,26
 720 -6 720 -6 749.5 17 c 128,-1,27
 779 40 779 40 792.5 71.5 c 128,-1,28
 806 103 806 103 808.5 135.5 c 128,-1,29
 811 168 811 168 811 188 c 0,30,31
 811 220 811 220 804.5 251.5 c 128,-1,32
 798 283 798 283 782 308.5 c 128,-1,33
 766 334 766 334 737.5 350 c 128,-1,34
 709 366 709 366 666 366 c 0,35,36
 612 366 612 366 582.5 343 c 128,-1,37
 553 320 553 320 539.5 289 c 128,-1,38
 526 258 526 258 524 227 c 128,-1,39
 522 196 522 196 522 180 c 256,20,21
86 532 m 0,40,41
 86 598 86 598 103 634.5 c 128,-1,42
 120 671 120 671 167 671 c 0,43,44
 212 671 212 671 229.5 637.5 c 128,-1,45
 247 604 247 604 247 537 c 0,46,47
 247 503 247 503 243.5 476.5 c 128,-1,48
 240 450 240 450 231 431.5 c 128,-1,49
 222 413 222 413 206.5 403 c 128,-1,50
 191 393 191 393 167 393 c 0,51,52
 120 393 120 393 103 430 c 128,-1,53
 86 467 86 467 86 532 c 0,40,41
586 180 m 0,54,55
 586 246 586 246 603 282.5 c 128,-1,56
 620 319 620 319 667 319 c 0,57,58
 712 319 712 319 729.5 285.5 c 128,-1,59
 747 252 747 252 747 185 c 0,60,61
 747 151 747 151 743.5 124.5 c 128,-1,62
 740 98 740 98 731 79.5 c 128,-1,63
 722 61 722 61 706.5 51 c 128,-1,64
 691 41 691 41 667 41 c 0,65,66
 620 41 620 41 603 78 c 128,-1,67
 586 115 586 115 586 180 c 0,54,55
164 23 m 2,68,69
 153 9 153 9 153 -3 c 0,70,71
 153 -9 153 -9 160.5 -17.5 c 128,-1,72
 168 -26 168 -26 180 -26 c 0,73,74
 185 -26 185 -26 192 -23.5 c 128,-1,75
 199 -21 199 -21 210 -4 c 2,76,-1
 662 664 l 2,77,78
 668 672 668 672 674.5 683 c 128,-1,79
 681 694 681 694 681 701 c 0,80,81
 681 710 681 710 673.5 718.5 c 128,-1,82
 666 727 666 727 655 727 c 256,83,84
 644 727 644 727 637 719 c 128,-1,85
 630 711 630 711 618 694 c 2,86,-1
 164 23 l 2,68,69
EndSplineSet
Validated: 9
EndChar

StartChar: ampersand
Encoding: 38 38 8
Width: 698
GlyphClass: 1
Flags: W
LayerCount: 2
Fore
SplineSet
554 161 m 1,0,1
 560 171 560 171 570.5 191 c 128,-1,2
 581 211 581 211 591.5 233.5 c 128,-1,3
 602 256 602 256 609.5 277 c 128,-1,4
 617 298 617 298 617 311 c 0,5,6
 617 328 617 328 605 339.5 c 128,-1,7
 593 351 593 351 576 351 c 0,8,9
 555 351 555 351 541 325 c 0,10,11
 538 319 538 319 531.5 304.5 c 128,-1,12
 525 290 525 290 517.5 273.5 c 128,-1,13
 510 257 510 257 503.5 242.5 c 128,-1,14
 497 228 497 228 494 222 c 1,15,16
 479 238 479 238 467.5 251 c 128,-1,17
 456 264 456 264 441 281 c 128,-1,18
 426 298 426 298 404.5 324 c 128,-1,19
 383 350 383 350 348 393 c 1,20,21
 414 428 414 428 456 470.5 c 128,-1,22
 498 513 498 513 498 570 c 0,23,24
 498 592 498 592 489 619.5 c 128,-1,25
 480 647 480 647 459.5 671 c 128,-1,26
 439 695 439 695 406 711.5 c 128,-1,27
 373 728 373 728 325 728 c 0,28,29
 280 728 280 728 246.5 713 c 128,-1,30
 213 698 213 698 191 674.5 c 128,-1,31
 169 651 169 651 158.5 622.5 c 128,-1,32
 148 594 148 594 148 566 c 0,33,34
 148 529 148 529 168.5 490.5 c 128,-1,35
 189 452 189 452 224 407 c 1,36,37
 196 392 196 392 166.5 373 c 128,-1,38
 137 354 137 354 112.5 329.5 c 128,-1,39
 88 305 88 305 72 272.5 c 128,-1,40
 56 240 56 240 56 197 c 0,41,42
 56 163 56 163 70 126 c 128,-1,43
 84 89 84 89 113 58.5 c 128,-1,44
 142 28 142 28 186.5 8 c 128,-1,45
 231 -12 231 -12 293 -12 c 0,46,47
 335 -12 335 -12 367.5 -2.5 c 128,-1,48
 400 7 400 7 425 21.5 c 128,-1,49
 450 36 450 36 468.5 54 c 128,-1,50
 487 72 487 72 501 89 c 1,51,52
 509 81 509 81 522.5 67.5 c 128,-1,53
 536 54 536 54 562 31 c 0,54,55
 580 15 580 15 592 6 c 128,-1,56
 604 -3 604 -3 611.5 -7 c 128,-1,57
 619 -11 619 -11 623.5 -11.5 c 128,-1,58
 628 -12 628 -12 632 -12 c 0,59,60
 645 -12 645 -12 659.5 -1 c 128,-1,61
 674 10 674 10 674 32 c 0,62,63
 674 44 674 44 668 52 c 128,-1,64
 662 60 662 60 648 73 c 0,65,66
 629 89 629 89 617.5 99.5 c 128,-1,67
 606 110 606 110 596.5 118.5 c 128,-1,68
 587 127 587 127 578 136.5 c 128,-1,69
 569 146 569 146 554 161 c 1,0,1
269 350 m 1,70,71
 282 332 282 332 304 305 c 128,-1,72
 326 278 326 278 350.5 249.5 c 128,-1,73
 375 221 375 221 399.5 194 c 128,-1,74
 424 167 424 167 442 148 c 1,75,76
 435 139 435 139 422 123.5 c 128,-1,77
 409 108 409 108 390.5 94 c 128,-1,78
 372 80 372 80 347.5 69.5 c 128,-1,79
 323 59 323 59 292 59 c 0,80,81
 260 59 260 59 233.5 72 c 128,-1,82
 207 85 207 85 187.5 106 c 128,-1,83
 168 127 168 127 157.5 153 c 128,-1,84
 147 179 147 179 147 206 c 256,85,86
 147 233 147 233 157.5 253.5 c 128,-1,87
 168 274 168 274 185 291.5 c 128,-1,88
 202 309 202 309 224 323 c 128,-1,89
 246 337 246 337 269 350 c 1,70,71
302 448 m 0,90,91
 300 451 300 451 294 459 c 128,-1,92
 288 467 288 467 281 476.5 c 128,-1,93
 274 486 274 486 268 494 c 128,-1,94
 262 502 262 502 260 504 c 0,95,96
 252 515 252 515 243.5 534.5 c 128,-1,97
 235 554 235 554 235 574 c 0,98,99
 235 590 235 590 241.5 605.5 c 128,-1,100
 248 621 248 621 260 633 c 128,-1,101
 272 645 272 645 289 652.5 c 128,-1,102
 306 660 306 660 326 660 c 0,103,104
 366 660 366 660 390.5 634 c 128,-1,105
 415 608 415 608 415 573 c 0,106,107
 415 552 415 552 406 534.5 c 128,-1,108
 397 517 397 517 381.5 502 c 128,-1,109
 366 487 366 487 345.5 474 c 128,-1,110
 325 461 325 461 302 448 c 0,90,91
EndSplineSet
Validated: 9
EndChar

StartChar: quotesingle
Encoding: 39 39 9
Width: 188
GlyphClass: 1
Flags: W
LayerCount: 2
Fore
SplineSet
66 462 m 1,0,-1
 121 462 l 1,1,-1
 144 596 l 1,2,-1
 144 716 l 1,3,-1
 44 716 l 1,4,-1
 44 596 l 1,5,-1
 66 462 l 1,0,-1
EndSplineSet
Validated: 9
EndChar

StartChar: parenleft
Encoding: 40 40 10
Width: 344
GlyphClass: 1
Flags: W
LayerCount: 2
Fore
SplineSet
73 259 m 0,0,1
 73 199 73 199 82 146.5 c 128,-1,2
 91 94 91 94 106.5 47 c 128,-1,3
 122 0 122 0 144 -44 c 128,-1,4
 166 -88 166 -88 192 -131 c 0,5,6
 210 -161 210 -161 222.5 -177 c 128,-1,7
 235 -193 235 -193 244.5 -200.5 c 128,-1,8
 254 -208 254 -208 261 -209 c 128,-1,9
 268 -210 268 -210 275 -210 c 0,10,11
 285 -210 285 -210 289 -207 c 128,-1,12
 293 -204 293 -204 293 -201 c 256,13,14
 293 -198 293 -198 291 -195 c 0,15,16
 290 -192 290 -192 285 -182.5 c 128,-1,17
 280 -173 280 -173 278 -170 c 0,18,19
 237 -90 237 -90 213.5 -25.5 c 128,-1,20
 190 39 190 39 178 91 c 128,-1,21
 166 143 166 143 163 184.5 c 128,-1,22
 160 226 160 226 160 259 c 0,23,24
 160 304 160 304 165 355 c 128,-1,25
 170 406 170 406 186 460 c 0,26,27
 204 522 204 522 228.5 580.5 c 128,-1,28
 253 639 253 639 283 696 c 0,29,30
 290 709 290 709 291.5 712 c 128,-1,31
 293 715 293 715 293 719 c 0,32,33
 293 726 293 726 284 727 c 128,-1,34
 275 728 275 728 273 728 c 0,35,36
 268 728 268 728 262 727 c 128,-1,37
 256 726 256 726 248.5 721 c 128,-1,38
 241 716 241 716 231.5 706 c 128,-1,39
 222 696 222 696 210 678 c 0,40,41
 165 611 165 611 138 551.5 c 128,-1,42
 111 492 111 492 96.5 439.5 c 128,-1,43
 82 387 82 387 77.5 342 c 128,-1,44
 73 297 73 297 73 259 c 0,0,1
EndSplineSet
Validated: 9
EndChar

StartChar: parenright
Encoding: 41 41 11
Width: 344
GlyphClass: 1
Flags: W
LayerCount: 2
Fore
SplineSet
271 259 m 0,0,1
 271 319 271 319 262 371.5 c 128,-1,2
 253 424 253 424 237.5 471 c 128,-1,3
 222 518 222 518 200 562 c 128,-1,4
 178 606 178 606 152 649 c 0,5,6
 134 679 134 679 121.5 695 c 128,-1,7
 109 711 109 711 99.5 718.5 c 128,-1,8
 90 726 90 726 83 727 c 128,-1,9
 76 728 76 728 69 728 c 0,10,11
 59 728 59 728 55 725 c 128,-1,12
 51 722 51 722 51 719 c 256,13,14
 51 716 51 716 53 713 c 0,15,16
 54 710 54 710 59 700.5 c 128,-1,17
 64 691 64 691 66 688 c 0,18,19
 107 608 107 608 130.5 543.5 c 128,-1,20
 154 479 154 479 166 427 c 128,-1,21
 178 375 178 375 181 333.5 c 128,-1,22
 184 292 184 292 184 259 c 0,23,24
 184 214 184 214 179 163 c 128,-1,25
 174 112 174 112 158 58 c 0,26,27
 140 -4 140 -4 115.5 -62.5 c 128,-1,28
 91 -121 91 -121 61 -178 c 0,29,30
 54 -191 54 -191 52.5 -194 c 128,-1,31
 51 -197 51 -197 51 -201 c 0,32,33
 51 -208 51 -208 60 -209 c 128,-1,34
 69 -210 69 -210 71 -210 c 0,35,36
 81 -210 81 -210 95.5 -202.5 c 128,-1,37
 110 -195 110 -195 134 -160 c 0,38,39
 179 -93 179 -93 206 -33.5 c 128,-1,40
 233 26 233 26 247.5 78.5 c 128,-1,41
 262 131 262 131 266.5 176 c 128,-1,42
 271 221 271 221 271 259 c 0,0,1
EndSplineSet
Validated: 9
EndChar

StartChar: asterisk
Encoding: 42 42 12
Width: 406
GlyphClass: 1
Flags: W
LayerCount: 2
Fore
SplineSet
234 714 m 2,0,1
 234 734 234 734 223.5 741.5 c 128,-1,2
 213 749 213 749 203 749 c 0,3,4
 189 749 189 749 180 739.5 c 128,-1,5
 171 730 171 730 171 716 c 0,6,7
 171 707 171 707 172.5 691 c 128,-1,8
 174 675 174 675 175.5 657 c 128,-1,9
 177 639 177 639 179 622.5 c 128,-1,10
 181 606 181 606 182 596 c 1,11,12
 143 614 143 614 120.5 624 c 128,-1,13
 98 634 98 634 85.5 639 c 128,-1,14
 73 644 73 644 67.5 645 c 128,-1,15
 62 646 62 646 57 646 c 0,16,17
 49 646 49 646 38.5 638.5 c 128,-1,18
 28 631 28 631 28 615 c 0,19,20
 28 601 28 601 41.5 590.5 c 128,-1,21
 55 580 55 580 99 571 c 0,22,23
 103 570 103 570 112.5 568 c 128,-1,24
 122 566 122 566 133.5 563.5 c 128,-1,25
 145 561 145 561 155 559 c 128,-1,26
 165 557 165 557 169 556 c 1,27,28
 159 546 159 546 144.5 530 c 128,-1,29
 130 514 130 514 116 497.5 c 128,-1,30
 102 481 102 481 92 466.5 c 128,-1,31
 82 452 82 452 82 443 c 256,32,33
 82 434 82 434 90.5 423.5 c 128,-1,34
 99 413 99 413 115 413 c 0,35,36
 121 413 121 413 126.5 415.5 c 128,-1,37
 132 418 132 418 134 420 c 0,38,39
 138 424 138 424 142 429.5 c 128,-1,40
 146 435 146 435 153 446 c 128,-1,41
 160 457 160 457 171.5 477 c 128,-1,42
 183 497 183 497 203 531 c 1,43,44
 210 518 210 518 223.5 495 c 128,-1,45
 237 472 237 472 260 439 c 0,46,47
 274 419 274 419 282 416 c 128,-1,48
 290 413 290 413 295 413 c 0,49,50
 308 413 308 413 317.5 422 c 128,-1,51
 327 431 327 431 327 444 c 0,52,53
 327 449 327 449 324.5 455 c 128,-1,54
 322 461 322 461 313 472.5 c 128,-1,55
 304 484 304 484 286.5 503.5 c 128,-1,56
 269 523 269 523 239 556 c 1,57,58
 287 565 287 565 314.5 572 c 128,-1,59
 342 579 342 579 356 585.5 c 128,-1,60
 370 592 370 592 374 599 c 128,-1,61
 378 606 378 606 378 615 c 0,62,63
 378 632 378 632 367 639 c 128,-1,64
 356 646 356 646 349 646 c 0,65,66
 337 646 337 646 322.5 640.5 c 128,-1,67
 308 635 308 635 305 633 c 0,68,69
 300 631 300 631 289 625.5 c 128,-1,70
 278 620 278 620 265 614 c 128,-1,71
 252 608 252 608 240.5 603 c 128,-1,72
 229 598 229 598 225 596 c 1,73,-1
 234 714 l 2,0,1
EndSplineSet
Validated: 9
EndChar

StartChar: plus
Encoding: 43 43 13
Width: 583
GlyphClass: 1
Flags: W
LayerCount: 2
Fore
SplineSet
251 116 m 1,0,-1
 333 116 l 1,1,-1
 333 312 l 1,2,-1
 529 312 l 1,3,-1
 529 394 l 1,4,-1
 333 394 l 1,5,-1
 333 590 l 1,6,-1
 251 590 l 1,7,-1
 251 394 l 1,8,-1
 55 394 l 1,9,-1
 55 312 l 1,10,-1
 251 312 l 1,11,-1
 251 116 l 1,0,-1
EndSplineSet
Validated: 9
EndChar

StartChar: comma
Encoding: 44 44 14
Width: 240
GlyphClass: 1
Flags: W
LayerCount: 2
Fore
SplineSet
120 -12 m 1,0,1
 120 -26 120 -26 116 -37 c 128,-1,2
 112 -48 112 -48 107.5 -56 c 128,-1,3
 103 -64 103 -64 99 -69 c 128,-1,4
 95 -74 95 -74 94 -75 c 0,5,6
 83 -85 83 -85 78.5 -90.5 c 128,-1,7
 74 -96 74 -96 74 -105 c 256,8,9
 74 -114 74 -114 80.5 -122 c 128,-1,10
 87 -130 87 -130 97 -130 c 0,11,12
 112 -130 112 -130 127 -118 c 128,-1,13
 142 -106 142 -106 154 -86 c 128,-1,14
 166 -66 166 -66 173.5 -39 c 128,-1,15
 181 -12 181 -12 181 18 c 0,16,17
 181 55 181 55 165.5 77.5 c 128,-1,18
 150 100 150 100 120 100 c 0,19,20
 97 100 97 100 79.5 84 c 128,-1,21
 62 68 62 68 62 43 c 0,22,23
 62 21 62 21 77.5 5 c 128,-1,24
 93 -11 93 -11 120 -12 c 1,0,1
EndSplineSet
Validated: 9
EndChar

StartChar: period
Encoding: 46 46 15
Width: 240
GlyphClass: 1
Flags: W
LayerCount: 2
Fore
SplineSet
120 98 m 256,0,1
 97 98 97 98 81 82 c 128,-1,2
 65 66 65 66 65 43 c 256,3,4
 65 20 65 20 81 4 c 128,-1,5
 97 -12 97 -12 120 -12 c 256,6,7
 143 -12 143 -12 159 4 c 128,-1,8
 175 20 175 20 175 43 c 256,9,10
 175 66 175 66 159 82 c 128,-1,11
 143 98 143 98 120 98 c 256,0,1
EndSplineSet
Validated: 9
EndChar

StartChar: slash
Encoding: 47 47 16
Width: 281
GlyphClass: 1
Flags: W
LayerCount: 2
Fore
SplineSet
17 44 m 2,0,1
 14 31 14 31 12.5 25.5 c 128,-1,2
 11 20 11 20 11 15 c 0,3,4
 11 2 11 2 20.5 -5 c 128,-1,5
 30 -12 30 -12 40 -12 c 0,6,7
 52 -12 52 -12 59 -10.5 c 128,-1,8
 66 -9 66 -9 70 -4.5 c 128,-1,9
 74 0 74 0 77 8 c 128,-1,10
 80 16 80 16 83 28 c 2,11,-1
 264 672 l 2,12,13
 267 685 267 685 268.5 690 c 128,-1,14
 270 695 270 695 270 700 c 0,15,16
 270 713 270 713 260.5 720.5 c 128,-1,17
 251 728 251 728 241 728 c 0,18,19
 229 728 229 728 222 726 c 128,-1,20
 215 724 215 724 211 719.5 c 128,-1,21
 207 715 207 715 204 707.5 c 128,-1,22
 201 700 201 700 198 688 c 2,23,-1
 17 44 l 2,0,1
EndSplineSet
Validated: 9
EndChar

StartChar: zero
Encoding: 48 48 17
Width: 563
GlyphClass: 1
Flags: W
LayerCount: 2
Fore
SplineSet
46 352 m 256,0,1
 46 286 46 286 52 239.5 c 128,-1,2
 58 193 58 193 67.5 160 c 128,-1,3
 77 127 77 127 89.5 104.5 c 128,-1,4
 102 82 102 82 116 64 c 0,5,6
 148 22 148 22 190.5 5 c 128,-1,7
 233 -12 233 -12 281 -12 c 0,8,9
 335 -12 335 -12 375.5 6 c 128,-1,10
 416 24 416 24 447 64 c 0,11,12
 460 81 460 81 473 103 c 128,-1,13
 486 125 486 125 495.5 159.5 c 128,-1,14
 505 194 505 194 511 244 c 128,-1,15
 517 294 517 294 517 368 c 0,16,17
 517 425 517 425 511.5 467.5 c 128,-1,18
 506 510 506 510 496.5 542 c 128,-1,19
 487 574 487 574 474 597.5 c 128,-1,20
 461 621 461 621 447 640 c 0,21,22
 417 680 417 680 374.5 698 c 128,-1,23
 332 716 332 716 282 716 c 0,24,25
 176 716 176 716 116 640 c 0,26,27
 102 623 102 623 89.5 601 c 128,-1,28
 77 579 77 579 67.5 545.5 c 128,-1,29
 58 512 58 512 52 465 c 128,-1,30
 46 418 46 418 46 352 c 256,0,1
135 352 m 0,31,32
 135 416 135 416 141 470 c 128,-1,33
 147 524 147 524 163.5 563.5 c 128,-1,34
 180 603 180 603 208.5 625.5 c 128,-1,35
 237 648 237 648 282 648 c 256,36,37
 327 648 327 648 355.5 625 c 128,-1,38
 384 602 384 602 400 562.5 c 128,-1,39
 416 523 416 523 422 469 c 128,-1,40
 428 415 428 415 428 352 c 256,41,42
 428 289 428 289 422 234.5 c 128,-1,43
 416 180 416 180 400 140.5 c 128,-1,44
 384 101 384 101 355.5 78.5 c 128,-1,45
 327 56 327 56 282 56 c 256,46,47
 237 56 237 56 208 79 c 128,-1,48
 179 102 179 102 163 141.5 c 128,-1,49
 147 181 147 181 141 235 c 128,-1,50
 135 289 135 289 135 352 c 0,31,32
EndSplineSet
Validated: 9
EndChar

StartChar: one
Encoding: 49 49 18
Width: 563
GlyphClass: 1
Flags: W
LayerCount: 2
Fore
SplineSet
375 650 m 2,0,1
 375 657 375 657 374.5 668.5 c 128,-1,2
 374 680 374 680 370 690.5 c 128,-1,3
 366 701 366 701 358.5 708.5 c 128,-1,4
 351 716 351 716 336 716 c 0,5,6
 322 716 322 716 314 707.5 c 128,-1,7
 306 699 306 699 297 685 c 0,8,9
 277 654 277 654 252 630 c 128,-1,10
 227 606 227 606 203 588 c 128,-1,11
 179 570 179 570 158.5 559 c 128,-1,12
 138 548 138 548 129 544 c 0,13,14
 101 531 101 531 93.5 521.5 c 128,-1,15
 86 512 86 512 86 501 c 0,16,17
 86 482 86 482 97.5 473.5 c 128,-1,18
 109 465 109 465 118 465 c 0,19,20
 125 465 125 465 137 468 c 128,-1,21
 149 471 149 471 168.5 482 c 128,-1,22
 188 493 188 493 217.5 513 c 128,-1,23
 247 533 247 533 288 568 c 1,24,-1
 288 48 l 2,25,26
 288 43 288 43 288.5 33 c 128,-1,27
 289 23 289 23 293 13 c 128,-1,28
 297 3 297 3 306 -4.5 c 128,-1,29
 315 -12 315 -12 331 -12 c 256,30,31
 347 -12 347 -12 356 -5 c 128,-1,32
 365 2 365 2 369.5 12.5 c 128,-1,33
 374 23 374 23 374.5 34.5 c 128,-1,34
 375 46 375 46 375 55 c 2,35,-1
 375 650 l 2,0,1
EndSplineSet
Validated: 9
EndChar

StartChar: two
Encoding: 50 50 19
Width: 563
GlyphClass: 1
Flags: W
LayerCount: 2
Fore
SplineSet
155 79 m 1,0,1
 161 92 161 92 168 104 c 128,-1,2
 175 116 175 116 190.5 133.5 c 128,-1,3
 206 151 206 151 233.5 175.5 c 128,-1,4
 261 200 261 200 309 238 c 0,5,6
 354 274 354 274 391.5 305.5 c 128,-1,7
 429 337 429 337 456 369.5 c 128,-1,8
 483 402 483 402 498 437.5 c 128,-1,9
 513 473 513 473 513 516 c 0,10,11
 513 528 513 528 510.5 547.5 c 128,-1,12
 508 567 508 567 499.5 589.5 c 128,-1,13
 491 612 491 612 475.5 634.5 c 128,-1,14
 460 657 460 657 434.5 675 c 128,-1,15
 409 693 409 693 372 704.5 c 128,-1,16
 335 716 335 716 284 716 c 0,17,18
 225 716 225 716 182.5 696.5 c 128,-1,19
 140 677 140 677 112.5 648 c 128,-1,20
 85 619 85 619 71.5 585.5 c 128,-1,21
 58 552 58 552 58 524 c 0,22,23
 58 512 58 512 62 504.5 c 128,-1,24
 66 497 66 497 72 492.5 c 128,-1,25
 78 488 78 488 84.5 486.5 c 128,-1,26
 91 485 91 485 95 485 c 0,27,28
 119 485 119 485 127.5 502 c 128,-1,29
 136 519 136 519 143 545 c 0,30,31
 150 572 150 572 165 591.5 c 128,-1,32
 180 611 180 611 199.5 623.5 c 128,-1,33
 219 636 219 636 241 642 c 128,-1,34
 263 648 263 648 285 648 c 0,35,36
 311 648 311 648 336 639.5 c 128,-1,37
 361 631 361 631 380.5 614 c 128,-1,38
 400 597 400 597 412 572 c 128,-1,39
 424 547 424 547 424 514 c 0,40,41
 424 491 424 491 418 470 c 128,-1,42
 412 449 412 449 396.5 426 c 128,-1,43
 381 403 381 403 353 376 c 128,-1,44
 325 349 325 349 281 313 c 0,45,46
 255 292 255 292 229.5 271.5 c 128,-1,47
 204 251 204 251 178 229 c 0,48,49
 116 176 116 176 81 128 c 128,-1,50
 46 80 46 80 46 44 c 0,51,52
 46 23 46 23 60 11.5 c 128,-1,53
 74 0 74 0 106 0 c 2,54,-1
 453 0 l 2,55,56
 466 0 466 0 478.5 0.5 c 128,-1,57
 491 1 491 1 501.5 5 c 128,-1,58
 512 9 512 9 518.5 17 c 128,-1,59
 525 25 525 25 525 40 c 256,60,61
 525 55 525 55 518 62.5 c 128,-1,62
 511 70 511 70 500.5 74 c 128,-1,63
 490 78 490 78 477 78.5 c 128,-1,64
 464 79 464 79 452 79 c 2,65,-1
 155 79 l 1,0,1
EndSplineSet
Validated: 9
EndChar

StartChar: three
Encoding: 51 51 20
Width: 563
GlyphClass: 1
Flags: W
LayerCount: 2
Fore
SplineSet
382 385 m 1,0,1
 395 392 395 392 413 403.5 c 128,-1,2
 431 415 431 415 447.5 432.5 c 128,-1,3
 464 450 464 450 475 474.5 c 128,-1,4
 486 499 486 499 486 534 c 0,5,6
 486 571 486 571 472 604 c 128,-1,7
 458 637 458 637 431.5 662 c 128,-1,8
 405 687 405 687 366.5 701.5 c 128,-1,9
 328 716 328 716 280 716 c 0,10,11
 218 716 218 716 177 695 c 128,-1,12
 136 674 136 674 111 646 c 128,-1,13
 86 618 86 618 76 590 c 128,-1,14
 66 562 66 562 66 548 c 0,15,16
 66 544 66 544 67.5 537.5 c 128,-1,17
 69 531 69 531 73 525 c 128,-1,18
 77 519 77 519 84.5 515 c 128,-1,19
 92 511 92 511 103 511 c 0,20,21
 112 511 112 511 118 513 c 128,-1,22
 124 515 124 515 128.5 521 c 128,-1,23
 133 527 133 527 138 537.5 c 128,-1,24
 143 548 143 548 150 564 c 0,25,26
 157 579 157 579 168 594.5 c 128,-1,27
 179 610 179 610 194.5 622.5 c 128,-1,28
 210 635 210 635 230 643 c 128,-1,29
 250 651 250 651 276 651 c 0,30,31
 307 651 307 651 329.5 640 c 128,-1,32
 352 629 352 629 367 612 c 128,-1,33
 382 595 382 595 389.5 574.5 c 128,-1,34
 397 554 397 554 397 534 c 0,35,36
 397 503 397 503 379.5 472.5 c 128,-1,37
 362 442 362 442 325 427 c 0,38,39
 301 417 301 417 283.5 415.5 c 128,-1,40
 266 414 266 414 246 414 c 0,41,42
 242 414 242 414 234 413 c 128,-1,43
 226 412 226 412 218 408.5 c 128,-1,44
 210 405 210 405 204 397.5 c 128,-1,45
 198 390 198 390 198 377 c 0,46,47
 198 365 198 365 207 354 c 128,-1,48
 216 343 216 343 236 343 c 0,49,50
 239 343 239 343 247 344 c 128,-1,51
 255 345 255 345 264.5 345.5 c 128,-1,52
 274 346 274 346 282.5 347 c 128,-1,53
 291 348 291 348 294 348 c 0,54,55
 330 348 330 348 355.5 335.5 c 128,-1,56
 381 323 381 323 397.5 303 c 128,-1,57
 414 283 414 283 422 258.5 c 128,-1,58
 430 234 430 234 430 210 c 0,59,60
 430 181 430 181 419.5 153.5 c 128,-1,61
 409 126 409 126 389.5 104.5 c 128,-1,62
 370 83 370 83 341 69.5 c 128,-1,63
 312 56 312 56 276 56 c 256,64,65
 240 56 240 56 214.5 68.5 c 128,-1,66
 189 81 189 81 172 99 c 128,-1,67
 155 117 155 117 145 137.5 c 128,-1,68
 135 158 135 158 130 174 c 0,69,70
 125 191 125 191 117 203 c 128,-1,71
 109 215 109 215 90 215 c 0,72,73
 72 215 72 215 61 203.5 c 128,-1,74
 50 192 50 192 50 180 c 0,75,76
 50 154 50 154 67 116.5 c 128,-1,77
 84 79 84 79 113 48 c 0,78,79
 125 36 125 36 140 25 c 128,-1,80
 155 14 155 14 176 6 c 128,-1,81
 197 -2 197 -2 225 -7 c 128,-1,82
 253 -12 253 -12 289 -12 c 0,83,84
 346 -12 346 -12 389.5 7 c 128,-1,85
 433 26 433 26 461.5 57.5 c 128,-1,86
 490 89 490 89 504.5 129 c 128,-1,87
 519 169 519 169 519 212 c 0,88,89
 519 263 519 263 503 294.5 c 128,-1,90
 487 326 487 326 465.5 345 c 128,-1,91
 444 364 444 364 420.5 372.5 c 128,-1,92
 397 381 397 381 382 385 c 1,0,1
EndSplineSet
Validated: 9
EndChar

StartChar: four
Encoding: 52 52 21
Width: 563
GlyphClass: 1
Flags: W
LayerCount: 2
Fore
SplineSet
347 169 m 1,0,-1
 347 56 l 2,1,2
 347 44 347 44 347.5 32 c 128,-1,3
 348 20 348 20 352 10.5 c 128,-1,4
 356 1 356 1 364.5 -5.5 c 128,-1,5
 373 -12 373 -12 389 -12 c 0,6,7
 399 -12 399 -12 406 -8.5 c 128,-1,8
 413 -5 413 -5 418 0 c 0,9,10
 427 8 427 8 428.5 21.5 c 128,-1,11
 430 35 430 35 430 56 c 2,12,-1
 430 169 l 1,13,-1
 482 169 l 2,14,15
 489 169 489 169 498.5 169.5 c 128,-1,16
 508 170 508 170 517 173.5 c 128,-1,17
 526 177 526 177 532 184.5 c 128,-1,18
 538 192 538 192 538 206 c 256,19,20
 538 220 538 220 532 227.5 c 128,-1,21
 526 235 526 235 517 238.5 c 128,-1,22
 508 242 508 242 498 242.5 c 128,-1,23
 488 243 488 243 479 243 c 2,24,-1
 430 243 l 1,25,-1
 430 646 l 2,26,27
 430 659 430 659 429.5 671.5 c 128,-1,28
 429 684 429 684 424.5 694 c 128,-1,29
 420 704 420 704 411 710 c 128,-1,30
 402 716 402 716 386 716 c 0,31,32
 378 716 378 716 368 710 c 128,-1,33
 358 704 358 704 337 676 c 2,34,-1
 37 271 l 2,35,36
 27 258 27 258 21.5 250 c 128,-1,37
 16 242 16 242 13 236.5 c 128,-1,38
 10 231 10 231 9 227 c 128,-1,39
 8 223 8 223 8 218 c 0,40,41
 8 197 8 197 24 181 c 0,42,43
 33 172 33 172 47 170.5 c 128,-1,44
 61 169 61 169 88 169 c 2,45,-1
 347 169 l 1,0,-1
98 243 m 1,46,-1
 347 581 l 1,47,-1
 347 243 l 1,48,-1
 98 243 l 1,46,-1
EndSplineSet
Validated: 9
EndChar

StartChar: five
Encoding: 53 53 22
Width: 563
GlyphClass: 1
Flags: W
LayerCount: 2
Fore
SplineSet
194 630 m 1,0,-1
 443 630 l 2,1,2
 452 630 452 630 462.5 630.5 c 128,-1,3
 473 631 473 631 482 635 c 128,-1,4
 491 639 491 639 497 646.5 c 128,-1,5
 503 654 503 654 503 669 c 0,6,7
 503 683 503 683 497 691 c 128,-1,8
 491 699 491 699 481.5 702.5 c 128,-1,9
 472 706 472 706 461.5 706.5 c 128,-1,10
 451 707 451 707 442 707 c 2,11,-1
 193 707 l 2,12,13
 174 707 174 707 161 705.5 c 128,-1,14
 148 704 148 704 140 698 c 128,-1,15
 132 692 132 692 127 679.5 c 128,-1,16
 122 667 122 667 118 646 c 2,17,-1
 70 382 l 2,18,19
 68 368 68 368 67 363 c 128,-1,20
 66 358 66 358 66 353 c 0,21,22
 66 338 66 338 78 326.5 c 128,-1,23
 90 315 90 315 106 315 c 0,24,25
 119 315 119 315 127 320.5 c 128,-1,26
 135 326 135 326 138 329 c 0,27,28
 151 342 151 342 165.5 354 c 128,-1,29
 180 366 180 366 197 375.5 c 128,-1,30
 214 385 214 385 235 391 c 128,-1,31
 256 397 256 397 284 397 c 0,32,33
 314 397 314 397 341 386 c 128,-1,34
 368 375 368 375 388.5 354 c 128,-1,35
 409 333 409 333 421.5 301.5 c 128,-1,36
 434 270 434 270 434 230 c 0,37,38
 434 201 434 201 425 170 c 128,-1,39
 416 139 416 139 397.5 113.5 c 128,-1,40
 379 88 379 88 349.5 72 c 128,-1,41
 320 56 320 56 280 56 c 0,42,43
 245 56 245 56 220.5 66.5 c 128,-1,44
 196 77 196 77 179 93.5 c 128,-1,45
 162 110 162 110 151 129.5 c 128,-1,46
 140 149 140 149 133 167 c 0,47,48
 127 181 127 181 118.5 192 c 128,-1,49
 110 203 110 203 91 203 c 0,50,51
 78 203 78 203 65 194 c 128,-1,52
 52 185 52 185 52 162 c 0,53,54
 52 151 52 151 56.5 139 c 128,-1,55
 61 127 61 127 66 117 c 0,56,57
 87 75 87 75 113.5 49.5 c 128,-1,58
 140 24 140 24 168 10.5 c 128,-1,59
 196 -3 196 -3 223.5 -7.5 c 128,-1,60
 251 -12 251 -12 273 -12 c 0,61,62
 337 -12 337 -12 384 11 c 128,-1,63
 431 34 431 34 462 70 c 128,-1,64
 493 106 493 106 508 150 c 128,-1,65
 523 194 523 194 523 236 c 0,66,67
 523 285 523 285 506 326.5 c 128,-1,68
 489 368 489 368 459 399 c 128,-1,69
 429 430 429 430 388.5 447.5 c 128,-1,70
 348 465 348 465 301 465 c 0,71,72
 274 465 274 465 251.5 459.5 c 128,-1,73
 229 454 229 454 210.5 446.5 c 128,-1,74
 192 439 192 439 178 431 c 128,-1,75
 164 423 164 423 155 417 c 1,76,-1
 194 630 l 1,0,-1
EndSplineSet
Validated: 9
EndChar

StartChar: six
Encoding: 54 54 23
Width: 563
GlyphClass: 1
Flags: W
LayerCount: 2
Fore
SplineSet
130 361 m 1,0,1
 131 378 131 378 133 400.5 c 128,-1,2
 135 423 135 423 138 447.5 c 128,-1,3
 141 472 141 472 146 496 c 128,-1,4
 151 520 151 520 159 540 c 0,5,6
 172 574 172 574 190 595.5 c 128,-1,7
 208 617 208 617 227.5 629 c 128,-1,8
 247 641 247 641 266 645.5 c 128,-1,9
 285 650 285 650 301 650 c 0,10,11
 330 650 330 650 350 641 c 128,-1,12
 370 632 370 632 383 618.5 c 128,-1,13
 396 605 396 605 403.5 589.5 c 128,-1,14
 411 574 411 574 416 562 c 0,15,16
 420 551 420 551 428.5 538 c 128,-1,17
 437 525 437 525 459 525 c 0,18,19
 478 525 478 525 488 537.5 c 128,-1,20
 498 550 498 550 498 561 c 0,21,22
 498 569 498 569 491 594 c 128,-1,23
 484 619 484 619 463 646 c 128,-1,24
 442 673 442 673 403.5 694.5 c 128,-1,25
 365 716 365 716 302 716 c 0,26,27
 288 716 288 716 266 713.5 c 128,-1,28
 244 711 244 711 219 702 c 128,-1,29
 194 693 194 693 168 676.5 c 128,-1,30
 142 660 142 660 120 632 c 0,31,32
 96 601 96 601 80.5 565.5 c 128,-1,33
 65 530 65 530 56.5 491.5 c 128,-1,34
 48 453 48 453 45 413.5 c 128,-1,35
 42 374 42 374 42 334 c 0,36,37
 42 282 42 282 46.5 244.5 c 128,-1,38
 51 207 51 207 58 180 c 128,-1,39
 65 153 65 153 73 135 c 128,-1,40
 81 117 81 117 89 104 c 0,41,42
 99 87 99 87 115 66.5 c 128,-1,43
 131 46 131 46 155.5 28.5 c 128,-1,44
 180 11 180 11 213 -0.5 c 128,-1,45
 246 -12 246 -12 289 -12 c 0,46,47
 345 -12 345 -12 388.5 9 c 128,-1,48
 432 30 432 30 461.5 64 c 128,-1,49
 491 98 491 98 506.5 141.5 c 128,-1,50
 522 185 522 185 522 230 c 256,51,52
 522 275 522 275 507 316 c 128,-1,53
 492 357 492 357 464.5 388 c 128,-1,54
 437 419 437 419 398 437 c 128,-1,55
 359 455 359 455 311 455 c 0,56,57
 270 455 270 455 239 443.5 c 128,-1,58
 208 432 208 432 186 416.5 c 128,-1,59
 164 401 164 401 150.5 385.5 c 128,-1,60
 137 370 137 370 130 361 c 1,0,1
293 56 m 0,61,62
 258 56 258 56 230.5 71 c 128,-1,63
 203 86 203 86 183.5 110 c 128,-1,64
 164 134 164 134 153.5 165.5 c 128,-1,65
 143 197 143 197 143 230 c 0,66,67
 143 275 143 275 159 305 c 128,-1,68
 175 335 175 335 198 353.5 c 128,-1,69
 221 372 221 372 247 379.5 c 128,-1,70
 273 387 273 387 293 387 c 0,71,72
 321 387 321 387 346.5 376.5 c 128,-1,73
 372 366 372 366 391 345.5 c 128,-1,74
 410 325 410 325 421 295.5 c 128,-1,75
 432 266 432 266 432 227 c 0,76,77
 432 192 432 192 422 161 c 128,-1,78
 412 130 412 130 394 107 c 128,-1,79
 376 84 376 84 350.5 70 c 128,-1,80
 325 56 325 56 293 56 c 0,61,62
EndSplineSet
Validated: 9
EndChar

StartChar: seven
Encoding: 55 55 24
Width: 563
GlyphClass: 1
Flags: W
LayerCount: 2
Fore
SplineSet
405 631 m 1,0,1
 343 552 343 552 295 475.5 c 128,-1,2
 247 399 247 399 213 310 c 0,3,4
 201 280 201 280 189.5 246 c 128,-1,5
 178 212 178 212 169 176.5 c 128,-1,6
 160 141 160 141 154.5 106 c 128,-1,7
 149 71 149 71 149 41 c 0,8,9
 149 36 149 36 150 27 c 128,-1,10
 151 18 151 18 155.5 9.5 c 128,-1,11
 160 1 160 1 169 -5.5 c 128,-1,12
 178 -12 178 -12 194 -12 c 0,13,14
 208 -12 208 -12 216.5 -6 c 128,-1,15
 225 0 225 0 230 8 c 128,-1,16
 235 16 235 16 236.5 24.5 c 128,-1,17
 238 33 238 33 239 38 c 0,18,19
 248 102 248 102 260.5 167 c 128,-1,20
 273 232 273 232 298 301 c 128,-1,21
 323 370 323 370 363 444 c 128,-1,22
 403 518 403 518 468 599 c 0,23,24
 481 616 481 616 489 626.5 c 128,-1,25
 497 637 497 637 501.5 643.5 c 128,-1,26
 506 650 506 650 507 655 c 128,-1,27
 508 660 508 660 508 666 c 0,28,29
 508 681 508 681 502 689.5 c 128,-1,30
 496 698 496 698 485.5 702 c 128,-1,31
 475 706 475 706 460.5 706.5 c 128,-1,32
 446 707 446 707 430 707 c 2,33,-1
 92 707 l 2,34,35
 83 707 83 707 73 706.5 c 128,-1,36
 63 706 63 706 55.5 702.5 c 128,-1,37
 48 699 48 699 43 691.5 c 128,-1,38
 38 684 38 684 38 671 c 0,39,40
 38 656 38 656 44.5 648 c 128,-1,41
 51 640 51 640 59.5 636 c 128,-1,42
 68 632 68 632 77 631.5 c 128,-1,43
 86 631 86 631 92 631 c 2,44,-1
 405 631 l 1,0,1
EndSplineSet
Validated: 9
EndChar

StartChar: eight
Encoding: 56 56 25
Width: 563
GlyphClass: 1
Flags: W
LayerCount: 2
Fore
SplineSet
392 385 m 1,0,1
 401 389 401 389 418 398.5 c 128,-1,2
 435 408 435 408 451.5 424.5 c 128,-1,3
 468 441 468 441 480 467 c 128,-1,4
 492 493 492 493 492 530 c 0,5,6
 492 560 492 560 480.5 593 c 128,-1,7
 469 626 469 626 443.5 653 c 128,-1,8
 418 680 418 680 377.5 698 c 128,-1,9
 337 716 337 716 279 716 c 0,10,11
 228 716 228 716 188.5 699.5 c 128,-1,12
 149 683 149 683 122.5 657 c 128,-1,13
 96 631 96 631 82.5 597.5 c 128,-1,14
 69 564 69 564 69 530 c 0,15,16
 69 493 69 493 81.5 467.5 c 128,-1,17
 94 442 94 442 110.5 425 c 128,-1,18
 127 408 127 408 144 398.5 c 128,-1,19
 161 389 161 389 171 385 c 1,20,21
 159 380 159 380 137.5 370.5 c 128,-1,22
 116 361 116 361 95 341 c 128,-1,23
 74 321 74 321 58.5 288.5 c 128,-1,24
 43 256 43 256 43 207 c 0,25,26
 43 166 43 166 57.5 126.5 c 128,-1,27
 72 87 72 87 101 56.5 c 128,-1,28
 130 26 130 26 175 7 c 128,-1,29
 220 -12 220 -12 281 -12 c 0,30,31
 340 -12 340 -12 384.5 6 c 128,-1,32
 429 24 429 24 459 54.5 c 128,-1,33
 489 85 489 85 504.5 124.5 c 128,-1,34
 520 164 520 164 520 206 c 0,35,36
 520 255 520 255 504 288 c 128,-1,37
 488 321 488 321 467 341 c 128,-1,38
 446 361 446 361 424.5 371 c 128,-1,39
 403 381 403 381 392 385 c 1,0,1
280 348 m 0,40,41
 346 348 346 348 389.5 310.5 c 128,-1,42
 433 273 433 273 433 203 c 0,43,44
 433 165 433 165 420 137 c 128,-1,45
 407 109 407 109 385.5 90.5 c 128,-1,46
 364 72 364 72 336.5 63 c 128,-1,47
 309 54 309 54 281 54 c 0,48,49
 252 54 252 54 225 63 c 128,-1,50
 198 72 198 72 177 90.5 c 128,-1,51
 156 109 156 109 143 137 c 128,-1,52
 130 165 130 165 130 203 c 0,53,54
 130 240 130 240 142 267 c 128,-1,55
 154 294 154 294 174.5 312 c 128,-1,56
 195 330 195 330 222.5 339 c 128,-1,57
 250 348 250 348 280 348 c 0,40,41
280 652 m 0,58,59
 313 652 313 652 337 640.5 c 128,-1,60
 361 629 361 629 376.5 611 c 128,-1,61
 392 593 392 593 399.5 571 c 128,-1,62
 407 549 407 549 407 529 c 0,63,64
 407 478 407 478 371 446 c 128,-1,65
 335 414 335 414 281 414 c 0,66,67
 254 414 254 414 231 422.5 c 128,-1,68
 208 431 208 431 190.5 446 c 128,-1,69
 173 461 173 461 163.5 482 c 128,-1,70
 154 503 154 503 154 529 c 0,71,72
 154 554 154 554 163.5 576.5 c 128,-1,73
 173 599 173 599 189.5 615.5 c 128,-1,74
 206 632 206 632 229.5 642 c 128,-1,75
 253 652 253 652 280 652 c 0,58,59
EndSplineSet
Validated: 9
EndChar

StartChar: nine
Encoding: 57 57 26
Width: 563
GlyphClass: 1
Flags: W
LayerCount: 2
Fore
SplineSet
430 343 m 1,0,1
 429 326 429 326 427 303.5 c 128,-1,2
 425 281 425 281 422 256.5 c 128,-1,3
 419 232 419 232 414 208 c 128,-1,4
 409 184 409 184 401 164 c 0,5,6
 387 130 387 130 369.5 108.5 c 128,-1,7
 352 87 352 87 332.5 75 c 128,-1,8
 313 63 313 63 294 58.5 c 128,-1,9
 275 54 275 54 259 54 c 0,10,11
 230 54 230 54 210 63 c 128,-1,12
 190 72 190 72 177 85.5 c 128,-1,13
 164 99 164 99 156 114.5 c 128,-1,14
 148 130 148 130 144 142 c 0,15,16
 140 153 140 153 131.5 166 c 128,-1,17
 123 179 123 179 101 179 c 0,18,19
 82 179 82 179 72 166.5 c 128,-1,20
 62 154 62 154 62 143 c 0,21,22
 62 135 62 135 69 110 c 128,-1,23
 76 85 76 85 97 58 c 128,-1,24
 118 31 118 31 156.5 9.5 c 128,-1,25
 195 -12 195 -12 258 -12 c 0,26,27
 272 -12 272 -12 294 -9.5 c 128,-1,28
 316 -7 316 -7 341 2 c 128,-1,29
 366 11 366 11 392 27.5 c 128,-1,30
 418 44 418 44 440 72 c 0,31,32
 464 103 464 103 479.5 138.5 c 128,-1,33
 495 174 495 174 503.5 212.5 c 128,-1,34
 512 251 512 251 515 290.5 c 128,-1,35
 518 330 518 330 518 370 c 0,36,37
 518 422 518 422 513.5 459.5 c 128,-1,38
 509 497 509 497 502 524 c 128,-1,39
 495 551 495 551 486.5 569 c 128,-1,40
 478 587 478 587 471 600 c 0,41,42
 461 617 461 617 445 637.5 c 128,-1,43
 429 658 429 658 404.5 675.5 c 128,-1,44
 380 693 380 693 347 704.5 c 128,-1,45
 314 716 314 716 271 716 c 0,46,47
 215 716 215 716 171.5 695 c 128,-1,48
 128 674 128 674 98.5 640 c 128,-1,49
 69 606 69 606 53.5 562.5 c 128,-1,50
 38 519 38 519 38 474 c 256,51,52
 38 429 38 429 53 388 c 128,-1,53
 68 347 68 347 95.5 316 c 128,-1,54
 123 285 123 285 162 267 c 128,-1,55
 201 249 201 249 249 249 c 0,56,57
 290 249 290 249 321 260.5 c 128,-1,58
 352 272 352 272 374 287.5 c 128,-1,59
 396 303 396 303 409.5 318.5 c 128,-1,60
 423 334 423 334 430 343 c 1,0,1
267 648 m 0,61,62
 302 648 302 648 329.5 633 c 128,-1,63
 357 618 357 618 376.5 594 c 128,-1,64
 396 570 396 570 406.5 538.5 c 128,-1,65
 417 507 417 507 417 474 c 0,66,67
 417 429 417 429 401 399 c 128,-1,68
 385 369 385 369 362 350.5 c 128,-1,69
 339 332 339 332 313 324.5 c 128,-1,70
 287 317 287 317 267 317 c 0,71,72
 239 317 239 317 213.5 327.5 c 128,-1,73
 188 338 188 338 169 358.5 c 128,-1,74
 150 379 150 379 139 408.5 c 128,-1,75
 128 438 128 438 128 477 c 0,76,77
 128 511 128 511 138 542.5 c 128,-1,78
 148 574 148 574 166 597 c 128,-1,79
 184 620 184 620 209.5 634 c 128,-1,80
 235 648 235 648 267 648 c 0,61,62
EndSplineSet
Validated: 9
EndChar

StartChar: colon
Encoding: 58 58 27
Width: 240
GlyphClass: 1
Flags: W
LayerCount: 2
Fore
SplineSet
120 530 m 256,0,1
 97 530 97 530 81 514 c 128,-1,2
 65 498 65 498 65 475 c 256,3,4
 65 452 65 452 81 436 c 128,-1,5
 97 420 97 420 120 420 c 256,6,7
 143 420 143 420 159 436 c 128,-1,8
 175 452 175 452 175 475 c 256,9,10
 175 498 175 498 159 514 c 128,-1,11
 143 530 143 530 120 530 c 256,0,1
120 98 m 256,12,13
 97 98 97 98 81 82 c 128,-1,14
 65 66 65 66 65 43 c 256,15,16
 65 20 65 20 81 4 c 128,-1,17
 97 -12 97 -12 120 -12 c 256,18,19
 143 -12 143 -12 159 4 c 128,-1,20
 175 20 175 20 175 43 c 256,21,22
 175 66 175 66 159 82 c 128,-1,23
 143 98 143 98 120 98 c 256,12,13
EndSplineSet
Validated: 9
EndChar

StartChar: less
Encoding: 60 60 28
Width: 583
GlyphClass: 1
Flags: W
LayerCount: 2
Fore
SplineSet
55 393 m 1,0,-1
 55 311 l 1,1,-1
 529 111 l 1,2,-1
 529 198 l 1,3,-1
 154 352 l 1,4,-1
 529 508 l 1,5,-1
 529 595 l 1,6,-1
 55 393 l 1,0,-1
EndSplineSet
Validated: 9
EndChar

StartChar: equal
Encoding: 61 61 29
Width: 583
GlyphClass: 1
Flags: W
LayerCount: 2
Fore
SplineSet
529 421 m 1,0,-1
 529 503 l 1,1,-1
 55 503 l 1,2,-1
 55 421 l 1,3,-1
 529 421 l 1,0,-1
529 204 m 1,4,-1
 529 286 l 1,5,-1
 55 286 l 1,6,-1
 55 204 l 1,7,-1
 529 204 l 1,4,-1
EndSplineSet
Validated: 9
EndChar

StartChar: greater
Encoding: 62 62 30
Width: 583
GlyphClass: 1
Flags: W
LayerCount: 2
Fore
SplineSet
529 313 m 1,0,-1
 529 395 l 1,1,-1
 55 595 l 1,2,-1
 55 508 l 1,3,-1
 430 354 l 1,4,-1
 55 198 l 1,5,-1
 55 111 l 1,6,-1
 529 313 l 1,0,-1
EndSplineSet
Validated: 9
EndChar

StartChar: question
Encoding: 63 63 31
Width: 531
GlyphClass: 1
Flags: W
LayerCount: 2
Fore
SplineSet
48 543 m 0,0,1
 48 520 48 520 63 508.5 c 128,-1,2
 78 497 78 497 93 497 c 0,3,4
 117 497 117 497 125.5 512 c 128,-1,5
 134 527 134 527 139 540 c 0,6,7
 142 552 142 552 149.5 571.5 c 128,-1,8
 157 591 157 591 172 609 c 128,-1,9
 187 627 187 627 210.5 640.5 c 128,-1,10
 234 654 234 654 270 654 c 0,11,12
 298 654 298 654 321.5 644.5 c 128,-1,13
 345 635 345 635 362 618.5 c 128,-1,14
 379 602 379 602 388 580.5 c 128,-1,15
 397 559 397 559 397 536 c 0,16,17
 397 516 397 516 391.5 500 c 128,-1,18
 386 484 386 484 375 469 c 128,-1,19
 364 454 364 454 347.5 438 c 128,-1,20
 331 422 331 422 310 403 c 0,21,22
 286 382 286 382 268.5 362.5 c 128,-1,23
 251 343 251 343 239 322 c 128,-1,24
 227 301 227 301 221 277 c 128,-1,25
 215 253 215 253 215 222 c 0,26,27
 215 218 215 218 215.5 209.5 c 128,-1,28
 216 201 216 201 220 192 c 128,-1,29
 224 183 224 183 232.5 176.5 c 128,-1,30
 241 170 241 170 257 170 c 0,31,32
 270 170 270 170 278 175 c 128,-1,33
 286 180 286 180 290.5 186.5 c 128,-1,34
 295 193 295 193 296.5 200 c 128,-1,35
 298 207 298 207 298 210 c 0,36,37
 301 235 301 235 304 250.5 c 128,-1,38
 307 266 307 266 316 281 c 128,-1,39
 325 296 325 296 342 314 c 128,-1,40
 359 332 359 332 389 361 c 0,41,42
 439 409 439 409 463.5 448 c 128,-1,43
 488 487 488 487 488 537 c 0,44,45
 488 571 488 571 475.5 605 c 128,-1,46
 463 639 463 639 436.5 666.5 c 128,-1,47
 410 694 410 694 370 711 c 128,-1,48
 330 728 330 728 276 728 c 0,49,50
 210 728 210 728 166.5 704.5 c 128,-1,51
 123 681 123 681 96.5 649.5 c 128,-1,52
 70 618 70 618 59 587.5 c 128,-1,53
 48 557 48 557 48 543 c 0,0,1
266 98 m 256,54,55
 243 98 243 98 227 82 c 128,-1,56
 211 66 211 66 211 43 c 256,57,58
 211 20 211 20 227 4 c 128,-1,59
 243 -12 243 -12 266 -12 c 256,60,61
 289 -12 289 -12 305 4 c 128,-1,62
 321 20 321 20 321 43 c 256,63,64
 321 66 321 66 305 82 c 128,-1,65
 289 98 289 98 266 98 c 256,54,55
EndSplineSet
Validated: 9
EndChar

StartChar: at
Encoding: 64 64 32
Width: 1010
GlyphClass: 1
Flags: W
LayerCount: 2
Fore
SplineSet
641 439 m 1,0,1
 622 470 622 470 600 488 c 128,-1,2
 578 506 578 506 558 515 c 128,-1,3
 538 524 538 524 520.5 526 c 128,-1,4
 503 528 503 528 493 528 c 0,5,6
 442 528 442 528 396 500 c 128,-1,7
 350 472 350 472 315.5 427.5 c 128,-1,8
 281 383 281 383 260.5 327.5 c 128,-1,9
 240 272 240 272 240 217 c 0,10,11
 240 172 240 172 253.5 132 c 128,-1,12
 267 92 267 92 290.5 62 c 128,-1,13
 314 32 314 32 346.5 15 c 128,-1,14
 379 -2 379 -2 417 -2 c 0,15,16
 444 -2 444 -2 467.5 7 c 128,-1,17
 491 16 491 16 510 28.5 c 128,-1,18
 529 41 529 41 543.5 55 c 128,-1,19
 558 69 558 69 567 79 c 1,20,21
 568 67 568 67 571 52.5 c 128,-1,22
 574 38 574 38 583 26 c 128,-1,23
 592 14 592 14 610.5 5.5 c 128,-1,24
 629 -3 629 -3 661 -3 c 0,25,26
 696 -3 696 -3 726.5 7 c 128,-1,27
 757 17 757 17 782 33 c 128,-1,28
 807 49 807 49 837 77 c 128,-1,29
 867 105 867 105 893.5 144.5 c 128,-1,30
 920 184 920 184 937.5 234.5 c 128,-1,31
 955 285 955 285 955 347 c 0,32,33
 955 417 955 417 929 485 c 128,-1,34
 903 553 903 553 850.5 607 c 128,-1,35
 798 661 798 661 720 694.5 c 128,-1,36
 642 728 642 728 537 728 c 0,37,38
 445 728 445 728 373.5 704.5 c 128,-1,39
 302 681 302 681 248.5 641.5 c 128,-1,40
 195 602 195 602 158 550.5 c 128,-1,41
 121 499 121 499 98 443.5 c 128,-1,42
 75 388 75 388 64.5 332 c 128,-1,43
 54 276 54 276 54 228 c 0,44,45
 54 141 54 141 81.5 62 c 128,-1,46
 109 -17 109 -17 169 -78 c 128,-1,47
 229 -139 229 -139 322.5 -175 c 128,-1,48
 416 -211 416 -211 548 -211 c 0,49,50
 645 -211 645 -211 733 -184.5 c 128,-1,51
 821 -158 821 -158 902 -88 c 0,52,53
 930 -64 930 -64 948 -40.5 c 128,-1,54
 966 -17 966 -17 979 9 c 1,55,-1
 891 9 l 1,56,57
 878 -10 878 -10 852.5 -35.5 c 128,-1,58
 827 -61 827 -61 786 -84 c 128,-1,59
 745 -107 745 -107 686 -123 c 128,-1,60
 627 -139 627 -139 547 -139 c 0,61,62
 471 -139 471 -139 395.5 -121 c 128,-1,63
 320 -103 320 -103 260 -59.5 c 128,-1,64
 200 -16 200 -16 163 56 c 128,-1,65
 126 128 126 128 126 236 c 0,66,67
 126 320 126 320 154 396.5 c 128,-1,68
 182 473 182 473 235 530.5 c 128,-1,69
 288 588 288 588 363 622 c 128,-1,70
 438 656 438 656 533 656 c 0,71,72
 606 656 606 656 669.5 634 c 128,-1,73
 733 612 733 612 780.5 571.5 c 128,-1,74
 828 531 828 531 855.5 474.5 c 128,-1,75
 883 418 883 418 883 349 c 0,76,77
 883 286 883 286 861 236 c 128,-1,78
 839 186 839 186 808.5 151 c 128,-1,79
 778 116 778 116 746 97.5 c 128,-1,80
 714 79 714 79 694 79 c 0,81,82
 684 79 684 79 672 86.5 c 128,-1,83
 660 94 660 94 660 111 c 0,84,85
 660 114 660 114 661.5 123 c 128,-1,86
 663 132 663 132 665 143 c 128,-1,87
 667 154 667 154 670 165.5 c 128,-1,88
 673 177 673 177 675 187 c 2,89,-1
 745 515 l 1,90,-1
 658 515 l 1,91,-1
 641 439 l 1,0,1
330 211 m 0,92,93
 330 243 330 243 340.5 285 c 128,-1,94
 351 327 351 327 372.5 365 c 128,-1,95
 394 403 394 403 426 429.5 c 128,-1,96
 458 456 458 456 500 456 c 0,97,98
 522 456 522 456 542.5 447.5 c 128,-1,99
 563 439 563 439 579 421.5 c 128,-1,100
 595 404 595 404 604 377.5 c 128,-1,101
 613 351 613 351 613 316 c 0,102,103
 613 266 613 266 597.5 221.5 c 128,-1,104
 582 177 582 177 556.5 143.5 c 128,-1,105
 531 110 531 110 499.5 90 c 128,-1,106
 468 70 468 70 435 70 c 0,107,108
 417 70 417 70 398.5 78.5 c 128,-1,109
 380 87 380 87 364.5 104 c 128,-1,110
 349 121 349 121 339.5 148 c 128,-1,111
 330 175 330 175 330 211 c 0,92,93
EndSplineSet
Validated: 9
EndChar

StartChar: A
Encoding: 65 65 33
Width: 688
GlyphClass: 1
Flags: W
LayerCount: 2
Fore
SplineSet
501 207 m 1,0,-1
 565 49 l 2,1,2
 577 19 577 19 586.5 3.5 c 128,-1,3
 596 -12 596 -12 621 -12 c 0,4,5
 643 -12 643 -12 656 3 c 128,-1,6
 669 18 669 18 669 32 c 0,7,8
 669 43 669 43 665.5 54 c 128,-1,9
 662 65 662 65 654 84 c 2,10,-1
 419 644 l 2,11,12
 412 661 412 661 403.5 680.5 c 128,-1,13
 395 700 395 700 387 708 c 0,14,15
 379 717 379 717 366 722.5 c 128,-1,16
 353 728 353 728 339 728 c 0,17,18
 322 728 322 728 310.5 722.5 c 128,-1,19
 299 717 299 717 290.5 706.5 c 128,-1,20
 282 696 282 696 275 680 c 128,-1,21
 268 664 268 664 260 643 c 2,22,-1
 33 80 l 2,23,24
 26 63 26 63 22.5 52 c 128,-1,25
 19 41 19 41 19 30 c 0,26,27
 19 15 19 15 32 1.5 c 128,-1,28
 45 -12 45 -12 65 -12 c 0,29,30
 90 -12 90 -12 99.5 3 c 128,-1,31
 109 18 109 18 120 47 c 2,32,-1
 182 207 l 1,33,-1
 501 207 l 1,0,-1
209 284 m 1,34,-1
 338 619 l 1,35,-1
 472 284 l 1,36,-1
 209 284 l 1,34,-1
EndSplineSet
Validated: 9
EndChar

StartChar: B
Encoding: 66 66 34
Width: 688
GlyphClass: 1
Flags: W
LayerCount: 2
Fore
SplineSet
387 0 m 2,0,1
 441 0 441 0 477.5 9.5 c 128,-1,2
 514 19 514 19 540 33 c 0,3,4
 585 58 585 58 609.5 104 c 128,-1,5
 634 150 634 150 634 202 c 0,6,7
 634 250 634 250 618 282 c 128,-1,8
 602 314 602 314 580 333.5 c 128,-1,9
 558 353 558 353 534.5 363 c 128,-1,10
 511 373 511 373 496 378 c 1,11,12
 535 396 535 396 556 420.5 c 128,-1,13
 577 445 577 445 587 468 c 128,-1,14
 597 491 597 491 598.5 509.5 c 128,-1,15
 600 528 600 528 600 535 c 0,16,17
 600 583 600 583 578 623 c 128,-1,18
 556 663 556 663 515 687 c 0,19,20
 507 692 507 692 496.5 697 c 128,-1,21
 486 702 486 702 469.5 706.5 c 128,-1,22
 453 711 453 711 429 713.5 c 128,-1,23
 405 716 405 716 370 716 c 2,24,-1
 164 716 l 2,25,26
 137 716 137 716 121 713.5 c 128,-1,27
 105 711 105 711 97 703 c 128,-1,28
 89 695 89 695 86.5 679 c 128,-1,29
 84 663 84 663 84 636 c 2,30,-1
 84 80 l 2,31,32
 84 53 84 53 86.5 37.5 c 128,-1,33
 89 22 89 22 97 13.5 c 128,-1,34
 105 5 105 5 121 2.5 c 128,-1,35
 137 0 137 0 164 0 c 2,36,-1
 387 0 l 2,0,1
380 332 m 2,37,38
 406 332 406 332 439.5 325 c 128,-1,39
 473 318 473 318 501 293 c 0,40,41
 536 261 536 261 536 206 c 0,42,43
 536 174 536 174 524.5 150 c 128,-1,44
 513 126 513 126 497 112 c 0,45,46
 491 107 491 107 483 101 c 128,-1,47
 475 95 475 95 461.5 89.5 c 128,-1,48
 448 84 448 84 428 80.5 c 128,-1,49
 408 77 408 77 380 77 c 2,50,-1
 180 77 l 1,51,-1
 180 332 l 1,52,-1
 380 332 l 2,37,38
180 639 m 1,53,-1
 335 639 l 2,54,55
 354 639 354 639 383.5 637.5 c 128,-1,56
 413 636 413 636 440 625.5 c 128,-1,57
 467 615 467 615 486.5 592 c 128,-1,58
 506 569 506 569 506 525 c 0,59,60
 506 500 506 500 498 480.5 c 128,-1,61
 490 461 490 461 471 442 c 0,62,63
 451 422 451 422 421.5 415.5 c 128,-1,64
 392 409 392 409 363 409 c 2,65,-1
 180 409 l 1,66,-1
 180 639 l 1,53,-1
EndSplineSet
Validated: 9
EndChar

StartChar: C
Encoding: 67 67 35
Width: 729
GlyphClass: 1
Flags: W
LayerCount: 2
Fore
SplineSet
677 223 m 0,0,1
 677 243 677 243 663.5 253 c 128,-1,2
 650 263 650 263 636 263 c 0,3,4
 615 263 615 263 606.5 249.5 c 128,-1,5
 598 236 598 236 593 222 c 0,6,7
 567 147 567 147 515 106 c 128,-1,8
 463 65 463 65 385 65 c 0,9,10
 350 65 350 65 309 77 c 128,-1,11
 268 89 268 89 233.5 121.5 c 128,-1,12
 199 154 199 154 176 210 c 128,-1,13
 153 266 153 266 153 354 c 256,14,15
 153 442 153 442 176.5 499.5 c 128,-1,16
 200 557 200 557 235.5 590.5 c 128,-1,17
 271 624 271 624 313 637.5 c 128,-1,18
 355 651 355 651 393 651 c 0,19,20
 430 651 430 651 454.5 642 c 128,-1,21
 479 633 479 633 495 623 c 0,22,23
 518 609 518 609 538 587.5 c 128,-1,24
 558 566 558 566 572 540 c 0,25,26
 577 530 577 530 583 519.5 c 128,-1,27
 589 509 589 509 596.5 500.5 c 128,-1,28
 604 492 604 492 612.5 486.5 c 128,-1,29
 621 481 621 481 632 481 c 0,30,31
 652 481 652 481 661.5 495 c 128,-1,32
 671 509 671 509 671 523 c 0,33,34
 671 532 671 532 664.5 550.5 c 128,-1,35
 658 569 658 569 644.5 591.5 c 128,-1,36
 631 614 631 614 609 638.5 c 128,-1,37
 587 663 587 663 555.5 682.5 c 128,-1,38
 524 702 524 702 482.5 715 c 128,-1,39
 441 728 441 728 389 728 c 0,40,41
 316 728 316 728 255 701.5 c 128,-1,42
 194 675 194 675 149.5 627 c 128,-1,43
 105 579 105 579 80 510.5 c 128,-1,44
 55 442 55 442 55 358 c 0,45,46
 55 277 55 277 81 201 c 128,-1,47
 107 125 107 125 157 73 c 0,48,49
 181 48 181 48 210 31.5 c 128,-1,50
 239 15 239 15 270 5.5 c 128,-1,51
 301 -4 301 -4 332.5 -8 c 128,-1,52
 364 -12 364 -12 394 -12 c 0,53,54
 471 -12 471 -12 525 16 c 128,-1,55
 579 44 579 44 612.5 82.5 c 128,-1,56
 646 121 646 121 661.5 160.5 c 128,-1,57
 677 200 677 200 677 223 c 0,0,1
EndSplineSet
Validated: 9
EndChar

StartChar: D
Encoding: 68 68 36
Width: 729
GlyphClass: 1
Flags: W
LayerCount: 2
Fore
SplineSet
341 0 m 2,0,1
 362 0 362 0 387.5 1 c 128,-1,2
 413 2 413 2 440.5 7.5 c 128,-1,3
 468 13 468 13 495.5 23.5 c 128,-1,4
 523 34 523 34 549 52 c 0,5,6
 589 80 589 80 613.5 118.5 c 128,-1,7
 638 157 638 157 651.5 198.5 c 128,-1,8
 665 240 665 240 670 282 c 128,-1,9
 675 324 675 324 675 359 c 0,10,11
 675 430 675 430 658 498 c 128,-1,12
 641 566 641 566 596 620 c 0,13,14
 567 655 567 655 534 674.5 c 128,-1,15
 501 694 501 694 467.5 703 c 128,-1,16
 434 712 434 712 401.5 714 c 128,-1,17
 369 716 369 716 340 716 c 2,18,-1
 166 716 l 2,19,20
 139 716 139 716 123 713.5 c 128,-1,21
 107 711 107 711 98.5 703 c 128,-1,22
 90 695 90 695 87.5 679 c 128,-1,23
 85 663 85 663 85 636 c 2,24,-1
 85 92 l 2,25,26
 85 62 85 62 86.5 44 c 128,-1,27
 88 26 88 26 96 16 c 128,-1,28
 104 6 104 6 120.5 3 c 128,-1,29
 137 0 137 0 166 0 c 2,30,-1
 341 0 l 2,0,1
181 639 m 1,31,-1
 323 639 l 2,32,33
 363 639 363 639 392.5 635.5 c 128,-1,34
 422 632 422 632 445 623.5 c 128,-1,35
 468 615 468 615 485.5 601 c 128,-1,36
 503 587 503 587 519 566 c 0,37,38
 542 536 542 536 559.5 481 c 128,-1,39
 577 426 577 426 577 354 c 0,40,41
 577 347 577 347 576 323.5 c 128,-1,42
 575 300 575 300 569.5 269.5 c 128,-1,43
 564 239 564 239 552.5 206.5 c 128,-1,44
 541 174 541 174 519 148 c 0,45,46
 501 126 501 126 481.5 112.5 c 128,-1,47
 462 99 462 99 439.5 91 c 128,-1,48
 417 83 417 83 389.5 80 c 128,-1,49
 362 77 362 77 328 77 c 2,50,-1
 181 77 l 1,51,-1
 181 639 l 1,31,-1
EndSplineSet
Validated: 9
EndChar

StartChar: E
Encoding: 69 69 37
Width: 635
GlyphClass: 1
Flags: W
LayerCount: 2
Fore
SplineSet
183 639 m 1,0,-1
 516 639 l 2,1,2
 527 639 527 639 539 639.5 c 128,-1,3
 551 640 551 640 560.5 643.5 c 128,-1,4
 570 647 570 647 576 655 c 128,-1,5
 582 663 582 663 582 678 c 256,6,7
 582 693 582 693 576 700.5 c 128,-1,8
 570 708 570 708 560 711.5 c 128,-1,9
 550 715 550 715 538.5 715.5 c 128,-1,10
 527 716 527 716 516 716 c 2,11,-1
 167 716 l 2,12,13
 135 716 135 716 122.5 714 c 128,-1,14
 110 712 110 712 100 701 c 0,15,16
 89 690 89 690 88 676 c 128,-1,17
 87 662 87 662 87 636 c 2,18,-1
 87 80 l 2,19,20
 87 50 87 50 88.5 37 c 128,-1,21
 90 24 90 24 101 14 c 0,22,23
 107 9 107 9 112 6 c 128,-1,24
 117 3 117 3 123.5 1.5 c 128,-1,25
 130 0 130 0 140 0 c 0,26,27
 151 0 151 0 167 0 c 2,28,-1
 530 0 l 2,29,30
 541 0 541 0 553 0.5 c 128,-1,31
 565 1 565 1 574.5 4.5 c 128,-1,32
 584 8 584 8 590 16 c 128,-1,33
 596 24 596 24 596 39 c 256,34,35
 596 54 596 54 590 61.5 c 128,-1,36
 584 69 584 69 574 72.5 c 128,-1,37
 564 76 564 76 552.5 76.5 c 128,-1,38
 541 77 541 77 530 77 c 2,39,-1
 183 77 l 1,40,-1
 183 332 l 1,41,-1
 489 332 l 2,42,43
 500 332 500 332 511.5 332.5 c 128,-1,44
 523 333 523 333 532 337 c 128,-1,45
 541 341 541 341 547 348.5 c 128,-1,46
 553 356 553 356 553 371 c 0,47,48
 553 385 553 385 547 393 c 128,-1,49
 541 401 541 401 532 404.5 c 128,-1,50
 523 408 523 408 511.5 408.5 c 128,-1,51
 500 409 500 409 489 409 c 2,52,-1
 183 409 l 1,53,-1
 183 639 l 1,0,-1
EndSplineSet
Validated: 9
EndChar

StartChar: F
Encoding: 70 70 38
Width: 573
GlyphClass: 1
Flags: W
LayerCount: 2
Fore
SplineSet
180 639 m 1,0,-1
 477 639 l 2,1,2
 488 639 488 639 499.5 639.5 c 128,-1,3
 511 640 511 640 520.5 643.5 c 128,-1,4
 530 647 530 647 536 655 c 128,-1,5
 542 663 542 663 542 678 c 256,6,7
 542 693 542 693 536 700.5 c 128,-1,8
 530 708 530 708 520.5 711.5 c 128,-1,9
 511 715 511 715 499.5 715.5 c 128,-1,10
 488 716 488 716 477 716 c 2,11,-1
 164 716 l 2,12,13
 137 716 137 716 121 713.5 c 128,-1,14
 105 711 105 711 97 703 c 128,-1,15
 89 695 89 695 86.5 679 c 128,-1,16
 84 663 84 663 84 636 c 2,17,-1
 84 67 l 2,18,19
 84 41 84 41 85.5 26.5 c 128,-1,20
 87 12 87 12 96 2 c 0,21,22
 112 -12 112 -12 132 -12 c 0,23,24
 143 -12 143 -12 152 -7.5 c 128,-1,25
 161 -3 161 -3 167 3 c 0,26,27
 176 12 176 12 178 26.5 c 128,-1,28
 180 41 180 41 180 67 c 2,29,-1
 180 328 l 1,30,-1
 427 328 l 2,31,32
 438 328 438 328 449.5 328.5 c 128,-1,33
 461 329 461 329 470 333 c 128,-1,34
 479 337 479 337 485 344.5 c 128,-1,35
 491 352 491 352 491 367 c 0,36,37
 491 381 491 381 485 389 c 128,-1,38
 479 397 479 397 469.5 400.5 c 128,-1,39
 460 404 460 404 448.5 404.5 c 128,-1,40
 437 405 437 405 427 405 c 2,41,-1
 180 405 l 1,42,-1
 180 639 l 1,0,-1
EndSplineSet
Validated: 9
EndChar

StartChar: G
Encoding: 71 71 39
Width: 781
GlyphClass: 1
Flags: W
LayerCount: 2
Fore
SplineSet
628 132 m 1,0,1
 576 97 576 97 524 81 c 128,-1,2
 472 65 472 65 418 65 c 0,3,4
 370 65 370 65 319 80 c 128,-1,5
 268 95 268 95 230 133 c 0,6,7
 206 157 206 157 190.5 186.5 c 128,-1,8
 175 216 175 216 166 246 c 128,-1,9
 157 276 157 276 154 305.5 c 128,-1,10
 151 335 151 335 151 361 c 0,11,12
 151 423 151 423 167.5 476 c 128,-1,13
 184 529 184 529 216.5 568 c 128,-1,14
 249 607 249 607 296.5 629 c 128,-1,15
 344 651 344 651 407 651 c 0,16,17
 455 651 455 651 488.5 639 c 128,-1,18
 522 627 522 627 545 609.5 c 128,-1,19
 568 592 568 592 582.5 572 c 128,-1,20
 597 552 597 552 606 535 c 0,21,22
 620 509 620 509 630.5 500.5 c 128,-1,23
 641 492 641 492 653 492 c 0,24,25
 679 492 679 492 689.5 505 c 128,-1,26
 700 518 700 518 700 534 c 0,27,28
 700 545 700 545 688.5 576.5 c 128,-1,29
 677 608 677 608 645.5 642 c 128,-1,30
 614 676 614 676 558.5 702 c 128,-1,31
 503 728 503 728 415 728 c 0,32,33
 320 728 320 728 251.5 697 c 128,-1,34
 183 666 183 666 139 614.5 c 128,-1,35
 95 563 95 563 74 495.5 c 128,-1,36
 53 428 53 428 53 355 c 0,37,38
 53 281 53 281 74.5 214 c 128,-1,39
 96 147 96 147 140.5 97 c 128,-1,40
 185 47 185 47 254 17.5 c 128,-1,41
 323 -12 323 -12 418 -12 c 0,42,43
 478 -12 478 -12 528 1 c 128,-1,44
 578 14 578 14 615 30 c 128,-1,45
 652 46 652 46 673 60 c 128,-1,46
 694 74 694 74 695 75 c 0,47,48
 713 88 713 88 716 102 c 128,-1,49
 719 116 719 116 719 138 c 2,50,-1
 719 295 l 2,51,52
 719 317 719 317 715.5 330.5 c 128,-1,53
 712 344 712 344 703 351.5 c 128,-1,54
 694 359 694 359 679 361.5 c 128,-1,55
 664 364 664 364 641 364 c 2,56,-1
 461 364 l 2,57,58
 453 364 453 364 443 363.5 c 128,-1,59
 433 363 433 363 424.5 359 c 128,-1,60
 416 355 416 355 410 347.5 c 128,-1,61
 404 340 404 340 404 325 c 0,62,63
 404 311 404 311 410 303 c 128,-1,64
 416 295 416 295 425.5 291.5 c 128,-1,65
 435 288 435 288 447 287.5 c 128,-1,66
 459 287 459 287 471 287 c 2,67,-1
 628 287 l 1,68,-1
 628 132 l 1,0,1
EndSplineSet
Validated: 9
EndChar

StartChar: H
Encoding: 72 72 40
Width: 729
GlyphClass: 1
Flags: W
LayerCount: 2
Fore
SplineSet
177 414 m 1,0,-1
 177 649 l 2,1,2
 177 675 177 675 175 689.5 c 128,-1,3
 173 704 173 704 163 713 c 0,4,5
 149 728 149 728 128 728 c 0,6,7
 116 728 116 728 107 723 c 128,-1,8
 98 718 98 718 93 713 c 0,9,10
 84 704 84 704 82.5 689.5 c 128,-1,11
 81 675 81 675 81 649 c 2,12,-1
 81 67 l 2,13,14
 81 41 81 41 82.5 26.5 c 128,-1,15
 84 12 84 12 93 2 c 0,16,17
 109 -12 109 -12 128 -12 c 0,18,19
 141 -12 141 -12 149.5 -7 c 128,-1,20
 158 -2 158 -2 163 3 c 0,21,22
 173 12 173 12 175 26.5 c 128,-1,23
 177 41 177 41 177 67 c 2,24,-1
 177 337 l 1,25,-1
 552 337 l 1,26,-1
 552 66 l 2,27,28
 552 41 552 41 554.5 26.5 c 128,-1,29
 557 12 557 12 566 2 c 0,30,31
 582 -12 582 -12 601 -12 c 0,32,33
 613 -12 613 -12 622 -7 c 128,-1,34
 631 -2 631 -2 636 3 c 0,35,36
 645 12 645 12 646.5 26 c 128,-1,37
 648 40 648 40 648 66 c 2,38,-1
 648 650 l 2,39,40
 648 675 648 675 646.5 689.5 c 128,-1,41
 645 704 645 704 636 713 c 0,42,43
 621 728 621 728 601 728 c 0,44,45
 589 728 589 728 580 723 c 128,-1,46
 571 718 571 718 566 713 c 0,47,48
 557 704 557 704 554.5 690 c 128,-1,49
 552 676 552 676 552 650 c 2,50,-1
 552 414 l 1,51,-1
 177 414 l 1,0,-1
EndSplineSet
Validated: 9
EndChar

StartChar: I
Encoding: 73 73 41
Width: 292
GlyphClass: 1
Flags: W
LayerCount: 2
Fore
SplineSet
194 649 m 2,0,1
 194 674 194 674 192.5 689 c 128,-1,2
 191 704 191 704 181 713 c 0,3,4
 174 721 174 721 164.5 724.5 c 128,-1,5
 155 728 155 728 146 728 c 0,6,7
 133 728 133 728 124.5 723 c 128,-1,8
 116 718 116 718 111 713 c 0,9,10
 101 704 101 704 99.5 689.5 c 128,-1,11
 98 675 98 675 98 649 c 2,12,-1
 98 67 l 2,13,14
 98 41 98 41 99.5 26.5 c 128,-1,15
 101 12 101 12 111 2 c 0,16,17
 118 -5 118 -5 127.5 -8.5 c 128,-1,18
 137 -12 137 -12 146 -12 c 0,19,20
 158 -12 158 -12 167 -7 c 128,-1,21
 176 -2 176 -2 181 3 c 0,22,23
 191 12 191 12 192.5 26.5 c 128,-1,24
 194 41 194 41 194 67 c 2,25,-1
 194 649 l 2,0,1
EndSplineSet
Validated: 9
EndChar

StartChar: J
Encoding: 74 74 42
Width: 531
GlyphClass: 1
Flags: W
LayerCount: 2
Fore
SplineSet
348 218 m 2,0,1
 348 198 348 198 346.5 177 c 128,-1,2
 345 156 345 156 337 136 c 0,3,4
 332 123 332 123 323.5 110 c 128,-1,5
 315 97 315 97 302 87 c 128,-1,6
 289 77 289 77 271.5 71 c 128,-1,7
 254 65 254 65 232 65 c 0,8,9
 197 65 197 65 175.5 78.5 c 128,-1,10
 154 92 154 92 142 109.5 c 128,-1,11
 130 127 130 127 125 144.5 c 128,-1,12
 120 162 120 162 118 170 c 0,13,14
 114 188 114 188 111 201.5 c 128,-1,15
 108 215 108 215 103 223 c 128,-1,16
 98 231 98 231 90.5 235 c 128,-1,17
 83 239 83 239 71 239 c 0,18,19
 67 239 67 239 59.5 238 c 128,-1,20
 52 237 52 237 44.5 232 c 128,-1,21
 37 227 37 227 31.5 217.5 c 128,-1,22
 26 208 26 208 26 191 c 0,23,24
 26 175 26 175 29.5 155 c 128,-1,25
 33 135 33 135 39.5 114.5 c 128,-1,26
 46 94 46 94 56.5 74.5 c 128,-1,27
 67 55 67 55 82 40 c 0,28,29
 107 14 107 14 142.5 1 c 128,-1,30
 178 -12 178 -12 233 -12 c 0,31,32
 312 -12 312 -12 355 15 c 128,-1,33
 398 42 398 42 417.5 80 c 128,-1,34
 437 118 437 118 440.5 158 c 128,-1,35
 444 198 444 198 444 225 c 2,36,-1
 444 649 l 2,37,38
 444 673 444 673 442.5 689 c 128,-1,39
 441 705 441 705 430 714 c 0,40,41
 416 728 416 728 396 728 c 0,42,43
 384 728 384 728 375.5 723.5 c 128,-1,44
 367 719 367 719 362 714 c 0,45,46
 352 705 352 705 350 689 c 128,-1,47
 348 673 348 673 348 649 c 2,48,-1
 348 218 l 2,0,1
EndSplineSet
Validated: 9
EndChar

StartChar: K
Encoding: 75 75 43
Width: 698
GlyphClass: 1
Flags: W
LayerCount: 2
Fore
SplineSet
183 359 m 1,0,-1
 183 649 l 2,1,2
 183 673 183 673 181.5 689 c 128,-1,3
 180 705 180 705 169 714 c 0,4,5
 155 728 155 728 135 728 c 0,6,7
 123 728 123 728 114.5 723.5 c 128,-1,8
 106 719 106 719 101 714 c 0,9,10
 90 705 90 705 88.5 689 c 128,-1,11
 87 673 87 673 87 649 c 2,12,-1
 87 67 l 2,13,14
 87 43 87 43 88.5 27.5 c 128,-1,15
 90 12 90 12 99 3 c 0,16,17
 114 -12 114 -12 136 -12 c 0,18,19
 143 -12 143 -12 151.5 -9.5 c 128,-1,20
 160 -7 160 -7 167 -0.5 c 128,-1,21
 174 6 174 6 178.5 17 c 128,-1,22
 183 28 183 28 183 46 c 2,23,-1
 183 250 l 1,24,-1
 308 366 l 1,25,-1
 546 39 l 2,26,27
 557 24 557 24 564.5 14.5 c 128,-1,28
 572 5 572 5 579 -1 c 128,-1,29
 586 -7 586 -7 593 -9.5 c 128,-1,30
 600 -12 600 -12 610 -12 c 0,31,32
 630 -12 630 -12 644.5 0 c 128,-1,33
 659 12 659 12 659 32 c 0,34,35
 659 49 659 49 647 66.5 c 128,-1,36
 635 84 635 84 629 92 c 2,37,-1
 373 427 l 1,38,-1
 603 639 l 2,39,40
 623 659 623 659 627 669 c 128,-1,41
 631 679 631 679 631 687 c 0,42,43
 631 701 631 701 619 714.5 c 128,-1,44
 607 728 607 728 587 728 c 0,45,46
 573 728 573 728 564.5 722.5 c 128,-1,47
 556 717 556 717 537 698 c 2,48,-1
 183 359 l 1,0,-1
EndSplineSet
Validated: 9
EndChar

StartChar: L
Encoding: 76 76 44
Width: 573
GlyphClass: 1
Flags: W
LayerCount: 2
Fore
SplineSet
180 77 m 1,0,-1
 180 649 l 2,1,2
 180 674 180 674 178.5 689 c 128,-1,3
 177 704 177 704 167 713 c 0,4,5
 153 728 153 728 131 728 c 0,6,7
 119 728 119 728 110 723 c 128,-1,8
 101 718 101 718 96 713 c 0,9,10
 87 704 87 704 85.5 689.5 c 128,-1,11
 84 675 84 675 84 649 c 2,12,-1
 84 80 l 2,13,14
 84 53 84 53 86.5 37 c 128,-1,15
 89 21 89 21 97 13 c 128,-1,16
 105 5 105 5 121 2.5 c 128,-1,17
 137 0 137 0 164 0 c 2,18,-1
 483 0 l 2,19,20
 495 0 495 0 506.5 0.5 c 128,-1,21
 518 1 518 1 528 4 c 128,-1,22
 538 7 538 7 544 15 c 128,-1,23
 550 23 550 23 550 38 c 256,24,25
 550 53 550 53 543.5 61 c 128,-1,26
 537 69 537 69 527.5 72.5 c 128,-1,27
 518 76 518 76 506 76.5 c 128,-1,28
 494 77 494 77 483 77 c 2,29,-1
 180 77 l 1,0,-1
EndSplineSet
Validated: 9
EndChar

StartChar: M
Encoding: 77 77 45
Width: 792
GlyphClass: 1
Flags: W
LayerCount: 2
Fore
SplineSet
54 58 m 2,0,1
 54 46 54 46 55 33.5 c 128,-1,2
 56 21 56 21 60.5 11 c 128,-1,3
 65 1 65 1 74.5 -5.5 c 128,-1,4
 84 -12 84 -12 100 -12 c 0,5,6
 117 -12 117 -12 126.5 -4.5 c 128,-1,7
 136 3 136 3 140.5 14 c 128,-1,8
 145 25 145 25 145.5 37.5 c 128,-1,9
 146 50 146 50 146 59 c 2,10,-1
 146 609 l 1,11,-1
 330 64 l 2,12,13
 339 39 339 39 345.5 24 c 128,-1,14
 352 9 352 9 359 1 c 128,-1,15
 366 -7 366 -7 375 -9.5 c 128,-1,16
 384 -12 384 -12 398 -12 c 0,17,18
 411 -12 411 -12 419.5 -8.5 c 128,-1,19
 428 -5 428 -5 434.5 4 c 128,-1,20
 441 13 441 13 446.5 27.5 c 128,-1,21
 452 42 452 42 460 64 c 2,22,-1
 646 599 l 1,23,-1
 646 45 l 2,24,25
 646 41 646 41 646.5 31.5 c 128,-1,26
 647 22 647 22 651.5 12.5 c 128,-1,27
 656 3 656 3 665.5 -4.5 c 128,-1,28
 675 -12 675 -12 692 -12 c 256,29,30
 709 -12 709 -12 718 -4.5 c 128,-1,31
 727 3 727 3 731.5 13.5 c 128,-1,32
 736 24 736 24 737 34 c 128,-1,33
 738 44 738 44 738 49 c 2,34,-1
 738 636 l 2,35,36
 738 659 738 659 736.5 674.5 c 128,-1,37
 735 690 735 690 728.5 699 c 128,-1,38
 722 708 722 708 708 712 c 128,-1,39
 694 716 694 716 670 716 c 0,40,41
 647 716 647 716 634.5 714.5 c 128,-1,42
 622 713 622 713 614 707 c 128,-1,43
 606 701 606 701 600.5 688 c 128,-1,44
 595 675 595 675 587 651 c 2,45,-1
 439 218 l 2,46,47
 430 192 430 192 425 176.5 c 128,-1,48
 420 161 420 161 416 149.5 c 128,-1,49
 412 138 412 138 408.5 128 c 128,-1,50
 405 118 405 118 401 103 c 1,51,52
 393 129 393 129 384 156 c 128,-1,53
 375 183 375 183 366 209 c 2,54,-1
 217 654 l 2,55,56
 209 677 209 677 202.5 689.5 c 128,-1,57
 196 702 196 702 186.5 708 c 128,-1,58
 177 714 177 714 163 715 c 128,-1,59
 149 716 149 716 126 716 c 0,60,61
 117 716 117 716 104.5 714.5 c 128,-1,62
 92 713 92 713 80.5 705.5 c 128,-1,63
 69 698 69 698 61.5 682 c 128,-1,64
 54 666 54 666 54 636 c 2,65,-1
 54 58 l 2,0,1
EndSplineSet
Validated: 9
EndChar

StartChar: N
Encoding: 78 78 46
Width: 729
GlyphClass: 1
Flags: W
LayerCount: 2
Fore
SplineSet
559 142 m 1,0,-1
 204 672 l 2,1,2
 184 703 184 703 172 715.5 c 128,-1,3
 160 728 160 728 138 728 c 0,4,5
 121 728 121 728 112 722.5 c 128,-1,6
 103 717 103 717 100 714 c 0,7,8
 93 708 93 708 89 701.5 c 128,-1,9
 85 695 85 695 83.5 686.5 c 128,-1,10
 82 678 82 678 81.5 665.5 c 128,-1,11
 81 653 81 653 81 635 c 2,12,-1
 81 65 l 2,13,14
 81 40 81 40 82.5 25.5 c 128,-1,15
 84 11 84 11 94 2 c 0,16,17
 108 -12 108 -12 128 -12 c 0,18,19
 142 -12 142 -12 153 -4.5 c 128,-1,20
 164 3 164 3 168 11 c 0,21,22
 173 21 173 21 173.5 31 c 128,-1,23
 174 41 174 41 174 65 c 2,24,-1
 170 567 l 1,25,-1
 519 46 l 2,26,27
 530 30 530 30 538 19 c 128,-1,28
 546 8 546 8 553.5 1 c 128,-1,29
 561 -6 561 -6 569 -9 c 128,-1,30
 577 -12 577 -12 589 -12 c 0,31,32
 611 -12 611 -12 628 2 c 0,33,34
 643 15 643 15 645.5 31.5 c 128,-1,35
 648 48 648 48 648 85 c 2,36,-1
 648 651 l 2,37,38
 648 676 648 676 646.5 690.5 c 128,-1,39
 645 705 645 705 635 714 c 0,40,41
 621 728 621 728 601 728 c 0,42,43
 587 728 587 728 576.5 720.5 c 128,-1,44
 566 713 566 713 562 705 c 0,45,46
 557 695 557 695 556 684.5 c 128,-1,47
 555 674 555 674 556 651 c 2,48,-1
 559 142 l 1,0,-1
EndSplineSet
Validated: 41
EndChar

StartChar: O
Encoding: 79 79 47
Width: 781
GlyphClass: 1
Flags: W
LayerCount: 2
Fore
SplineSet
730 358 m 0,0,1
 730 420 730 420 713 485.5 c 128,-1,2
 696 551 696 551 657 605 c 128,-1,3
 618 659 618 659 553 693.5 c 128,-1,4
 488 728 488 728 392 728 c 0,5,6
 291 728 291 728 225.5 692 c 128,-1,7
 160 656 160 656 121 601 c 128,-1,8
 82 546 82 546 66.5 481 c 128,-1,9
 51 416 51 416 51 358 c 0,10,11
 51 322 51 322 57 280.5 c 128,-1,12
 63 239 63 239 78 198 c 128,-1,13
 93 157 93 157 118 119 c 128,-1,14
 143 81 143 81 181 52 c 128,-1,15
 219 23 219 23 271.5 5.5 c 128,-1,16
 324 -12 324 -12 394 -12 c 0,17,18
 485 -12 485 -12 549 20.5 c 128,-1,19
 613 53 613 53 653.5 105.5 c 128,-1,20
 694 158 694 158 712 224.5 c 128,-1,21
 730 291 730 291 730 358 c 0,0,1
632 358 m 256,22,23
 632 298 632 298 620 253 c 128,-1,24
 608 208 608 208 588 175.5 c 128,-1,25
 568 143 568 143 542.5 121.5 c 128,-1,26
 517 100 517 100 490 87.5 c 128,-1,27
 463 75 463 75 437 70 c 128,-1,28
 411 65 411 65 390 65 c 0,29,30
 341 65 341 65 297 84.5 c 128,-1,31
 253 104 253 104 220 140 c 128,-1,32
 187 176 187 176 168 228 c 128,-1,33
 149 280 149 280 149 346 c 0,34,35
 149 371 149 371 152 402.5 c 128,-1,36
 155 434 155 434 163.5 466 c 128,-1,37
 172 498 172 498 186 527.5 c 128,-1,38
 200 557 200 557 223 579 c 0,39,40
 254 610 254 610 296 630.5 c 128,-1,41
 338 651 338 651 390 651 c 0,42,43
 411 651 411 651 437 646 c 128,-1,44
 463 641 463 641 490 628.5 c 128,-1,45
 517 616 517 616 542.5 594.5 c 128,-1,46
 568 573 568 573 588 540.5 c 128,-1,47
 608 508 608 508 620 463 c 128,-1,48
 632 418 632 418 632 358 c 256,22,23
EndSplineSet
Validated: 9
EndChar

StartChar: P
Encoding: 80 80 48
Width: 635
GlyphClass: 1
Flags: W
LayerCount: 2
Fore
SplineSet
183 294 m 1,0,-1
 346 294 l 2,1,2
 378 294 378 294 402 297.5 c 128,-1,3
 426 301 426 301 443.5 306.5 c 128,-1,4
 461 312 461 312 473 317.5 c 128,-1,5
 485 323 485 323 493 327 c 0,6,7
 518 340 518 340 536.5 360.5 c 128,-1,8
 555 381 555 381 567 405.5 c 128,-1,9
 579 430 579 430 584.5 456.5 c 128,-1,10
 590 483 590 483 590 508 c 0,11,12
 590 561 590 561 570 604 c 128,-1,13
 550 647 550 647 514 674 c 128,-1,14
 478 701 478 701 434.5 708.5 c 128,-1,15
 391 716 391 716 346 716 c 2,16,-1
 175 716 l 2,17,18
 147 716 147 716 129.5 714.5 c 128,-1,19
 112 713 112 713 102.5 705.5 c 128,-1,20
 93 698 93 698 90 681.5 c 128,-1,21
 87 665 87 665 87 636 c 2,22,-1
 87 67 l 2,23,24
 87 44 87 44 88.5 28 c 128,-1,25
 90 12 90 12 99 3 c 0,26,27
 114 -12 114 -12 135 -12 c 0,28,29
 149 -12 149 -12 160.5 -4 c 128,-1,30
 172 4 172 4 176 12 c 0,31,32
 181 23 181 23 182 36.5 c 128,-1,33
 183 50 183 50 183 67 c 2,34,-1
 183 294 l 1,0,-1
321 639 m 2,35,36
 336 639 336 639 354.5 638.5 c 128,-1,37
 373 638 373 638 391.5 634 c 128,-1,38
 410 630 410 630 427 622.5 c 128,-1,39
 444 615 444 615 457 602 c 0,40,41
 475 583 475 583 483.5 557.5 c 128,-1,42
 492 532 492 532 492 506 c 0,43,44
 492 458 492 458 473 431 c 128,-1,45
 454 404 454 404 427 390.5 c 128,-1,46
 400 377 400 377 370.5 374 c 128,-1,47
 341 371 341 371 321 371 c 2,48,-1
 183 371 l 1,49,-1
 183 639 l 1,50,-1
 321 639 l 2,35,36
EndSplineSet
Validated: 9
EndChar

StartChar: Q
Encoding: 81 81 49
Width: 781
GlyphClass: 1
Flags: W
LayerCount: 2
Fore
SplineSet
630 78 m 1,0,1
 660 110 660 110 679 145 c 128,-1,2
 698 180 698 180 709.5 215.5 c 128,-1,3
 721 251 721 251 725.5 286.5 c 128,-1,4
 730 322 730 322 730 356 c 0,5,6
 730 391 730 391 724 432 c 128,-1,7
 718 473 718 473 703.5 514.5 c 128,-1,8
 689 556 689 556 664.5 594.5 c 128,-1,9
 640 633 640 633 602 662.5 c 128,-1,10
 564 692 564 692 512 710 c 128,-1,11
 460 728 460 728 390 728 c 0,12,13
 290 728 290 728 224.5 692 c 128,-1,14
 159 656 159 656 120.5 601 c 128,-1,15
 82 546 82 546 66.5 481 c 128,-1,16
 51 416 51 416 51 358 c 0,17,18
 51 293 51 293 68.5 227 c 128,-1,19
 86 161 86 161 126 108 c 128,-1,20
 166 55 166 55 230.5 21.5 c 128,-1,21
 295 -12 295 -12 389 -12 c 0,22,23
 426 -12 426 -12 455.5 -7 c 128,-1,24
 485 -2 485 -2 507.5 4.5 c 128,-1,25
 530 11 530 11 545.5 18.5 c 128,-1,26
 561 26 561 26 570 31 c 1,27,28
 590 17 590 17 612 2.5 c 128,-1,29
 634 -12 634 -12 655 -24 c 128,-1,30
 676 -36 676 -36 694 -44 c 128,-1,31
 712 -52 712 -52 724 -52 c 256,32,33
 736 -52 736 -52 746.5 -42 c 128,-1,34
 757 -32 757 -32 757 -18 c 0,35,36
 757 -6 757 -6 748 3 c 128,-1,37
 739 12 739 12 713 26 c 0,38,39
 700 33 700 33 689.5 39 c 128,-1,40
 679 45 679 45 669.5 51 c 128,-1,41
 660 57 660 57 650.5 63.5 c 128,-1,42
 641 70 641 70 630 78 c 1,0,1
553 130 m 1,43,44
 537 143 537 143 517.5 156 c 128,-1,45
 498 169 498 169 478 180 c 128,-1,46
 458 191 458 191 440.5 198 c 128,-1,47
 423 205 423 205 412 205 c 0,48,49
 399 205 399 205 391 194 c 128,-1,50
 383 183 383 183 383 172 c 0,51,52
 383 160 383 160 394 151.5 c 128,-1,53
 405 143 405 143 412 140 c 0,54,55
 434 129 434 129 447.5 122 c 128,-1,56
 461 115 461 115 469.5 110 c 128,-1,57
 478 105 478 105 483.5 101 c 128,-1,58
 489 97 489 97 497 91 c 1,59,60
 457 71 457 71 427 68 c 128,-1,61
 397 65 397 65 389 65 c 0,62,63
 356 65 356 65 314.5 78 c 128,-1,64
 273 91 273 91 236 124 c 128,-1,65
 199 157 199 157 174 213.5 c 128,-1,66
 149 270 149 270 149 356 c 0,67,68
 149 420 149 420 162.5 466.5 c 128,-1,69
 176 513 176 513 197 546 c 128,-1,70
 218 579 218 579 244.5 599.5 c 128,-1,71
 271 620 271 620 298 631.5 c 128,-1,72
 325 643 325 643 349.5 647 c 128,-1,73
 374 651 374 651 390 651 c 0,74,75
 425 651 425 651 467 637.5 c 128,-1,76
 509 624 509 624 546 591 c 128,-1,77
 583 558 583 558 607.5 501.5 c 128,-1,78
 632 445 632 445 632 359 c 0,79,80
 632 296 632 296 614.5 235.5 c 128,-1,81
 597 175 597 175 553 130 c 1,43,44
EndSplineSet
Validated: 9
EndChar

StartChar: R
Encoding: 82 82 50
Width: 688
GlyphClass: 1
Flags: W
LayerCount: 2
Fore
SplineSet
182 321 m 1,0,-1
 266 321 l 2,1,2
 292 321 292 321 313.5 317.5 c 128,-1,3
 335 314 335 314 357.5 298.5 c 128,-1,4
 380 283 380 283 406.5 250.5 c 128,-1,5
 433 218 433 218 470 160 c 2,6,-1
 538 52 l 2,7,8
 550 33 550 33 558 20.5 c 128,-1,9
 566 8 566 8 573.5 0.5 c 128,-1,10
 581 -7 581 -7 589 -10 c 128,-1,11
 597 -13 597 -13 608 -13 c 0,12,13
 625 -13 625 -13 638.5 -2 c 128,-1,14
 652 9 652 9 652 29 c 0,15,16
 652 35 652 35 651 39.5 c 128,-1,17
 650 44 650 44 646.5 51.5 c 128,-1,18
 643 59 643 59 636.5 70.5 c 128,-1,19
 630 82 630 82 619 101 c 2,20,-1
 554 210 l 2,21,22
 550 216 550 216 536.5 234.5 c 128,-1,23
 523 253 523 253 512 267 c 0,24,25
 492 293 492 293 471 307.5 c 128,-1,26
 450 322 450 322 436 330 c 1,27,28
 458 334 458 334 492 343 c 128,-1,29
 526 352 526 352 562 379 c 0,30,31
 584 395 584 395 605.5 431 c 128,-1,32
 627 467 627 467 627 521 c 256,33,34
 627 575 627 575 602.5 618 c 128,-1,35
 578 661 578 661 535 687 c 0,36,37
 517 698 517 698 494.5 704 c 128,-1,38
 472 710 472 710 451.5 712.5 c 128,-1,39
 431 715 431 715 415 715.5 c 128,-1,40
 399 716 399 716 395 716 c 2,41,-1
 166 716 l 2,42,43
 139 716 139 716 123 713.5 c 128,-1,44
 107 711 107 711 99 703 c 128,-1,45
 91 695 91 695 88.5 679 c 128,-1,46
 86 663 86 663 86 636 c 2,47,-1
 86 68 l 2,48,49
 86 55 86 55 86.5 40.5 c 128,-1,50
 87 26 87 26 89 19 c 0,51,52
 94 5 94 5 106.5 -3.5 c 128,-1,53
 119 -12 119 -12 133 -12 c 0,54,55
 146 -12 146 -12 159.5 -4.5 c 128,-1,56
 173 3 173 3 178 19 c 0,57,58
 180 27 180 27 181 36.5 c 128,-1,59
 182 46 182 46 182 68 c 2,60,-1
 182 321 l 1,0,-1
352 642 m 2,61,62
 365 642 365 642 383 641.5 c 128,-1,63
 401 641 401 641 419 638.5 c 128,-1,64
 437 636 437 636 454 630.5 c 128,-1,65
 471 625 471 625 483 615 c 0,66,67
 529 580 529 580 529 522 c 0,68,69
 529 475 529 475 507 450 c 128,-1,70
 485 425 485 425 455.5 413.5 c 128,-1,71
 426 402 426 402 396 400 c 128,-1,72
 366 398 366 398 349 398 c 2,73,-1
 182 398 l 1,74,-1
 182 642 l 1,75,-1
 352 642 l 2,61,62
EndSplineSet
Validated: 9
EndChar

StartChar: S
Encoding: 83 83 51
Width: 635
GlyphClass: 1
Flags: W
LayerCount: 2
Fore
SplineSet
586 207 m 0,0,1
 586 223 586 223 582 242.5 c 128,-1,2
 578 262 578 262 570 281 c 128,-1,3
 562 300 562 300 549.5 317.5 c 128,-1,4
 537 335 537 335 521 347 c 0,5,6
 507 357 507 357 491 366 c 128,-1,7
 475 375 475 375 452.5 383.5 c 128,-1,8
 430 392 430 392 399 400.5 c 128,-1,9
 368 409 368 409 324 420 c 0,10,11
 298 426 298 426 269.5 434 c 128,-1,12
 241 442 241 442 218 455.5 c 128,-1,13
 195 469 195 469 180 489.5 c 128,-1,14
 165 510 165 510 165 542 c 0,15,16
 165 564 165 564 175 584.5 c 128,-1,17
 185 605 185 605 204.5 620.5 c 128,-1,18
 224 636 224 636 251.5 645.5 c 128,-1,19
 279 655 279 655 314 655 c 0,20,21
 345 655 345 655 372.5 647.5 c 128,-1,22
 400 640 400 640 419 626 c 0,23,24
 442 609 442 609 451 592 c 128,-1,25
 460 575 460 575 468 553 c 0,26,27
 474 536 474 536 483 520.5 c 128,-1,28
 492 505 492 505 515 505 c 0,29,30
 535 505 535 505 546.5 520.5 c 128,-1,31
 558 536 558 536 558 552 c 0,32,33
 558 569 558 569 551.5 589 c 128,-1,34
 545 609 545 609 535 626 c 0,35,36
 517 657 517 657 491 677 c 128,-1,37
 465 697 465 697 435.5 708 c 128,-1,38
 406 719 406 719 375.5 723.5 c 128,-1,39
 345 728 345 728 317 728 c 0,40,41
 269 728 269 728 224.5 716 c 128,-1,42
 180 704 180 704 146.5 679.5 c 128,-1,43
 113 655 113 655 93 618 c 128,-1,44
 73 581 73 581 73 532 c 0,45,46
 73 503 73 503 80 480.5 c 128,-1,47
 87 458 87 458 97 440.5 c 128,-1,48
 107 423 107 423 119 411 c 128,-1,49
 131 399 131 399 140 392 c 0,50,51
 156 379 156 379 172.5 370.5 c 128,-1,52
 189 362 189 362 212 354.5 c 128,-1,53
 235 347 235 347 267.5 339 c 128,-1,54
 300 331 300 331 350 320 c 0,55,56
 369 316 369 316 393.5 309 c 128,-1,57
 418 302 418 302 440.5 288 c 128,-1,58
 463 274 463 274 478.5 251.5 c 128,-1,59
 494 229 494 229 494 194 c 0,60,61
 494 161 494 161 478.5 136 c 128,-1,62
 463 111 463 111 438 94 c 128,-1,63
 413 77 413 77 381 68.5 c 128,-1,64
 349 60 349 60 316 60 c 0,65,66
 268 60 268 60 237 73.5 c 128,-1,67
 206 87 206 87 187 106 c 128,-1,68
 168 125 168 125 159 145 c 128,-1,69
 150 165 150 165 146 177 c 0,70,71
 133 212 133 212 124.5 226 c 128,-1,72
 116 240 116 240 96 240 c 0,73,74
 78 240 78 240 66 227.5 c 128,-1,75
 54 215 54 215 54 199 c 0,76,77
 54 167 54 167 71 127.5 c 128,-1,78
 88 88 88 88 118 57 c 0,79,80
 138 36 138 36 163 22.5 c 128,-1,81
 188 9 188 9 215 1 c 128,-1,82
 242 -7 242 -7 269 -10 c 128,-1,83
 296 -13 296 -13 322 -13 c 0,84,85
 387 -13 387 -13 436.5 4.5 c 128,-1,86
 486 22 486 22 519 52 c 128,-1,87
 552 82 552 82 569 122 c 128,-1,88
 586 162 586 162 586 207 c 0,0,1
EndSplineSet
Validated: 9
EndChar

StartChar: T
Encoding: 84 84 52
Width: 583
GlyphClass: 1
Flags: W
LayerCount: 2
Fore
SplineSet
339 639 m 1,0,-1
 502 639 l 2,1,2
 524 639 524 639 537 640.5 c 128,-1,3
 550 642 550 642 558 650 c 0,4,5
 563 655 563 655 567 662.5 c 128,-1,6
 571 670 571 670 571 677 c 0,7,8
 571 685 571 685 567 692 c 128,-1,9
 563 699 563 699 558 704 c 0,10,11
 550 713 550 713 537 714.5 c 128,-1,12
 524 716 524 716 502 716 c 2,13,-1
 81 716 l 2,14,15
 59 716 59 716 45.5 714.5 c 128,-1,16
 32 713 32 713 24 704 c 0,17,18
 19 699 19 699 15.5 691.5 c 128,-1,19
 12 684 12 684 12 677 c 0,20,21
 12 669 12 669 16 662 c 128,-1,22
 20 655 20 655 25 650 c 0,23,24
 33 642 33 642 46 640.5 c 128,-1,25
 59 639 59 639 81 639 c 2,26,-1
 243 639 l 1,27,-1
 243 67 l 2,28,29
 243 42 243 42 244.5 26.5 c 128,-1,30
 246 11 246 11 257 2 c 0,31,32
 271 -12 271 -12 291 -12 c 0,33,34
 303 -12 303 -12 312 -7.5 c 128,-1,35
 321 -3 321 -3 326 2 c 0,36,37
 336 11 336 11 337.5 27 c 128,-1,38
 339 43 339 43 339 67 c 2,39,-1
 339 639 l 1,0,-1
EndSplineSet
Validated: 9
EndChar

StartChar: U
Encoding: 85 85 53
Width: 729
GlyphClass: 1
Flags: W
LayerCount: 2
Fore
SplineSet
177 648 m 2,0,1
 177 674 177 674 175.5 688.5 c 128,-1,2
 174 703 174 703 164 713 c 0,3,4
 150 728 150 728 129 728 c 0,5,6
 117 728 117 728 108 723 c 128,-1,7
 99 718 99 718 94 713 c 0,8,9
 84 703 84 703 82.5 688.5 c 128,-1,10
 81 674 81 674 81 648 c 2,11,-1
 81 275 l 2,12,13
 81 196 81 196 100 141 c 128,-1,14
 119 86 119 86 155.5 52 c 128,-1,15
 192 18 192 18 246.5 3 c 128,-1,16
 301 -12 301 -12 373 -12 c 0,17,18
 456 -12 456 -12 509.5 12.5 c 128,-1,19
 563 37 563 37 593.5 77.5 c 128,-1,20
 624 118 624 118 636 169.5 c 128,-1,21
 648 221 648 221 648 276 c 2,22,-1
 648 648 l 2,23,24
 648 674 648 674 646.5 688.5 c 128,-1,25
 645 703 645 703 635 713 c 0,26,27
 621 728 621 728 600 728 c 0,28,29
 588 728 588 728 579 723 c 128,-1,30
 570 718 570 718 565 713 c 0,31,32
 555 703 555 703 553.5 688.5 c 128,-1,33
 552 674 552 674 552 648 c 2,34,-1
 552 267 l 2,35,36
 552 237 552 237 546.5 201.5 c 128,-1,37
 541 166 541 166 522 135.5 c 128,-1,38
 503 105 503 105 466 85 c 128,-1,39
 429 65 429 65 366 65 c 0,40,41
 295 65 295 65 256.5 88 c 128,-1,42
 218 111 218 111 200.5 143.5 c 128,-1,43
 183 176 183 176 180 210.5 c 128,-1,44
 177 245 177 245 177 268 c 2,45,-1
 177 648 l 2,0,1
EndSplineSet
Validated: 9
EndChar

StartChar: V
Encoding: 86 86 54
Width: 635
GlyphClass: 1
Flags: W
LayerCount: 2
Fore
SplineSet
317 102 m 1,0,-1
 122 666 l 2,1,2
 111 695 111 695 101.5 711.5 c 128,-1,3
 92 728 92 728 66 728 c 0,4,5
 45 728 45 728 32 713.5 c 128,-1,6
 19 699 19 699 19 684 c 0,7,8
 19 674 19 674 22 664 c 128,-1,9
 25 654 25 654 33 634 c 2,10,-1
 238 72 l 2,11,12
 246 51 246 51 252.5 35 c 128,-1,13
 259 19 259 19 267.5 8.5 c 128,-1,14
 276 -2 276 -2 287.5 -7 c 128,-1,15
 299 -12 299 -12 316 -12 c 256,16,17
 333 -12 333 -12 344.5 -6.5 c 128,-1,18
 356 -1 356 -1 364 9.5 c 128,-1,19
 372 20 372 20 378.5 36 c 128,-1,20
 385 52 385 52 393 72 c 2,21,-1
 603 639 l 2,22,23
 611 659 611 659 613.5 667.5 c 128,-1,24
 616 676 616 676 616 687 c 0,25,26
 616 702 616 702 603 715 c 128,-1,27
 590 728 590 728 571 728 c 0,28,29
 547 728 547 728 537.5 713 c 128,-1,30
 528 698 528 698 518 669 c 2,31,-1
 317 102 l 1,0,-1
EndSplineSet
Validated: 9
EndChar

StartChar: W
Encoding: 87 87 55
Width: 906
GlyphClass: 1
Flags: W
LayerCount: 2
Fore
SplineSet
663 137 m 1,0,-1
 526 643 l 2,1,2
 521 663 521 663 516 677.5 c 128,-1,3
 511 692 511 692 503.5 701 c 128,-1,4
 496 710 496 710 483 714.5 c 128,-1,5
 470 719 470 719 449 719 c 0,6,7
 431 719 431 719 419.5 713.5 c 128,-1,8
 408 708 408 708 400.5 698.5 c 128,-1,9
 393 689 393 689 388.5 675 c 128,-1,10
 384 661 384 661 380 643 c 2,11,-1
 243 137 l 1,12,-1
 115 662 l 2,13,14
 109 691 109 691 100 709.5 c 128,-1,15
 91 728 91 728 63 728 c 0,16,17
 42 728 42 728 30 714 c 128,-1,18
 18 700 18 700 18 686 c 0,19,20
 18 675 18 675 21.5 660 c 128,-1,21
 25 645 25 645 26 641 c 2,22,-1
 175 69 l 2,23,24
 180 50 180 50 184.5 35 c 128,-1,25
 189 20 189 20 196 9.5 c 128,-1,26
 203 -1 203 -1 213 -6.5 c 128,-1,27
 223 -12 223 -12 240 -12 c 256,28,29
 257 -12 257 -12 267.5 -6.5 c 128,-1,30
 278 -1 278 -1 285 9.5 c 128,-1,31
 292 20 292 20 297 34.5 c 128,-1,32
 302 49 302 49 307 67 c 2,33,-1
 453 605 l 1,34,-1
 599 67 l 2,35,36
 604 49 604 49 609 34 c 128,-1,37
 614 19 614 19 621 9 c 128,-1,38
 628 -1 628 -1 638.5 -6.5 c 128,-1,39
 649 -12 649 -12 666 -12 c 0,40,41
 682 -12 682 -12 692.5 -6 c 128,-1,42
 703 0 703 0 710 10.5 c 128,-1,43
 717 21 717 21 721.5 36 c 128,-1,44
 726 51 726 51 731 69 c 2,45,-1
 880 641 l 2,46,47
 881 646 881 646 884.5 660.5 c 128,-1,48
 888 675 888 675 888 686 c 0,49,50
 888 700 888 700 876.5 714 c 128,-1,51
 865 728 865 728 842 728 c 0,52,53
 815 728 815 728 806 709 c 128,-1,54
 797 690 797 690 791 662 c 2,55,-1
 663 137 l 1,0,-1
EndSplineSet
Validated: 9
EndChar

StartChar: X
Encoding: 88 88 56
Width: 604
GlyphClass: 1
Flags: W
LayerCount: 2
Fore
SplineSet
252 374 m 1,0,-1
 47 85 l 2,1,2
 31 62 31 62 26 51 c 128,-1,3
 21 40 21 40 21 30 c 0,4,5
 21 11 21 11 32.5 -0.5 c 128,-1,6
 44 -12 44 -12 63 -12 c 256,7,8
 82 -12 82 -12 91.5 -1.5 c 128,-1,9
 101 9 101 9 119 35 c 2,10,-1
 305 302 l 1,11,-1
 472 46 l 2,12,13
 483 29 483 29 491 18 c 128,-1,14
 499 7 499 7 505.5 0 c 128,-1,15
 512 -7 512 -7 518.5 -9.5 c 128,-1,16
 525 -12 525 -12 534 -12 c 0,17,18
 556 -12 556 -12 568.5 1 c 128,-1,19
 581 14 581 14 581 31 c 0,20,21
 581 44 581 44 572.5 59.5 c 128,-1,22
 564 75 564 75 556 88 c 2,23,-1
 361 380 l 1,24,-1
 542 638 l 2,25,26
 560 664 560 664 563.5 674 c 128,-1,27
 567 684 567 684 567 691 c 0,28,29
 567 713 567 713 552.5 720.5 c 128,-1,30
 538 728 538 728 527 728 c 0,31,32
 510 728 510 728 500.5 718 c 128,-1,33
 491 708 491 708 472 681 c 2,34,-1
 305 444 l 1,35,-1
 155 675 l 2,36,37
 136 704 136 704 126 716 c 128,-1,38
 116 728 116 728 97 728 c 0,39,40
 76 728 76 728 64 715.5 c 128,-1,41
 52 703 52 703 52 687 c 0,42,43
 52 680 52 680 55.5 671 c 128,-1,44
 59 662 59 662 63 654 c 128,-1,45
 67 646 67 646 71 639.5 c 128,-1,46
 75 633 75 633 77 631 c 2,47,-1
 252 374 l 1,0,-1
EndSplineSet
Validated: 9
EndChar

StartChar: Y
Encoding: 89 89 57
Width: 615
GlyphClass: 1
Flags: W
LayerCount: 2
Fore
SplineSet
256 307 m 1,0,-1
 256 67 l 2,1,2
 256 43 256 43 257.5 27 c 128,-1,3
 259 11 259 11 269 2 c 0,4,5
 285 -12 285 -12 304 -12 c 0,6,7
 324 -12 324 -12 338 2 c 0,8,9
 349 11 349 11 350.5 27 c 128,-1,10
 352 43 352 43 352 67 c 2,11,-1
 352 307 l 1,12,-1
 566 632 l 2,13,14
 577 648 577 648 584 660.5 c 128,-1,15
 591 673 591 673 591 686 c 0,16,17
 591 704 591 704 578 716 c 128,-1,18
 565 728 565 728 547 728 c 0,19,20
 538 728 538 728 532 726 c 128,-1,21
 526 724 526 724 520 718.5 c 128,-1,22
 514 713 514 713 507.5 703 c 128,-1,23
 501 693 501 693 491 678 c 2,24,-1
 307 392 l 1,25,-1
 128 675 l 2,26,27
 118 691 118 691 111.5 701 c 128,-1,28
 105 711 105 711 99 717 c 128,-1,29
 93 723 93 723 86.5 725.5 c 128,-1,30
 80 728 80 728 71 728 c 0,31,32
 48 728 48 728 36 714 c 128,-1,33
 24 700 24 700 24 684 c 0,34,35
 24 678 24 678 27.5 667.5 c 128,-1,36
 31 657 31 657 50 627 c 2,37,-1
 256 307 l 1,0,-1
EndSplineSet
Validated: 9
EndChar

StartChar: Z
Encoding: 90 90 58
Width: 625
GlyphClass: 1
Flags: W
LayerCount: 2
Fore
SplineSet
466 639 m 1,0,-1
 47 113 l 2,1,2
 27 88 27 88 19.5 76.5 c 128,-1,3
 12 65 12 65 12 51 c 0,4,5
 12 39 12 39 18 28 c 128,-1,6
 24 17 24 17 33 10 c 0,7,8
 43 2 43 2 56 1 c 128,-1,9
 69 0 69 0 100 0 c 2,10,-1
 543 0 l 2,11,12
 553 0 553 0 564.5 0.5 c 128,-1,13
 576 1 576 1 585.5 4.5 c 128,-1,14
 595 8 595 8 601.5 15.5 c 128,-1,15
 608 23 608 23 608 38 c 256,16,17
 608 53 608 53 601.5 61 c 128,-1,18
 595 69 595 69 584.5 72.5 c 128,-1,19
 574 76 574 76 561 76.5 c 128,-1,20
 548 77 548 77 536 77 c 2,21,-1
 134 77 l 1,22,-1
 559 610 l 2,23,24
 573 628 573 628 579.5 639 c 128,-1,25
 586 650 586 650 586 665 c 0,26,27
 586 684 586 684 578.5 694.5 c 128,-1,28
 571 705 571 705 560 709.5 c 128,-1,29
 549 714 549 714 536.5 715 c 128,-1,30
 524 716 524 716 515 716 c 2,31,-1
 114 716 l 2,32,33
 103 716 103 716 91.5 715.5 c 128,-1,34
 80 715 80 715 71 711 c 128,-1,35
 62 707 62 707 56 699.5 c 128,-1,36
 50 692 50 692 50 677 c 0,37,38
 50 663 50 663 56 655 c 128,-1,39
 62 647 62 647 71 643.5 c 128,-1,40
 80 640 80 640 91.5 639.5 c 128,-1,41
 103 639 103 639 114 639 c 2,42,-1
 466 639 l 1,0,-1
EndSplineSet
Validated: 9
EndChar

StartChar: bracketleft
Encoding: 91 91 59
Width: 344
GlyphClass: 1
Flags: W
LayerCount: 2
Fore
SplineSet
161 648 m 1,0,-1
 272 648 l 2,1,2
 282 648 282 648 292 648 c 256,3,4
 302 648 302 648 310.5 651 c 128,-1,5
 319 654 319 654 324.5 661 c 128,-1,6
 330 668 330 668 330 681 c 256,7,8
 330 694 330 694 324.5 701 c 128,-1,9
 319 708 319 708 310.5 711.5 c 128,-1,10
 302 715 302 715 291.5 715.5 c 128,-1,11
 281 716 281 716 272 716 c 2,12,-1
 153 716 l 2,13,14
 127 716 127 716 114.5 714.5 c 128,-1,15
 102 713 102 713 91 702 c 0,16,17
 86 696 86 696 83 691 c 128,-1,18
 80 686 80 686 78.5 679.5 c 128,-1,19
 77 673 77 673 77 662 c 0,20,21
 77 652 77 652 77 636 c 2,22,-1
 77 -120 l 2,23,24
 77 -150 77 -150 78.5 -163 c 128,-1,25
 80 -176 80 -176 91 -186 c 0,26,27
 103 -197 103 -197 114 -198.5 c 128,-1,28
 125 -200 125 -200 153 -200 c 2,29,-1
 272 -200 l 2,30,31
 282 -200 282 -200 292 -199.5 c 128,-1,32
 302 -199 302 -199 310.5 -195.5 c 128,-1,33
 319 -192 319 -192 324.5 -185 c 128,-1,34
 330 -178 330 -178 330 -165 c 256,35,36
 330 -152 330 -152 324.5 -145.5 c 128,-1,37
 319 -139 319 -139 310.5 -136 c 128,-1,38
 302 -133 302 -133 292 -132.5 c 128,-1,39
 282 -132 282 -132 272 -132 c 2,40,-1
 161 -132 l 1,41,-1
 161 648 l 1,0,-1
EndSplineSet
Validated: 9
EndChar

StartChar: backslash
Encoding: 92 92 60
Width: 281
GlyphClass: 1
Flags: W
LayerCount: 2
Fore
SplineSet
198 28 m 2,0,1
 204 5 204 5 210.5 -4 c 128,-1,2
 217 -13 217 -13 240 -13 c 0,3,4
 252 -13 252 -13 261 -4.5 c 128,-1,5
 270 4 270 4 270 15 c 0,6,7
 270 20 270 20 269 25 c 128,-1,8
 268 30 268 30 264 44 c 2,9,-1
 83 688 l 2,10,11
 77 711 77 711 70.5 719.5 c 128,-1,12
 64 728 64 728 41 728 c 0,13,14
 29 728 29 728 20 720 c 128,-1,15
 11 712 11 712 11 700 c 0,16,17
 11 695 11 695 12 690.5 c 128,-1,18
 13 686 13 686 17 672 c 2,19,-1
 198 28 l 2,0,1
EndSplineSet
Validated: 9
EndChar

StartChar: bracketright
Encoding: 93 93 61
Width: 344
GlyphClass: 1
Flags: W
LayerCount: 2
Fore
SplineSet
183 -132 m 1,0,-1
 72 -132 l 2,1,2
 62 -132 62 -132 52 -132 c 256,3,4
 42 -132 42 -132 33.5 -135 c 128,-1,5
 25 -138 25 -138 19.5 -145 c 128,-1,6
 14 -152 14 -152 14 -165 c 256,7,8
 14 -178 14 -178 19.5 -185 c 128,-1,9
 25 -192 25 -192 33.5 -195.5 c 128,-1,10
 42 -199 42 -199 52.5 -199.5 c 128,-1,11
 63 -200 63 -200 72 -200 c 2,12,-1
 191 -200 l 2,13,14
 217 -200 217 -200 229.5 -198.5 c 128,-1,15
 242 -197 242 -197 253 -186 c 0,16,17
 263 -175 263 -175 265 -163.5 c 128,-1,18
 267 -152 267 -152 267 -120 c 2,19,-1
 267 636 l 2,20,21
 267 666 267 666 265.5 679 c 128,-1,22
 264 692 264 692 253 702 c 0,23,24
 241 713 241 713 230 714.5 c 128,-1,25
 219 716 219 716 191 716 c 2,26,-1
 72 716 l 2,27,28
 62 716 62 716 52 715.5 c 128,-1,29
 42 715 42 715 33.5 711.5 c 128,-1,30
 25 708 25 708 19.5 701 c 128,-1,31
 14 694 14 694 14 681 c 256,32,33
 14 668 14 668 19.5 661.5 c 128,-1,34
 25 655 25 655 33.5 652 c 128,-1,35
 42 649 42 649 52 648.5 c 128,-1,36
 62 648 62 648 72 648 c 2,37,-1
 183 648 l 1,38,-1
 183 -132 l 1,0,-1
EndSplineSet
Validated: 9
EndChar

StartChar: asciicircum
Encoding: 94 94 62
Width: 469
GlyphClass: 1
Flags: W
LayerCount: 2
Fore
SplineSet
116 337 m 1,0,-1
 234 629 l 1,1,-1
 354 337 l 1,2,-1
 443 337 l 1,3,-1
 270 728 l 1,4,-1
 199 728 l 1,5,-1
 26 337 l 1,6,-1
 116 337 l 1,0,-1
EndSplineSet
Validated: 9
EndChar

StartChar: underscore
Encoding: 95 95 63
Width: 500
GlyphClass: 1
Flags: W
LayerCount: 2
Fore
SplineSet
-6 -199 m 1,0,-1
 506 -199 l 1,1,-1
 506 -135 l 1,2,-1
 -6 -135 l 1,3,-1
 -6 -199 l 1,0,-1
EndSplineSet
Validated: 9
EndChar

StartChar: grave
Encoding: 96 96 64
Width: 333
GlyphClass: 1
Flags: W
LayerCount: 2
Fore
SplineSet
214 623 m 2,0,-1
 189 672 l 2,1,2
 180 689 180 689 174 698.5 c 128,-1,3
 168 708 168 708 161 712.5 c 128,-1,4
 154 717 154 717 144 717.5 c 128,-1,5
 134 718 134 718 117 718 c 2,6,-1
 93 718 l 2,7,8
 76 718 76 718 69.5 716.5 c 128,-1,9
 63 715 63 715 63 710 c 256,10,11
 63 705 63 705 66.5 700 c 128,-1,12
 70 695 70 695 87 677 c 0,13,14
 112 650 112 650 130 631 c 128,-1,15
 148 612 148 612 161 600.5 c 128,-1,16
 174 589 174 589 183.5 584 c 128,-1,17
 193 579 193 579 202 579 c 0,18,19
 213 579 213 579 218.5 585.5 c 128,-1,20
 224 592 224 592 224 597 c 256,21,22
 224 602 224 602 222 607 c 128,-1,23
 220 612 220 612 214 623 c 2,0,-1
EndSplineSet
Validated: 9
EndChar

StartChar: a
Encoding: 97 97 65
Width: 563
GlyphClass: 1
Flags: W
LayerCount: 2
Fore
SplineSet
415 73 m 1,0,1
 419 59 419 59 423.5 44 c 128,-1,2
 428 29 428 29 435 16.5 c 128,-1,3
 442 4 442 4 451 -4 c 128,-1,4
 460 -12 460 -12 473 -12 c 0,5,6
 490 -12 490 -12 502.5 -1.5 c 128,-1,7
 515 9 515 9 515 22 c 0,8,9
 515 34 515 34 510.5 48.5 c 128,-1,10
 506 63 506 63 505 67 c 0,11,12
 500 79 500 79 495.5 98 c 128,-1,13
 491 117 491 117 491 153 c 0,14,15
 491 162 491 162 491.5 184.5 c 128,-1,16
 492 207 492 207 492.5 233 c 128,-1,17
 493 259 493 259 493.5 282.5 c 128,-1,18
 494 306 494 306 494 316 c 0,19,20
 494 361 494 361 489 400 c 128,-1,21
 484 439 484 439 463 468 c 128,-1,22
 442 497 442 497 399.5 513.5 c 128,-1,23
 357 530 357 530 283 530 c 0,24,25
 212 530 212 530 168.5 512 c 128,-1,26
 125 494 125 494 101 470.5 c 128,-1,27
 77 447 77 447 69 423.5 c 128,-1,28
 61 400 61 400 61 389 c 0,29,30
 61 373 61 373 72.5 362.5 c 128,-1,31
 84 352 84 352 100 352 c 0,32,33
 120 352 120 352 128 364.5 c 128,-1,34
 136 377 136 377 143 394 c 0,35,36
 151 414 151 414 166.5 428 c 128,-1,37
 182 442 182 442 201.5 450.5 c 128,-1,38
 221 459 221 459 243.5 462.5 c 128,-1,39
 266 466 266 466 289 466 c 0,40,41
 332 466 332 466 355.5 455 c 128,-1,42
 379 444 379 444 390 425 c 128,-1,43
 401 406 401 406 403.5 382 c 128,-1,44
 406 358 406 358 407 332 c 1,45,46
 390 326 390 326 379.5 323 c 128,-1,47
 369 320 369 320 358 317 c 0,48,49
 350 315 350 315 329.5 311 c 128,-1,50
 309 307 309 307 286 303 c 128,-1,51
 263 299 263 299 242 295 c 128,-1,52
 221 291 221 291 212 289 c 0,53,54
 189 284 189 284 159.5 276.5 c 128,-1,55
 130 269 130 269 104 252.5 c 128,-1,56
 78 236 78 236 60 208 c 128,-1,57
 42 180 42 180 42 136 c 0,58,59
 42 109 42 109 52 82.5 c 128,-1,60
 62 56 62 56 83 35 c 128,-1,61
 104 14 104 14 135.5 1 c 128,-1,62
 167 -12 167 -12 210 -12 c 0,63,64
 252 -12 252 -12 285.5 -2.5 c 128,-1,65
 319 7 319 7 344.5 20.5 c 128,-1,66
 370 34 370 34 387.5 48.5 c 128,-1,67
 405 63 405 63 415 73 c 1,0,1
408 270 m 1,68,69
 408 226 408 226 404.5 191.5 c 128,-1,70
 401 157 401 157 386 131 c 0,71,72
 375 111 375 111 357 97 c 128,-1,73
 339 83 339 83 317.5 74 c 128,-1,74
 296 65 296 65 273.5 60.5 c 128,-1,75
 251 56 251 56 230 56 c 0,76,77
 203 56 203 56 184 64.5 c 128,-1,78
 165 73 165 73 153.5 85.5 c 128,-1,79
 142 98 142 98 136.5 113 c 128,-1,80
 131 128 131 128 131 142 c 0,81,82
 131 149 131 149 133.5 160 c 128,-1,83
 136 171 136 171 143 182.5 c 128,-1,84
 150 194 150 194 163 204 c 128,-1,85
 176 214 176 214 198 220 c 0,86,87
 229 228 229 228 266 234.5 c 128,-1,88
 303 241 303 241 350 252 c 0,89,90
 370 257 370 257 384 261.5 c 128,-1,91
 398 266 398 266 408 270 c 1,68,69
EndSplineSet
Validated: 9
EndChar

StartChar: b
Encoding: 98 98 66
Width: 615
GlyphClass: 1
Flags: W
LayerCount: 2
Fore
SplineSet
157 78 m 1,0,1
 166 67 166 67 180.5 51.5 c 128,-1,2
 195 36 195 36 217 22 c 128,-1,3
 239 8 239 8 269.5 -2 c 128,-1,4
 300 -12 300 -12 341 -12 c 0,5,6
 411 -12 411 -12 456 17 c 128,-1,7
 501 46 501 46 527 88.5 c 128,-1,8
 553 131 553 131 562.5 178.5 c 128,-1,9
 572 226 572 226 572 264 c 0,10,11
 572 305 572 305 561.5 352 c 128,-1,12
 551 399 551 399 524.5 438.5 c 128,-1,13
 498 478 498 478 454 504 c 128,-1,14
 410 530 410 530 343 530 c 0,15,16
 300 530 300 530 267.5 518 c 128,-1,17
 235 506 235 506 212 490 c 128,-1,18
 189 474 189 474 176 459.5 c 128,-1,19
 163 445 163 445 160 440 c 1,20,-1
 160 655 l 2,21,22
 160 668 160 668 159.5 681 c 128,-1,23
 159 694 159 694 155 704.5 c 128,-1,24
 151 715 151 715 142 721.5 c 128,-1,25
 133 728 133 728 117 728 c 0,26,27
 100 728 100 728 91.5 721.5 c 128,-1,28
 83 715 83 715 78.5 704.5 c 128,-1,29
 74 694 74 694 73.5 681 c 128,-1,30
 73 668 73 668 73 656 c 2,31,-1
 73 57 l 2,32,33
 73 35 73 35 74.5 21.5 c 128,-1,34
 76 8 76 8 85 0 c 0,35,36
 97 -12 97 -12 115 -12 c 0,37,38
 131 -12 131 -12 139.5 -5 c 128,-1,39
 148 2 148 2 152 12 c 128,-1,40
 156 22 156 22 156.5 31.5 c 128,-1,41
 157 41 157 41 157 47 c 2,42,-1
 157 78 l 1,0,1
324 56 m 0,43,44
 295 56 295 56 265.5 66 c 128,-1,45
 236 76 236 76 212.5 99.5 c 128,-1,46
 189 123 189 123 174 160.5 c 128,-1,47
 159 198 159 198 159 254 c 0,48,49
 159 320 159 320 178 360.5 c 128,-1,50
 197 401 197 401 223.5 423.5 c 128,-1,51
 250 446 250 446 278.5 454 c 128,-1,52
 307 462 307 462 327 462 c 0,53,54
 363 462 363 462 392 447 c 128,-1,55
 421 432 421 432 441.5 405 c 128,-1,56
 462 378 462 378 472.5 341.5 c 128,-1,57
 483 305 483 305 483 263 c 0,58,59
 483 205 483 205 467.5 165.5 c 128,-1,60
 452 126 452 126 429 101.5 c 128,-1,61
 406 77 406 77 377.5 66.5 c 128,-1,62
 349 56 349 56 324 56 c 0,43,44
EndSplineSet
Validated: 9
EndChar

StartChar: c
Encoding: 99 99 67
Width: 563
GlyphClass: 1
Flags: W
LayerCount: 2
Fore
SplineSet
516 152 m 0,0,1
 516 171 516 171 503 181.5 c 128,-1,2
 490 192 490 192 476 192 c 0,3,4
 465 192 465 192 458.5 187 c 128,-1,5
 452 182 452 182 447 176 c 0,6,7
 445 174 445 174 441.5 167.5 c 128,-1,8
 438 161 438 161 434 153.5 c 128,-1,9
 430 146 430 146 426 139.5 c 128,-1,10
 422 133 422 133 421 130 c 0,11,12
 401 94 401 94 365.5 75 c 128,-1,13
 330 56 330 56 288 56 c 0,14,15
 214 56 214 56 171.5 110.5 c 128,-1,16
 129 165 129 165 129 262 c 0,17,18
 129 355 129 355 173 408.5 c 128,-1,19
 217 462 217 462 290 462 c 0,20,21
 323 462 323 462 346.5 452.5 c 128,-1,22
 370 443 370 443 385.5 429.5 c 128,-1,23
 401 416 401 416 410.5 402 c 128,-1,24
 420 388 420 388 425 380 c 0,25,26
 432 367 432 367 438 360 c 128,-1,27
 444 353 444 353 449 349.5 c 128,-1,28
 454 346 454 346 458.5 345.5 c 128,-1,29
 463 345 463 345 467 345 c 0,30,31
 482 345 482 345 494 355.5 c 128,-1,32
 506 366 506 366 506 383 c 0,33,34
 506 396 506 396 500.5 408.5 c 128,-1,35
 495 421 495 421 488 431 c 0,36,37
 477 448 477 448 461 465.5 c 128,-1,38
 445 483 445 483 421.5 497.5 c 128,-1,39
 398 512 398 512 365.5 521 c 128,-1,40
 333 530 333 530 289 530 c 0,41,42
 215 530 215 530 167.5 504.5 c 128,-1,43
 120 479 120 479 92 439 c 128,-1,44
 64 399 64 399 53 351 c 128,-1,45
 42 303 42 303 42 258 c 0,46,47
 42 200 42 200 53.5 161.5 c 128,-1,48
 65 123 65 123 79 99 c 0,49,50
 88 82 88 82 103.5 63 c 128,-1,51
 119 44 119 44 144 27 c 128,-1,52
 169 10 169 10 205.5 -1 c 128,-1,53
 242 -12 242 -12 293 -12 c 0,54,55
 356 -12 356 -12 398.5 9.5 c 128,-1,56
 441 31 441 31 467.5 59 c 128,-1,57
 494 87 494 87 505 114 c 128,-1,58
 516 141 516 141 516 152 c 0,0,1
EndSplineSet
Validated: 9
EndChar

StartChar: d
Encoding: 100 100 68
Width: 615
GlyphClass: 1
Flags: W
LayerCount: 2
Fore
SplineSet
458 78 m 1,0,-1
 458 47 l 2,1,2
 458 41 458 41 458.5 31.5 c 128,-1,3
 459 22 459 22 463 12 c 128,-1,4
 467 2 467 2 475.5 -5 c 128,-1,5
 484 -12 484 -12 500 -12 c 0,6,7
 518 -12 518 -12 530 0 c 0,8,9
 539 8 539 8 540.5 21.5 c 128,-1,10
 542 35 542 35 542 57 c 2,11,-1
 542 656 l 2,12,13
 542 668 542 668 541.5 681 c 128,-1,14
 541 694 541 694 536.5 704.5 c 128,-1,15
 532 715 532 715 523 721.5 c 128,-1,16
 514 728 514 728 498 728 c 256,17,18
 482 728 482 728 473 721.5 c 128,-1,19
 464 715 464 715 460 704.5 c 128,-1,20
 456 694 456 694 455.5 681 c 128,-1,21
 455 668 455 668 455 655 c 2,22,-1
 455 440 l 1,23,24
 452 445 452 445 439 459.5 c 128,-1,25
 426 474 426 474 403 490 c 128,-1,26
 380 506 380 506 347.5 518 c 128,-1,27
 315 530 315 530 272 530 c 0,28,29
 205 530 205 530 161 504 c 128,-1,30
 117 478 117 478 90.5 438.5 c 128,-1,31
 64 399 64 399 53.5 352 c 128,-1,32
 43 305 43 305 43 264 c 0,33,34
 43 226 43 226 52.5 178.5 c 128,-1,35
 62 131 62 131 88 88.5 c 128,-1,36
 114 46 114 46 158.5 17 c 128,-1,37
 203 -12 203 -12 274 -12 c 0,38,39
 315 -12 315 -12 345.5 -2 c 128,-1,40
 376 8 376 8 398 22 c 128,-1,41
 420 36 420 36 434.5 51.5 c 128,-1,42
 449 67 449 67 458 78 c 1,0,-1
291 56 m 0,43,44
 265 56 265 56 237 66.5 c 128,-1,45
 209 77 209 77 186 101.5 c 128,-1,46
 163 126 163 126 147.5 165.5 c 128,-1,47
 132 205 132 205 132 263 c 0,48,49
 132 305 132 305 142.5 341.5 c 128,-1,50
 153 378 153 378 173.5 405 c 128,-1,51
 194 432 194 432 223 447 c 128,-1,52
 252 462 252 462 288 462 c 0,53,54
 308 462 308 462 336.5 454 c 128,-1,55
 365 446 365 446 391.5 423.5 c 128,-1,56
 418 401 418 401 437 360.5 c 128,-1,57
 456 320 456 320 456 254 c 0,58,59
 456 198 456 198 441 160.5 c 128,-1,60
 426 123 426 123 402.5 99.5 c 128,-1,61
 379 76 379 76 349.5 66 c 128,-1,62
 320 56 320 56 291 56 c 0,43,44
EndSplineSet
Validated: 9
EndChar

StartChar: e
Encoding: 101 101 69
Width: 563
GlyphClass: 1
Flags: W
LayerCount: 2
Fore
SplineSet
444 242 m 2,0,1
 457 242 457 242 470.5 243 c 128,-1,2
 484 244 484 244 495.5 249 c 128,-1,3
 507 254 507 254 514 265.5 c 128,-1,4
 521 277 521 277 521 298 c 0,5,6
 521 309 521 309 518 330.5 c 128,-1,7
 515 352 515 352 506.5 378 c 128,-1,8
 498 404 498 404 482 431 c 128,-1,9
 466 458 466 458 440 480 c 128,-1,10
 414 502 414 502 377 516 c 128,-1,11
 340 530 340 530 289 530 c 0,12,13
 226 530 226 530 180 509 c 128,-1,14
 134 488 134 488 104 451.5 c 128,-1,15
 74 415 74 415 59 365.5 c 128,-1,16
 44 316 44 316 44 260 c 0,17,18
 44 203 44 203 58.5 153 c 128,-1,19
 73 103 73 103 103.5 66.5 c 128,-1,20
 134 30 134 30 180.5 9 c 128,-1,21
 227 -12 227 -12 291 -12 c 0,22,23
 339 -12 339 -12 373.5 -1 c 128,-1,24
 408 10 408 10 432 26 c 128,-1,25
 456 42 456 42 470.5 60 c 128,-1,26
 485 78 485 78 494 92 c 0,27,28
 500 102 500 102 505.5 114 c 128,-1,29
 511 126 511 126 511 138 c 0,30,31
 511 151 511 151 501.5 161 c 128,-1,32
 492 171 492 171 478 171 c 0,33,34
 462 171 462 171 454 161.5 c 128,-1,35
 446 152 446 152 441 145 c 0,36,37
 430 128 430 128 417.5 111 c 128,-1,38
 405 94 405 94 388.5 81 c 128,-1,39
 372 68 372 68 349.5 60 c 128,-1,40
 327 52 327 52 295 52 c 0,41,42
 264 52 264 52 235.5 62 c 128,-1,43
 207 72 207 72 184.5 94.5 c 128,-1,44
 162 117 162 117 148 153.5 c 128,-1,45
 134 190 134 190 133 242 c 1,46,-1
 444 242 l 2,0,1
134 302 m 1,47,48
 136 319 136 319 140.5 342 c 128,-1,49
 145 365 145 365 158 388 c 0,50,51
 165 401 165 401 176 415 c 128,-1,52
 187 429 187 429 203 440 c 128,-1,53
 219 451 219 451 239.5 458.5 c 128,-1,54
 260 466 260 466 286 466 c 0,55,56
 329 466 329 466 359 447.5 c 128,-1,57
 389 429 389 429 406 400 c 128,-1,58
 423 371 423 371 426.5 347.5 c 128,-1,59
 430 324 430 324 432 302 c 1,60,-1
 134 302 l 1,47,48
EndSplineSet
Validated: 9
EndChar

StartChar: f
Encoding: 102 102 70
Width: 302
GlyphClass: 1
Flags: W
LayerCount: 2
Fore
SplineSet
97 518 m 1,0,-1
 52 518 l 2,1,2
 47 518 47 518 39 517.5 c 128,-1,3
 31 517 31 517 22.5 514 c 128,-1,4
 14 511 14 511 8 505 c 128,-1,5
 2 499 2 499 2 487 c 256,6,7
 2 475 2 475 8 468 c 128,-1,8
 14 461 14 461 22 458 c 128,-1,9
 30 455 30 455 38 454.5 c 128,-1,10
 46 454 46 454 50 454 c 2,11,-1
 97 454 l 1,12,-1
 97 59 l 2,13,14
 97 37 97 37 98.5 23 c 128,-1,15
 100 9 100 9 109 0 c 0,16,17
 121 -12 121 -12 140 -12 c 0,18,19
 151 -12 151 -12 158.5 -8.5 c 128,-1,20
 166 -5 166 -5 171 0 c 0,21,22
 180 8 180 8 182 22.5 c 128,-1,23
 184 37 184 37 184 59 c 2,24,-1
 184 454 l 1,25,-1
 238 454 l 2,26,27
 245 454 245 454 254 454.5 c 128,-1,28
 263 455 263 455 271.5 458 c 128,-1,29
 280 461 280 461 285.5 468 c 128,-1,30
 291 475 291 475 291 487 c 256,31,32
 291 499 291 499 285.5 505 c 128,-1,33
 280 511 280 511 272 514 c 128,-1,34
 264 517 264 517 255 517.5 c 128,-1,35
 246 518 246 518 238 518 c 2,36,-1
 184 518 l 1,37,-1
 184 559 l 2,38,39
 184 582 184 582 186 600.5 c 128,-1,40
 188 619 188 619 196 631.5 c 128,-1,41
 204 644 204 644 218.5 651 c 128,-1,42
 233 658 233 658 259 658 c 0,43,44
 262 658 262 658 268.5 657 c 128,-1,45
 275 656 275 656 282.5 655.5 c 128,-1,46
 290 655 290 655 296.5 654 c 128,-1,47
 303 653 303 653 306 653 c 0,48,49
 318 653 318 653 326.5 662.5 c 128,-1,50
 335 672 335 672 335 686 c 0,51,52
 335 702 335 702 326 708.5 c 128,-1,53
 317 715 317 715 312 717 c 0,54,55
 302 721 302 721 282 724.5 c 128,-1,56
 262 728 262 728 239 728 c 0,57,58
 225 728 225 728 209 726 c 128,-1,59
 193 724 193 724 176.5 719 c 128,-1,60
 160 714 160 714 145 703.5 c 128,-1,61
 130 693 130 693 119 677 c 0,62,63
 107 660 107 660 102 633 c 128,-1,64
 97 606 97 606 97 567 c 2,65,-1
 97 518 l 1,0,-1
EndSplineSet
Validated: 9
EndChar

StartChar: g
Encoding: 103 103 71
Width: 615
GlyphClass: 1
Flags: W
LayerCount: 2
Fore
SplineSet
457 436 m 1,0,1
 448 448 448 448 433.5 464 c 128,-1,2
 419 480 419 480 397 494.5 c 128,-1,3
 375 509 375 509 344.5 519.5 c 128,-1,4
 314 530 314 530 273 530 c 0,5,6
 211 530 211 530 168 506 c 128,-1,7
 125 482 125 482 97 443.5 c 128,-1,8
 69 405 69 405 56.5 356.5 c 128,-1,9
 44 308 44 308 44 260 c 0,10,11
 44 247 44 247 46.5 222 c 128,-1,12
 49 197 49 197 57 167 c 128,-1,13
 65 137 65 137 80.5 106 c 128,-1,14
 96 75 96 75 121.5 49.5 c 128,-1,15
 147 24 147 24 185.5 8 c 128,-1,16
 224 -8 224 -8 277 -8 c 0,17,18
 312 -8 312 -8 340.5 1 c 128,-1,19
 369 10 369 10 390.5 22.5 c 128,-1,20
 412 35 412 35 428 49 c 128,-1,21
 444 63 444 63 454 73 c 1,22,23
 454 41 454 41 453.5 18 c 128,-1,24
 453 -5 453 -5 451 -22.5 c 128,-1,25
 449 -40 449 -40 444.5 -54.5 c 128,-1,26
 440 -69 440 -69 433 -83 c 0,27,28
 417 -113 417 -113 379 -129 c 128,-1,29
 341 -145 341 -145 287 -145 c 0,30,31
 255 -145 255 -145 233.5 -139.5 c 128,-1,32
 212 -134 212 -134 197 -126 c 128,-1,33
 182 -118 182 -118 172.5 -107.5 c 128,-1,34
 163 -97 163 -97 157 -87 c 0,35,36
 147 -71 147 -71 140.5 -62 c 128,-1,37
 134 -53 134 -53 129 -48 c 128,-1,38
 124 -43 124 -43 119 -41.5 c 128,-1,39
 114 -40 114 -40 106 -40 c 0,40,41
 87 -40 87 -40 76.5 -52 c 128,-1,42
 66 -64 66 -64 66 -77 c 0,43,44
 66 -87 66 -87 75 -109.5 c 128,-1,45
 84 -132 84 -132 108.5 -155 c 128,-1,46
 133 -178 133 -178 176 -195.5 c 128,-1,47
 219 -213 219 -213 287 -213 c 0,48,49
 303 -213 303 -213 335 -210.5 c 128,-1,50
 367 -208 367 -208 403 -196 c 128,-1,51
 439 -184 439 -184 471.5 -159.5 c 128,-1,52
 504 -135 504 -135 522 -91 c 0,53,54
 531 -68 531 -68 536 -30 c 128,-1,55
 541 8 541 8 541 56 c 2,56,-1
 541 452 l 2,57,58
 541 467 541 467 540.5 481.5 c 128,-1,59
 540 496 540 496 536 506.5 c 128,-1,60
 532 517 532 517 523.5 523.5 c 128,-1,61
 515 530 515 530 499 530 c 0,62,63
 484 530 484 530 475.5 523.5 c 128,-1,64
 467 517 467 517 463 508 c 128,-1,65
 459 499 459 499 458 490 c 128,-1,66
 457 481 457 481 457 476 c 2,67,-1
 457 436 l 1,0,1
293 60 m 0,68,69
 263 60 263 60 234 70.5 c 128,-1,70
 205 81 205 81 182.5 105 c 128,-1,71
 160 129 160 129 146.5 167 c 128,-1,72
 133 205 133 205 133 259 c 0,73,74
 133 324 133 324 150.5 364 c 128,-1,75
 168 404 168 404 193 425.5 c 128,-1,76
 218 447 218 447 245.5 454.5 c 128,-1,77
 273 462 273 462 293 462 c 0,78,79
 328 462 328 462 357.5 448.5 c 128,-1,80
 387 435 387 435 408.5 409 c 128,-1,81
 430 383 430 383 442 344.5 c 128,-1,82
 454 306 454 306 454 255 c 0,83,84
 454 200 454 200 439 163 c 128,-1,85
 424 126 424 126 400.5 103 c 128,-1,86
 377 80 377 80 348.5 70 c 128,-1,87
 320 60 320 60 293 60 c 0,68,69
EndSplineSet
Validated: 9
EndChar

StartChar: h
Encoding: 104 104 72
Width: 573
GlyphClass: 1
Flags: W
LayerCount: 2
Fore
SplineSet
503 333 m 2,0,1
 503 343 503 343 502.5 359.5 c 128,-1,2
 502 376 502 376 498.5 394.5 c 128,-1,3
 495 413 495 413 487.5 432.5 c 128,-1,4
 480 452 480 452 467 467 c 0,5,6
 441 497 441 497 406.5 513.5 c 128,-1,7
 372 530 372 530 324 530 c 0,8,9
 293 530 293 530 268.5 523 c 128,-1,10
 244 516 244 516 224.5 504 c 128,-1,11
 205 492 205 492 189.5 476.5 c 128,-1,12
 174 461 174 461 161 444 c 1,13,-1
 161 656 l 2,14,15
 161 669 161 669 160.5 682 c 128,-1,16
 160 695 160 695 155.5 705 c 128,-1,17
 151 715 151 715 142 721.5 c 128,-1,18
 133 728 133 728 116 728 c 0,19,20
 100 728 100 728 91.5 721.5 c 128,-1,21
 83 715 83 715 79 704.5 c 128,-1,22
 75 694 75 694 74.5 681.5 c 128,-1,23
 74 669 74 669 74 656 c 2,24,-1
 74 60 l 2,25,26
 74 48 74 48 74.5 35 c 128,-1,27
 75 22 75 22 79 11.5 c 128,-1,28
 83 1 83 1 91.5 -5.5 c 128,-1,29
 100 -12 100 -12 116 -12 c 0,30,31
 128 -12 128 -12 136 -7.5 c 128,-1,32
 144 -3 144 -3 149 1 c 0,33,34
 158 10 158 10 159.5 23.5 c 128,-1,35
 161 37 161 37 161 59 c 2,36,-1
 161 232 l 2,37,38
 161 272 161 272 163 298 c 128,-1,39
 165 324 165 324 168 340.5 c 128,-1,40
 171 357 171 357 175.5 367.5 c 128,-1,41
 180 378 180 378 185 388 c 0,42,43
 202 421 202 421 236.5 440 c 128,-1,44
 271 459 271 459 308 459 c 0,45,46
 335 459 335 459 360.5 446.5 c 128,-1,47
 386 434 386 434 400 410 c 0,48,49
 411 392 411 392 413.5 363 c 128,-1,50
 416 334 416 334 416 312 c 2,51,-1
 416 60 l 2,52,53
 416 40 416 40 416.5 30 c 128,-1,54
 417 20 417 20 420 12 c 0,55,56
 425 0 425 0 436 -6 c 128,-1,57
 447 -12 447 -12 458 -12 c 256,58,59
 469 -12 469 -12 479 -7.5 c 128,-1,60
 489 -3 489 -3 494 4 c 0,61,62
 501 13 501 13 502 24 c 128,-1,63
 503 35 503 35 503 60 c 2,64,-1
 503 333 l 2,0,1
EndSplineSet
Validated: 9
EndChar

StartChar: i
Encoding: 105 105 73
Width: 240
GlyphClass: 1
Flags: W
LayerCount: 2
Fore
SplineSet
164 459 m 2,0,1
 164 472 164 472 163.5 487 c 128,-1,2
 163 502 163 502 158 510 c 128,-1,3
 153 518 153 518 145.5 524 c 128,-1,4
 138 530 138 530 121 530 c 0,5,6
 101 530 101 530 88 517 c 0,7,8
 80 508 80 508 78 495 c 128,-1,9
 76 482 76 482 76 459 c 2,10,-1
 76 59 l 2,11,12
 76 47 76 47 77 34.5 c 128,-1,13
 78 22 78 22 82 11.5 c 128,-1,14
 86 1 86 1 95 -5.5 c 128,-1,15
 104 -12 104 -12 120 -12 c 0,16,17
 132 -12 132 -12 143.5 -5 c 128,-1,18
 155 2 155 2 160 16 c 0,19,20
 162 21 162 21 163 29.5 c 128,-1,21
 164 38 164 38 164 59 c 2,22,-1
 164 459 l 2,0,1
168 665 m 256,23,24
 168 685 168 685 154 699 c 128,-1,25
 140 713 140 713 120 713 c 256,26,27
 100 713 100 713 86 699 c 128,-1,28
 72 685 72 685 72 665 c 256,29,30
 72 645 72 645 86 630.5 c 128,-1,31
 100 616 100 616 120 616 c 256,32,33
 140 616 140 616 154 630.5 c 128,-1,34
 168 645 168 645 168 665 c 256,23,24
EndSplineSet
Validated: 9
EndChar

StartChar: j
Encoding: 106 106 74
Width: 240
GlyphClass: 1
Flags: W
LayerCount: 2
Fore
SplineSet
164 459 m 2,0,1
 164 471 164 471 163.5 483.5 c 128,-1,2
 163 496 163 496 158.5 506.5 c 128,-1,3
 154 517 154 517 145 523.5 c 128,-1,4
 136 530 136 530 120 530 c 0,5,6
 107 530 107 530 97.5 523.5 c 128,-1,7
 88 517 88 517 84 511 c 0,8,9
 79 501 79 501 78 490.5 c 128,-1,10
 77 480 77 480 77 459 c 2,11,-1
 77 -30 l 2,12,13
 77 -60 77 -60 74 -80 c 128,-1,14
 71 -100 71 -100 65 -111.5 c 128,-1,15
 59 -123 59 -123 49 -127.5 c 128,-1,16
 39 -132 39 -132 25 -132 c 0,17,18
 21 -132 21 -132 7.5 -130.5 c 128,-1,19
 -6 -129 -6 -129 -11 -129 c 0,20,21
 -25 -129 -25 -129 -33 -133.5 c 128,-1,22
 -41 -138 -41 -138 -44.5 -143.5 c 128,-1,23
 -48 -149 -48 -149 -49 -155 c 128,-1,24
 -50 -161 -50 -161 -50 -164 c 0,25,26
 -50 -181 -50 -181 -40 -190 c 128,-1,27
 -30 -199 -30 -199 -16.5 -204 c 128,-1,28
 -3 -209 -3 -209 10.5 -210 c 128,-1,29
 24 -211 24 -211 32 -211 c 0,30,31
 44 -211 44 -211 59 -209 c 128,-1,32
 74 -207 74 -207 89.5 -201 c 128,-1,33
 105 -195 105 -195 120 -184 c 128,-1,34
 135 -173 135 -173 146 -154 c 0,35,36
 150 -147 150 -147 153.5 -138.5 c 128,-1,37
 157 -130 157 -130 159 -116 c 128,-1,38
 161 -102 161 -102 162.5 -81 c 128,-1,39
 164 -60 164 -60 164 -28 c 2,40,-1
 164 459 l 2,0,1
72 665 m 256,41,42
 72 645 72 645 86.5 630.5 c 128,-1,43
 101 616 101 616 121 616 c 256,44,45
 141 616 141 616 155 630.5 c 128,-1,46
 169 645 169 645 169 665 c 256,47,48
 169 685 169 685 155 699 c 128,-1,49
 141 713 141 713 121 713 c 256,50,51
 101 713 101 713 86.5 699 c 128,-1,52
 72 685 72 685 72 665 c 256,41,42
EndSplineSet
Validated: 9
EndChar

StartChar: k
Encoding: 107 107 75
Width: 531
GlyphClass: 1
Flags: W
LayerCount: 2
Fore
SplineSet
244 269 m 1,0,-1
 404 30 l 2,1,2
 418 8 418 8 428.5 -2 c 128,-1,3
 439 -12 439 -12 454 -12 c 0,4,5
 468 -12 468 -12 483 -1 c 128,-1,6
 498 10 498 10 498 28 c 0,7,8
 498 36 498 36 494 46.5 c 128,-1,9
 490 57 490 57 471 84 c 2,10,-1
 304 325 l 1,11,-1
 439 452 l 2,12,13
 452 464 452 464 459.5 473 c 128,-1,14
 467 482 467 482 467 493 c 0,15,16
 467 507 467 507 455 519.5 c 128,-1,17
 443 532 443 532 426 532 c 0,18,19
 415 532 415 532 407 526 c 128,-1,20
 399 520 399 520 376 498 c 2,21,-1
 168 298 l 1,22,-1
 168 652 l 2,23,24
 168 668 168 668 167.5 681 c 128,-1,25
 167 694 167 694 165 701 c 0,26,27
 160 713 160 713 150 720.5 c 128,-1,28
 140 728 140 728 125 728 c 0,29,30
 108 728 108 728 99.5 720 c 128,-1,31
 91 712 91 712 86.5 699.5 c 128,-1,32
 82 687 82 687 81.5 672 c 128,-1,33
 81 657 81 657 81 644 c 2,34,-1
 81 64 l 2,35,36
 81 48 81 48 81.5 34.5 c 128,-1,37
 82 21 82 21 86 10.5 c 128,-1,38
 90 0 90 0 98.5 -6 c 128,-1,39
 107 -12 107 -12 123 -12 c 0,40,41
 140 -12 140 -12 149 -5.5 c 128,-1,42
 158 1 158 1 162.5 11.5 c 128,-1,43
 167 22 167 22 167.5 35 c 128,-1,44
 168 48 168 48 168 61 c 2,45,-1
 168 199 l 1,46,-1
 244 269 l 1,0,-1
EndSplineSet
Validated: 9
EndChar

StartChar: l
Encoding: 108 108 76
Width: 240
GlyphClass: 1
Flags: W
LayerCount: 2
Fore
SplineSet
164 656 m 2,0,1
 164 679 164 679 162 692.5 c 128,-1,2
 160 706 160 706 152 715 c 0,3,4
 137 728 137 728 120 728 c 0,5,6
 109 728 109 728 101 723.5 c 128,-1,7
 93 719 93 719 88 714 c 0,8,9
 80 706 80 706 78.5 692.5 c 128,-1,10
 77 679 77 679 77 656 c 2,11,-1
 77 59 l 2,12,13
 77 47 77 47 77.5 34 c 128,-1,14
 78 21 78 21 82 11 c 128,-1,15
 86 1 86 1 95 -5.5 c 128,-1,16
 104 -12 104 -12 120 -12 c 0,17,18
 131 -12 131 -12 139 -8 c 128,-1,19
 147 -4 147 -4 152 1 c 0,20,21
 160 10 160 10 162 23 c 128,-1,22
 164 36 164 36 164 59 c 2,23,-1
 164 656 l 2,0,1
EndSplineSet
Validated: 9
EndChar

StartChar: m
Encoding: 109 109 77
Width: 833
GlyphClass: 1
Flags: W
LayerCount: 2
Fore
SplineSet
768 356 m 2,0,1
 768 375 768 375 765.5 401.5 c 128,-1,2
 763 428 763 428 749 457 c 0,3,4
 738 478 738 478 721.5 492 c 128,-1,5
 705 506 705 506 685.5 514.5 c 128,-1,6
 666 523 666 523 646 526.5 c 128,-1,7
 626 530 626 530 608 530 c 0,8,9
 572 530 572 530 545 519.5 c 128,-1,10
 518 509 518 509 498.5 495 c 128,-1,11
 479 481 479 481 467 465 c 128,-1,12
 455 449 455 449 448 439 c 1,13,14
 444 450 444 450 438.5 461.5 c 128,-1,15
 433 473 433 473 421 486 c 0,16,17
 407 501 407 501 390 509.5 c 128,-1,18
 373 518 373 518 356.5 522.5 c 128,-1,19
 340 527 340 527 325 528.5 c 128,-1,20
 310 530 310 530 301 530 c 0,21,22
 245 530 245 530 206 505.5 c 128,-1,23
 167 481 167 481 144 446 c 1,24,25
 144 477 144 477 143.5 486.5 c 128,-1,26
 143 496 143 496 141 504 c 128,-1,27
 139 512 139 512 129.5 521 c 128,-1,28
 120 530 120 530 105 530 c 256,29,30
 90 530 90 530 82.5 523.5 c 128,-1,31
 75 517 75 517 71 507 c 128,-1,32
 67 497 67 497 66.5 484 c 128,-1,33
 66 471 66 471 66 459 c 2,34,-1
 66 60 l 2,35,36
 66 37 66 37 67.5 23.5 c 128,-1,37
 69 10 69 10 77 1 c 0,38,39
 92 -12 92 -12 110 -12 c 0,40,41
 121 -12 121 -12 129 -8 c 128,-1,42
 137 -4 137 -4 142 1 c 0,43,44
 150 10 150 10 151.5 23.5 c 128,-1,45
 153 37 153 37 153 60 c 2,46,-1
 153 269 l 2,47,48
 153 303 153 303 156 333 c 128,-1,49
 159 363 159 363 175 394 c 0,50,51
 187 420 187 420 217 437 c 128,-1,52
 247 454 247 454 282 454 c 0,53,54
 316 454 316 454 335 440.5 c 128,-1,55
 354 427 354 427 362.5 408 c 128,-1,56
 371 389 371 389 372.5 369 c 128,-1,57
 374 349 374 349 374 337 c 2,58,-1
 374 60 l 2,59,60
 374 37 374 37 375.5 23.5 c 128,-1,61
 377 10 377 10 385 1 c 0,62,63
 400 -12 400 -12 418 -12 c 0,64,65
 429 -12 429 -12 437 -8 c 128,-1,66
 445 -4 445 -4 450 1 c 0,67,68
 458 10 458 10 459.5 23.5 c 128,-1,69
 461 37 461 37 461 60 c 2,70,-1
 461 301 l 2,71,72
 461 324 461 324 464 348.5 c 128,-1,73
 467 373 467 373 484 400 c 0,74,75
 500 427 500 427 529.5 440.5 c 128,-1,76
 559 454 559 454 588 454 c 0,77,78
 623 454 623 454 642 440.5 c 128,-1,79
 661 427 661 427 669.5 407.5 c 128,-1,80
 678 388 678 388 679.5 366 c 128,-1,81
 681 344 681 344 681 327 c 2,82,-1
 681 61 l 2,83,84
 681 49 681 49 681.5 36 c 128,-1,85
 682 23 682 23 686.5 12.5 c 128,-1,86
 691 2 691 2 699.5 -5 c 128,-1,87
 708 -12 708 -12 725 -12 c 0,88,89
 736 -12 736 -12 743.5 -8 c 128,-1,90
 751 -4 751 -4 757 1 c 0,91,92
 765 10 765 10 766.5 23.5 c 128,-1,93
 768 37 768 37 768 60 c 2,94,-1
 768 356 l 2,0,1
EndSplineSet
Validated: 9
EndChar

StartChar: n
Encoding: 110 110 78
Width: 573
GlyphClass: 1
Flags: W
LayerCount: 2
Fore
SplineSet
503 331 m 2,0,1
 503 343 503 343 502.5 360.5 c 128,-1,2
 502 378 502 378 499 396.5 c 128,-1,3
 496 415 496 415 489 433 c 128,-1,4
 482 451 482 451 469 466 c 0,5,6
 442 497 442 497 406.5 513.5 c 128,-1,7
 371 530 371 530 323 530 c 0,8,9
 288 530 288 530 262 521 c 128,-1,10
 236 512 236 512 216.5 498.5 c 128,-1,11
 197 485 197 485 183 469.5 c 128,-1,12
 169 454 169 454 159 441 c 1,13,14
 159 457 159 457 158.5 468 c 128,-1,15
 158 479 158 479 157.5 487 c 128,-1,16
 157 495 157 495 155 500.5 c 128,-1,17
 153 506 153 506 150 511 c 0,18,19
 147 518 147 518 137.5 524 c 128,-1,20
 128 530 128 530 116 530 c 0,21,22
 105 530 105 530 97.5 526 c 128,-1,23
 90 522 90 522 85 518 c 0,24,25
 77 510 77 510 75.5 496 c 128,-1,26
 74 482 74 482 74 461 c 2,27,-1
 74 59 l 2,28,29
 74 37 74 37 75.5 22.5 c 128,-1,30
 77 8 77 8 86 0 c 0,31,32
 100 -12 100 -12 117 -12 c 256,33,34
 134 -12 134 -12 148 0 c 0,35,36
 157 8 157 8 159 22.5 c 128,-1,37
 161 37 161 37 161 59 c 2,38,-1
 161 224 l 2,39,40
 161 265 161 265 162.5 291 c 128,-1,41
 164 317 164 317 167 334 c 128,-1,42
 170 351 170 351 174.5 361.5 c 128,-1,43
 179 372 179 372 185 382 c 0,44,45
 203 415 203 415 237 434.5 c 128,-1,46
 271 454 271 454 309 454 c 0,47,48
 336 454 336 454 361 441.5 c 128,-1,49
 386 429 386 429 400 404 c 0,50,51
 408 390 408 390 412 367 c 128,-1,52
 416 344 416 344 416 306 c 2,53,-1
 416 59 l 2,54,55
 416 37 416 37 417.5 22.5 c 128,-1,56
 419 8 419 8 428 0 c 0,57,58
 441 -12 441 -12 460 -12 c 0,59,60
 477 -12 477 -12 491 0 c 0,61,62
 500 8 500 8 501.5 22.5 c 128,-1,63
 503 37 503 37 503 59 c 2,64,-1
 503 331 l 2,0,1
EndSplineSet
Validated: 9
EndChar

StartChar: o
Encoding: 111 111 79
Width: 573
GlyphClass: 1
Flags: W
LayerCount: 2
Fore
SplineSet
530 259 m 256,0,1
 530 331 530 331 510.5 382 c 128,-1,2
 491 433 491 433 457.5 466 c 128,-1,3
 424 499 424 499 379.5 514.5 c 128,-1,4
 335 530 335 530 286 530 c 0,5,6
 171 530 171 530 106.5 458 c 128,-1,7
 42 386 42 386 42 249 c 0,8,9
 42 196 42 196 57 148.5 c 128,-1,10
 72 101 72 101 102.5 65.5 c 128,-1,11
 133 30 133 30 179 9 c 128,-1,12
 225 -12 225 -12 286 -12 c 0,13,14
 335 -12 335 -12 379 3.5 c 128,-1,15
 423 19 423 19 456.5 52 c 128,-1,16
 490 85 490 85 510 136 c 128,-1,17
 530 187 530 187 530 259 c 256,0,1
441 259 m 0,18,19
 441 166 441 166 401 111 c 128,-1,20
 361 56 361 56 287 56 c 256,21,22
 213 56 213 56 172 110.5 c 128,-1,23
 131 165 131 165 131 259 c 0,24,25
 131 351 131 351 171.5 406.5 c 128,-1,26
 212 462 212 462 287 462 c 0,27,28
 357 462 357 462 399 409 c 128,-1,29
 441 356 441 356 441 259 c 0,18,19
EndSplineSet
Validated: 9
EndChar

StartChar: p
Encoding: 112 112 80
Width: 615
GlyphClass: 1
Flags: W
LayerCount: 2
Fore
SplineSet
157 440 m 1,0,-1
 157 471 l 2,1,2
 157 477 157 477 156.5 486.5 c 128,-1,3
 156 496 156 496 152 506 c 128,-1,4
 148 516 148 516 139.5 523 c 128,-1,5
 131 530 131 530 115 530 c 0,6,7
 97 530 97 530 85 518 c 0,8,9
 76 510 76 510 74.5 496.5 c 128,-1,10
 73 483 73 483 73 461 c 2,11,-1
 73 -138 l 2,12,13
 73 -150 73 -150 73.5 -163 c 128,-1,14
 74 -176 74 -176 78.5 -186.5 c 128,-1,15
 83 -197 83 -197 91.5 -203.5 c 128,-1,16
 100 -210 100 -210 117 -210 c 0,17,18
 133 -210 133 -210 142 -203.5 c 128,-1,19
 151 -197 151 -197 155 -186.5 c 128,-1,20
 159 -176 159 -176 159.5 -163 c 128,-1,21
 160 -150 160 -150 160 -137 c 2,22,-1
 160 78 l 1,23,24
 163 73 163 73 176 58.5 c 128,-1,25
 189 44 189 44 212 28 c 128,-1,26
 235 12 235 12 267.5 0 c 128,-1,27
 300 -12 300 -12 343 -12 c 0,28,29
 410 -12 410 -12 454 14 c 128,-1,30
 498 40 498 40 524.5 79.5 c 128,-1,31
 551 119 551 119 561.5 166 c 128,-1,32
 572 213 572 213 572 254 c 0,33,34
 572 279 572 279 568 309 c 128,-1,35
 564 339 564 339 554 370 c 128,-1,36
 544 401 544 401 527 429.5 c 128,-1,37
 510 458 510 458 484.5 480.5 c 128,-1,38
 459 503 459 503 423.5 516.5 c 128,-1,39
 388 530 388 530 341 530 c 0,40,41
 300 530 300 530 269.5 520 c 128,-1,42
 239 510 239 510 217 496 c 128,-1,43
 195 482 195 482 180.5 466.5 c 128,-1,44
 166 451 166 451 157 440 c 1,0,-1
324 462 m 0,45,46
 349 462 349 462 377.5 451.5 c 128,-1,47
 406 441 406 441 429 416.5 c 128,-1,48
 452 392 452 392 467.5 352.5 c 128,-1,49
 483 313 483 313 483 255 c 0,50,51
 483 213 483 213 472.5 176.5 c 128,-1,52
 462 140 462 140 441.5 113 c 128,-1,53
 421 86 421 86 392 71 c 128,-1,54
 363 56 363 56 327 56 c 0,55,56
 307 56 307 56 278.5 63.5 c 128,-1,57
 250 71 250 71 223.5 93.5 c 128,-1,58
 197 116 197 116 178 157 c 128,-1,59
 159 198 159 198 159 264 c 0,60,61
 159 319 159 319 174 357 c 128,-1,62
 189 395 189 395 212.5 418.5 c 128,-1,63
 236 442 236 442 265.5 452 c 128,-1,64
 295 462 295 462 324 462 c 0,45,46
EndSplineSet
Validated: 9
EndChar

StartChar: q
Encoding: 113 113 81
Width: 615
GlyphClass: 1
Flags: W
LayerCount: 2
Fore
SplineSet
457 440 m 1,0,1
 448 451 448 451 433.5 466.5 c 128,-1,2
 419 482 419 482 397 496 c 128,-1,3
 375 510 375 510 344.5 520 c 128,-1,4
 314 530 314 530 273 530 c 0,5,6
 226 530 226 530 190.5 516.5 c 128,-1,7
 155 503 155 503 129.5 480.5 c 128,-1,8
 104 458 104 458 87 429.5 c 128,-1,9
 70 401 70 401 60 370 c 128,-1,10
 50 339 50 339 46 309 c 128,-1,11
 42 279 42 279 42 254 c 0,12,13
 42 213 42 213 52.5 166 c 128,-1,14
 63 119 63 119 89.5 79.5 c 128,-1,15
 116 40 116 40 160 14 c 128,-1,16
 204 -12 204 -12 271 -12 c 0,17,18
 314 -12 314 -12 346.5 0 c 128,-1,19
 379 12 379 12 402 28 c 128,-1,20
 425 44 425 44 438 58.5 c 128,-1,21
 451 73 451 73 454 78 c 1,22,-1
 454 -137 l 2,23,24
 454 -150 454 -150 454.5 -163 c 128,-1,25
 455 -176 455 -176 459 -186.5 c 128,-1,26
 463 -197 463 -197 472 -203.5 c 128,-1,27
 481 -210 481 -210 497 -210 c 256,28,29
 513 -210 513 -210 522 -203.5 c 128,-1,30
 531 -197 531 -197 535.5 -186.5 c 128,-1,31
 540 -176 540 -176 540.5 -163 c 128,-1,32
 541 -150 541 -150 541 -138 c 2,33,-1
 541 461 l 2,34,35
 541 483 541 483 539.5 496.5 c 128,-1,36
 538 510 538 510 529 518 c 0,37,38
 517 530 517 530 499 530 c 0,39,40
 483 530 483 530 474.5 523 c 128,-1,41
 466 516 466 516 462 506 c 128,-1,42
 458 496 458 496 457.5 486.5 c 128,-1,43
 457 477 457 477 457 471 c 2,44,-1
 457 440 l 1,0,1
290 462 m 0,45,46
 319 462 319 462 348.5 452 c 128,-1,47
 378 442 378 442 401.5 418.5 c 128,-1,48
 425 395 425 395 440 357 c 128,-1,49
 455 319 455 319 455 264 c 0,50,51
 455 198 455 198 436 157 c 128,-1,52
 417 116 417 116 390.5 93.5 c 128,-1,53
 364 71 364 71 335.5 63.5 c 128,-1,54
 307 56 307 56 287 56 c 0,55,56
 251 56 251 56 222 71 c 128,-1,57
 193 86 193 86 172.5 113 c 128,-1,58
 152 140 152 140 141.5 176.5 c 128,-1,59
 131 213 131 213 131 255 c 0,60,61
 131 313 131 313 146.5 352.5 c 128,-1,62
 162 392 162 392 185 416.5 c 128,-1,63
 208 441 208 441 236 451.5 c 128,-1,64
 264 462 264 462 290 462 c 0,45,46
EndSplineSet
Validated: 9
EndChar

StartChar: r
Encoding: 114 114 82
Width: 375
GlyphClass: 1
Flags: W
LayerCount: 2
Fore
SplineSet
77 59 m 2,0,1
 77 36 77 36 78.5 22 c 128,-1,2
 80 8 80 8 90 0 c 0,3,4
 102 -12 102 -12 121 -12 c 0,5,6
 126 -12 126 -12 133.5 -10.5 c 128,-1,7
 141 -9 141 -9 147.5 -3.5 c 128,-1,8
 154 2 154 2 159 11.5 c 128,-1,9
 164 21 164 21 164 38 c 2,10,-1
 164 226 l 2,11,12
 164 271 164 271 168 311 c 128,-1,13
 172 351 172 351 184 381 c 128,-1,14
 196 411 196 411 217.5 428.5 c 128,-1,15
 239 446 239 446 274 446 c 0,16,17
 288 446 288 446 298 443.5 c 128,-1,18
 308 441 308 441 316 438.5 c 128,-1,19
 324 436 324 436 331 433.5 c 128,-1,20
 338 431 338 431 346 431 c 0,21,22
 356 431 356 431 368.5 441.5 c 128,-1,23
 381 452 381 452 381 471 c 0,24,25
 381 485 381 485 371 496 c 128,-1,26
 361 507 361 507 345.5 514.5 c 128,-1,27
 330 522 330 522 312 526 c 128,-1,28
 294 530 294 530 278 530 c 0,29,30
 254 530 254 530 236 522.5 c 128,-1,31
 218 515 218 515 204 502.5 c 128,-1,32
 190 490 190 490 177.5 472.5 c 128,-1,33
 165 455 165 455 152 435 c 1,34,-1
 152 475 l 2,35,36
 152 484 152 484 151.5 493.5 c 128,-1,37
 151 503 151 503 147.5 511.5 c 128,-1,38
 144 520 144 520 136.5 525 c 128,-1,39
 129 530 129 530 115 530 c 256,40,41
 101 530 101 530 93 525 c 128,-1,42
 85 520 85 520 81.5 511.5 c 128,-1,43
 78 503 78 503 77.5 493.5 c 128,-1,44
 77 484 77 484 77 475 c 2,45,-1
 77 59 l 2,0,1
EndSplineSet
Validated: 9
EndChar

StartChar: s
Encoding: 115 115 83
Width: 510
GlyphClass: 1
Flags: W
LayerCount: 2
Fore
SplineSet
467 151 m 0,0,1
 467 191 467 191 449 217.5 c 128,-1,2
 431 244 431 244 403.5 261 c 128,-1,3
 376 278 376 278 343.5 288 c 128,-1,4
 311 298 311 298 281 304 c 0,5,6
 236 314 236 314 207 323.5 c 128,-1,7
 178 333 178 333 161.5 344 c 128,-1,8
 145 355 145 355 138.5 367.5 c 128,-1,9
 132 380 132 380 132 395 c 0,10,11
 132 430 132 430 164.5 449 c 128,-1,12
 197 468 197 468 245 468 c 0,13,14
 295 468 295 468 322 450 c 128,-1,15
 349 432 349 432 360 408 c 0,16,17
 370 387 370 387 377.5 378 c 128,-1,18
 385 369 385 369 403 369 c 0,19,20
 416 369 416 369 423 373.5 c 128,-1,21
 430 378 430 378 434 384 c 128,-1,22
 438 390 438 390 439 396 c 128,-1,23
 440 402 440 402 440 405 c 0,24,25
 440 412 440 412 433 432.5 c 128,-1,26
 426 453 426 453 405 474.5 c 128,-1,27
 384 496 384 496 345.5 513 c 128,-1,28
 307 530 307 530 243 530 c 0,29,30
 205 530 205 530 176 523.5 c 128,-1,31
 147 517 147 517 125 505 c 0,32,33
 89 485 89 485 69 451 c 128,-1,34
 49 417 49 417 49 382 c 0,35,36
 49 351 49 351 62.5 327.5 c 128,-1,37
 76 304 76 304 94 289 c 0,38,39
 105 280 105 280 116.5 273 c 128,-1,40
 128 266 128 266 146 259 c 128,-1,41
 164 252 164 252 190.5 244 c 128,-1,42
 217 236 217 236 257 226 c 0,43,44
 276 221 276 221 297.5 215 c 128,-1,45
 319 209 319 209 336 198.5 c 128,-1,46
 353 188 353 188 364.5 172.5 c 128,-1,47
 376 157 376 157 376 133 c 0,48,49
 376 101 376 101 345.5 75.5 c 128,-1,50
 315 50 315 50 255 50 c 256,51,52
 195 50 195 50 164.5 74 c 128,-1,53
 134 98 134 98 119 133 c 0,54,55
 113 147 113 147 104.5 157 c 128,-1,56
 96 167 96 167 79 167 c 0,57,58
 63 167 63 167 52 156 c 128,-1,59
 41 145 41 145 41 131 c 0,60,61
 41 104 41 104 55.5 81 c 128,-1,62
 70 58 70 58 85 43 c 0,63,64
 113 16 113 16 151.5 2 c 128,-1,65
 190 -12 190 -12 249 -12 c 0,66,67
 322 -12 322 -12 365.5 7 c 128,-1,68
 409 26 409 26 431.5 52.5 c 128,-1,69
 454 79 454 79 460.5 106.5 c 128,-1,70
 467 134 467 134 467 151 c 0,0,1
EndSplineSet
Validated: 9
EndChar

StartChar: t
Encoding: 116 116 84
Width: 302
GlyphClass: 1
Flags: W
LayerCount: 2
Fore
SplineSet
90 518 m 1,0,-1
 65 518 l 2,1,2
 61 518 61 518 53 517.5 c 128,-1,3
 45 517 45 517 37.5 514 c 128,-1,4
 30 511 30 511 24 505 c 128,-1,5
 18 499 18 499 18 487 c 0,6,7
 18 486 18 486 18.5 481 c 128,-1,8
 19 476 19 476 23 470 c 128,-1,9
 27 464 27 464 34.5 459.5 c 128,-1,10
 42 455 42 455 57 455 c 2,11,-1
 90 455 l 1,12,-1
 90 140 l 2,13,14
 90 116 90 116 92 89.5 c 128,-1,15
 94 63 94 63 105.5 41.5 c 128,-1,16
 117 20 117 20 141.5 5.5 c 128,-1,17
 166 -9 166 -9 212 -9 c 0,18,19
 232 -9 232 -9 250 -7 c 128,-1,20
 268 -5 268 -5 281.5 0 c 128,-1,21
 295 5 295 5 302.5 13 c 128,-1,22
 310 21 310 21 310 34 c 0,23,24
 310 49 310 49 301.5 57 c 128,-1,25
 293 65 293 65 280 65 c 0,26,27
 277 65 277 65 270 64 c 128,-1,28
 263 63 263 63 255 62 c 128,-1,29
 247 61 247 61 239.5 60 c 128,-1,30
 232 59 232 59 229 59 c 0,31,32
 211 59 211 59 200.5 65.5 c 128,-1,33
 190 72 190 72 184.5 83.5 c 128,-1,34
 179 95 179 95 178 111 c 128,-1,35
 177 127 177 127 177 147 c 2,36,-1
 177 455 l 1,37,-1
 226 455 l 2,38,39
 246 455 246 455 261.5 462.5 c 128,-1,40
 277 470 277 470 277 487 c 0,41,42
 277 499 277 499 271.5 505 c 128,-1,43
 266 511 266 511 258 514 c 128,-1,44
 250 517 250 517 240.5 517.5 c 128,-1,45
 231 518 231 518 223 518 c 2,46,-1
 177 518 l 1,47,-1
 177 611 l 2,48,49
 177 625 177 625 176.5 638.5 c 128,-1,50
 176 652 176 652 171.5 663 c 128,-1,51
 167 674 167 674 158 681 c 128,-1,52
 149 688 149 688 133 688 c 0,53,54
 120 688 120 688 110.5 681.5 c 128,-1,55
 101 675 101 675 97 668 c 0,56,57
 92 658 92 658 91 646.5 c 128,-1,58
 90 635 90 635 90 606 c 2,59,-1
 90 518 l 1,0,-1
EndSplineSet
Validated: 9
EndChar

StartChar: u
Encoding: 117 117 85
Width: 573
GlyphClass: 1
Flags: W
LayerCount: 2
Fore
SplineSet
69 182 m 2,0,1
 69 152 69 152 73 125 c 128,-1,2
 77 98 77 98 94 64 c 0,3,4
 104 43 104 43 122 28.5 c 128,-1,5
 140 14 140 14 161 5 c 128,-1,6
 182 -4 182 -4 204.5 -8 c 128,-1,7
 227 -12 227 -12 247 -12 c 0,8,9
 284 -12 284 -12 311 -2.5 c 128,-1,10
 338 7 338 7 358 20.5 c 128,-1,11
 378 34 378 34 391.5 50 c 128,-1,12
 405 66 405 66 415 78 c 1,13,14
 415 45 415 45 416 31 c 128,-1,15
 417 17 417 17 422 7 c 0,16,17
 425 0 425 0 434.5 -6 c 128,-1,18
 444 -12 444 -12 457 -12 c 0,19,20
 467 -12 467 -12 474.5 -8.5 c 128,-1,21
 482 -5 482 -5 487 0 c 0,22,23
 496 8 496 8 497.5 22 c 128,-1,24
 499 36 499 36 499 57 c 2,25,-1
 499 458 l 2,26,27
 499 481 499 481 497.5 495 c 128,-1,28
 496 509 496 509 487 518 c 0,29,30
 472 530 472 530 455 530 c 0,31,32
 444 530 444 530 436.5 526 c 128,-1,33
 429 522 429 522 424 517 c 0,34,35
 415 509 415 509 413.5 494.5 c 128,-1,36
 412 480 412 480 412 458 c 2,37,-1
 412 296 l 2,38,39
 412 252 412 252 410 225 c 128,-1,40
 408 198 408 198 405 181 c 128,-1,41
 402 164 402 164 397.5 154.5 c 128,-1,42
 393 145 393 145 389 136 c 0,43,44
 372 104 372 104 337.5 84 c 128,-1,45
 303 64 303 64 265 64 c 0,46,47
 238 64 238 64 213 77.5 c 128,-1,48
 188 91 188 91 173 116 c 0,49,50
 160 137 160 137 158 163.5 c 128,-1,51
 156 190 156 190 156 216 c 2,52,-1
 156 458 l 2,53,54
 156 481 156 481 154.5 495 c 128,-1,55
 153 509 153 509 144 518 c 0,56,57
 130 530 130 530 113 530 c 0,58,59
 94 530 94 530 81 517 c 0,60,61
 72 509 72 509 70.5 495 c 128,-1,62
 69 481 69 481 69 458 c 2,63,-1
 69 182 l 2,0,1
EndSplineSet
Validated: 9
EndChar

StartChar: v
Encoding: 118 118 86
Width: 521
GlyphClass: 1
Flags: W
LayerCount: 2
Fore
SplineSet
261 99 m 1,0,-1
 119 476 l 2,1,2
 110 502 110 502 101 516 c 128,-1,3
 92 530 92 530 71 530 c 256,4,5
 50 530 50 530 39 517 c 128,-1,6
 28 504 28 504 28 492 c 0,7,8
 28 482 28 482 30.5 474 c 128,-1,9
 33 466 33 466 41 446 c 2,10,-1
 199 52 l 2,11,12
 211 23 211 23 222.5 5.5 c 128,-1,13
 234 -12 234 -12 261 -12 c 0,14,15
 287 -12 287 -12 298.5 5.5 c 128,-1,16
 310 23 310 23 322 52 c 2,17,-1
 480 446 l 2,18,19
 488 466 488 466 490.5 474 c 128,-1,20
 493 482 493 482 493 492 c 0,21,22
 493 503 493 503 482 516.5 c 128,-1,23
 471 530 471 530 450 530 c 256,24,25
 429 530 429 530 420 516 c 128,-1,26
 411 502 411 502 402 476 c 2,27,-1
 261 99 l 1,0,-1
EndSplineSet
Validated: 9
EndChar

StartChar: w
Encoding: 119 119 87
Width: 750
GlyphClass: 1
Flags: W
LayerCount: 2
Fore
SplineSet
375 401 m 1,0,-1
 470 60 l 2,1,2
 474 45 474 45 478.5 32 c 128,-1,3
 483 19 483 19 489.5 9.5 c 128,-1,4
 496 0 496 0 506 -6 c 128,-1,5
 516 -12 516 -12 531 -12 c 0,6,7
 560 -12 560 -12 570.5 6 c 128,-1,8
 581 24 581 24 592 57 c 2,9,-1
 725 450 l 2,10,11
 731 468 731 468 733 476 c 128,-1,12
 735 484 735 484 735 492 c 0,13,14
 735 506 735 506 723.5 518 c 128,-1,15
 712 530 712 530 695 530 c 0,16,17
 672 530 672 530 663.5 515.5 c 128,-1,18
 655 501 655 501 647 475 c 2,19,-1
 532 102 l 1,20,-1
 431 464 l 2,21,22
 423 493 423 493 413 511.5 c 128,-1,23
 403 530 403 530 375 530 c 256,24,25
 347 530 347 530 337 511.5 c 128,-1,26
 327 493 327 493 319 464 c 2,27,-1
 218 102 l 1,28,-1
 103 475 l 2,29,30
 95 501 95 501 86.5 515.5 c 128,-1,31
 78 530 78 530 55 530 c 0,32,33
 37 530 37 530 26 518 c 128,-1,34
 15 506 15 506 15 492 c 0,35,36
 15 484 15 484 17.5 476 c 128,-1,37
 20 468 20 468 25 450 c 2,38,-1
 158 57 l 2,39,40
 169 24 169 24 179.5 6 c 128,-1,41
 190 -12 190 -12 219 -12 c 0,42,43
 234 -12 234 -12 244 -6 c 128,-1,44
 254 0 254 0 260.5 9.5 c 128,-1,45
 267 19 267 19 271.5 32 c 128,-1,46
 276 45 276 45 280 60 c 2,47,-1
 375 401 l 1,0,-1
EndSplineSet
Validated: 9
EndChar

StartChar: x
Encoding: 120 120 88
Width: 510
GlyphClass: 1
Flags: W
LayerCount: 2
Fore
SplineSet
255 211 m 1,0,-1
 389 25 l 2,1,2
 409 -3 409 -3 420.5 -7.5 c 128,-1,3
 432 -12 432 -12 441 -12 c 0,4,5
 456 -12 456 -12 468.5 -1.5 c 128,-1,6
 481 9 481 9 481 25 c 0,7,8
 481 35 481 35 473.5 47.5 c 128,-1,9
 466 60 466 60 459 69 c 2,10,-1
 308 275 l 1,11,-1
 443 449 l 2,12,13
 460 471 460 471 463 480 c 128,-1,14
 466 489 466 489 466 495 c 0,15,16
 466 508 466 508 454.5 519 c 128,-1,17
 443 530 443 530 425 530 c 0,18,19
 417 530 417 530 405.5 525.5 c 128,-1,20
 394 521 394 521 374 493 c 2,21,-1
 255 333 l 1,22,-1
 134 493 l 2,23,24
 121 511 121 511 111.5 520.5 c 128,-1,25
 102 530 102 530 85 530 c 0,26,27
 63 530 63 530 53.5 517 c 128,-1,28
 44 504 44 504 44 493 c 0,29,30
 44 487 44 487 47 480 c 128,-1,31
 50 473 50 473 53.5 466.5 c 128,-1,32
 57 460 57 460 60.5 455 c 128,-1,33
 64 450 64 450 65 449 c 2,34,-1
 202 271 l 1,35,-1
 47 64 l 2,36,37
 34 46 34 46 31.5 38 c 128,-1,38
 29 30 29 30 29 25 c 0,39,40
 29 11 29 11 40 -0.5 c 128,-1,41
 51 -12 51 -12 70 -12 c 0,42,43
 87 -12 87 -12 97 -3 c 128,-1,44
 107 6 107 6 119 23 c 2,45,-1
 255 211 l 1,0,-1
EndSplineSet
Validated: 9
EndChar

StartChar: y
Encoding: 121 121 89
Width: 510
GlyphClass: 1
Flags: W
LayerCount: 2
Fore
SplineSet
210 0 m 1,0,-1
 183 -69 l 2,1,2
 172 -95 172 -95 157.5 -114 c 128,-1,3
 143 -133 143 -133 111 -133 c 0,4,5
 109 -133 109 -133 102.5 -132.5 c 128,-1,6
 96 -132 96 -132 89 -131.5 c 128,-1,7
 82 -131 82 -131 76 -130.5 c 128,-1,8
 70 -130 70 -130 67 -130 c 0,9,10
 50 -130 50 -130 41.5 -141.5 c 128,-1,11
 33 -153 33 -153 33 -165 c 0,12,13
 33 -180 33 -180 41.5 -188.5 c 128,-1,14
 50 -197 50 -197 62.5 -202 c 128,-1,15
 75 -207 75 -207 89.5 -208.5 c 128,-1,16
 104 -210 104 -210 117 -210 c 0,17,18
 148 -210 148 -210 170.5 -203 c 128,-1,19
 193 -196 193 -196 210.5 -180.5 c 128,-1,20
 228 -165 228 -165 241.5 -140.5 c 128,-1,21
 255 -116 255 -116 269 -82 c 2,22,-1
 477 451 l 2,23,24
 483 467 483 467 486 476.5 c 128,-1,25
 489 486 489 486 489 494 c 0,26,27
 489 504 489 504 479.5 517 c 128,-1,28
 470 530 470 530 450 530 c 0,29,30
 440 530 440 530 434 527.5 c 128,-1,31
 428 525 428 525 423 518.5 c 128,-1,32
 418 512 418 512 413 501 c 128,-1,33
 408 490 408 490 402 474 c 2,34,-1
 255 92 l 1,35,-1
 113 479 l 2,36,37
 105 501 105 501 96 515.5 c 128,-1,38
 87 530 87 530 65 530 c 0,39,40
 46 530 46 530 34 517 c 128,-1,41
 22 504 22 504 22 490 c 0,42,43
 22 481 22 481 25 472 c 128,-1,44
 28 463 28 463 33 449 c 2,45,-1
 210 0 l 1,0,-1
EndSplineSet
Validated: 9
EndChar

StartChar: z
Encoding: 122 122 90
Width: 510
GlyphClass: 1
Flags: W
LayerCount: 2
Fore
SplineSet
132 68 m 1,0,-1
 436 424 l 2,1,2
 455 446 455 446 462 456 c 128,-1,3
 469 466 469 466 469 478 c 0,4,5
 469 493 469 493 462 501 c 128,-1,6
 455 509 455 509 443.5 513 c 128,-1,7
 432 517 432 517 418 517.5 c 128,-1,8
 404 518 404 518 389 518 c 2,9,-1
 86 518 l 2,10,11
 76 518 76 518 66 517.5 c 128,-1,12
 56 517 56 517 47.5 514 c 128,-1,13
 39 511 39 511 34 504 c 128,-1,14
 29 497 29 497 29 484 c 256,15,16
 29 471 29 471 35.5 464 c 128,-1,17
 42 457 42 457 53.5 454 c 128,-1,18
 65 451 65 451 80.5 450.5 c 128,-1,19
 96 450 96 450 114 450 c 2,20,-1
 353 450 l 1,21,22
 350 444 350 444 347 438.5 c 128,-1,23
 344 433 344 433 338 424.5 c 128,-1,24
 332 416 332 416 321.5 404 c 128,-1,25
 311 392 311 392 294 373 c 2,26,-1
 37 86 l 2,27,28
 23 70 23 70 17.5 58.5 c 128,-1,29
 12 47 12 47 12 38 c 0,30,31
 12 22 12 22 20 14 c 128,-1,32
 28 6 28 6 39.5 3 c 128,-1,33
 51 0 51 0 62 0 c 0,34,35
 74 0 74 0 82 0 c 2,36,-1
 439 0 l 2,37,38
 449 0 449 0 459.5 0.5 c 128,-1,39
 470 1 470 1 478.5 4.5 c 128,-1,40
 487 8 487 8 492.5 15 c 128,-1,41
 498 22 498 22 498 36 c 0,42,43
 498 49 498 49 492.5 55.5 c 128,-1,44
 487 62 487 62 478.5 65 c 128,-1,45
 470 68 470 68 459 68 c 0,46,47
 449 68 449 68 439 68 c 2,48,-1
 132 68 l 1,0,-1
EndSplineSet
Validated: 9
EndChar

StartChar: braceleft
Encoding: 123 123 91
Width: 333
GlyphClass: 1
Flags: W
LayerCount: 2
Fore
SplineSet
109 259 m 1,0,1
 148 277 148 277 168.5 300 c 128,-1,2
 189 323 189 323 198.5 356.5 c 128,-1,3
 208 390 208 390 209.5 437 c 128,-1,4
 211 484 211 484 211 551 c 0,5,6
 211 569 211 569 212.5 587 c 128,-1,7
 214 605 214 605 220 619.5 c 128,-1,8
 226 634 226 634 237.5 642.5 c 128,-1,9
 249 651 249 651 270 651 c 0,10,11
 292 651 292 651 301.5 658.5 c 128,-1,12
 311 666 311 666 311 694 c 0,13,14
 311 707 311 707 307 714 c 128,-1,15
 303 721 303 721 297 724 c 128,-1,16
 291 727 291 727 284.5 727.5 c 128,-1,17
 278 728 278 728 274 728 c 0,18,19
 221 728 221 728 192 710 c 128,-1,20
 163 692 163 692 149 663 c 128,-1,21
 135 634 135 634 132 597.5 c 128,-1,22
 129 561 129 561 129 525 c 0,23,24
 129 468 129 468 127.5 429 c 128,-1,25
 126 390 126 390 118.5 364.5 c 128,-1,26
 111 339 111 339 96 325 c 128,-1,27
 81 311 81 311 53 303 c 0,28,29
 34 298 34 298 31 287 c 128,-1,30
 28 276 28 276 28 259 c 256,31,32
 28 242 28 242 31 231 c 128,-1,33
 34 220 34 220 53 215 c 0,34,35
 81 208 81 208 96 194 c 128,-1,36
 111 180 111 180 118 153.5 c 128,-1,37
 125 127 125 127 126.5 86.5 c 128,-1,38
 128 46 128 46 129 -15 c 0,39,40
 129 -43 129 -43 131.5 -77 c 128,-1,41
 134 -111 134 -111 147.5 -140.5 c 128,-1,42
 161 -170 161 -170 189 -190 c 128,-1,43
 217 -210 217 -210 268 -210 c 0,44,45
 293 -210 293 -210 302 -202 c 128,-1,46
 311 -194 311 -194 311 -168 c 0,47,48
 311 -148 311 -148 301.5 -141 c 128,-1,49
 292 -134 292 -134 282 -133 c 0,50,51
 262 -133 262 -133 248.5 -129 c 128,-1,52
 235 -125 235 -125 226.5 -114 c 128,-1,53
 218 -103 218 -103 214.5 -83.5 c 128,-1,54
 211 -64 211 -64 211 -33 c 0,55,56
 211 31 211 31 210 78.5 c 128,-1,57
 209 126 209 126 199 160.5 c 128,-1,58
 189 195 189 195 168.5 219 c 128,-1,59
 148 243 148 243 109 259 c 1,0,1
EndSplineSet
Validated: 9
EndChar

StartChar: bar
Encoding: 124 124 92
Width: 260
GlyphClass: 1
Flags: W
LayerCount: 2
Fore
SplineSet
92 -161 m 2,0,1
 92 -173 92 -173 92.5 -182.5 c 128,-1,2
 93 -192 93 -192 97 -198 c 128,-1,3
 101 -204 101 -204 109.5 -207 c 128,-1,4
 118 -210 118 -210 134 -210 c 0,5,6
 159 -210 159 -210 164 -196 c 128,-1,7
 169 -182 169 -182 169 -161 c 2,8,-1
 169 679 l 2,9,10
 169 704 169 704 163 716 c 128,-1,11
 157 728 157 728 126 728 c 0,12,13
 113 728 113 728 106 724.5 c 128,-1,14
 99 721 99 721 96 714 c 128,-1,15
 93 707 93 707 92.5 698 c 128,-1,16
 92 689 92 689 92 679 c 2,17,-1
 92 -161 l 2,0,1
EndSplineSet
Validated: 9
EndChar

StartChar: braceright
Encoding: 125 125 93
Width: 333
GlyphClass: 1
Flags: W
LayerCount: 2
Fore
SplineSet
225 259 m 1,0,1
 186 241 186 241 165.5 218 c 128,-1,2
 145 195 145 195 135.5 161.5 c 128,-1,3
 126 128 126 128 124.5 81 c 128,-1,4
 123 34 123 34 123 -33 c 0,5,6
 123 -51 123 -51 121.5 -69 c 128,-1,7
 120 -87 120 -87 114 -101.5 c 128,-1,8
 108 -116 108 -116 96.5 -124.5 c 128,-1,9
 85 -133 85 -133 64 -133 c 0,10,11
 42 -133 42 -133 32.5 -140.5 c 128,-1,12
 23 -148 23 -148 23 -176 c 0,13,14
 23 -189 23 -189 27 -196 c 128,-1,15
 31 -203 31 -203 37 -206 c 128,-1,16
 43 -209 43 -209 49.5 -209.5 c 128,-1,17
 56 -210 56 -210 60 -210 c 0,18,19
 113 -210 113 -210 142 -192 c 128,-1,20
 171 -174 171 -174 185 -145 c 128,-1,21
 199 -116 199 -116 202 -79.5 c 128,-1,22
 205 -43 205 -43 205 -7 c 0,23,24
 205 50 205 50 206.5 89 c 128,-1,25
 208 128 208 128 215.5 153.5 c 128,-1,26
 223 179 223 179 238 193 c 128,-1,27
 253 207 253 207 281 215 c 0,28,29
 300 220 300 220 303 231 c 128,-1,30
 306 242 306 242 306 259 c 256,31,32
 306 276 306 276 303 287 c 128,-1,33
 300 298 300 298 281 303 c 0,34,35
 253 310 253 310 238 324 c 128,-1,36
 223 338 223 338 216 364.5 c 128,-1,37
 209 391 209 391 207.5 431.5 c 128,-1,38
 206 472 206 472 205 533 c 0,39,40
 205 561 205 561 202.5 595 c 128,-1,41
 200 629 200 629 186.5 658.5 c 128,-1,42
 173 688 173 688 145 708 c 128,-1,43
 117 728 117 728 66 728 c 0,44,45
 41 728 41 728 32 720 c 128,-1,46
 23 712 23 712 23 686 c 0,47,48
 23 666 23 666 32.5 659 c 128,-1,49
 42 652 42 652 52 651 c 0,50,51
 72 651 72 651 85.5 647 c 128,-1,52
 99 643 99 643 107.5 632 c 128,-1,53
 116 621 116 621 119.5 601.5 c 128,-1,54
 123 582 123 582 123 551 c 0,55,56
 123 487 123 487 124 439.5 c 128,-1,57
 125 392 125 392 135 357.5 c 128,-1,58
 145 323 145 323 165.5 299 c 128,-1,59
 186 275 186 275 225 259 c 1,0,1
EndSplineSet
Validated: 9
EndChar

StartChar: asciitilde
Encoding: 126 126 94
Width: 583
GlyphClass: 1
Flags: W
LayerCount: 2
Fore
SplineSet
42 272 m 1,0,1
 54 283 54 283 67 295 c 128,-1,2
 80 307 80 307 95.5 316.5 c 128,-1,3
 111 326 111 326 129 332 c 128,-1,4
 147 338 147 338 169 338 c 0,5,6
 198 338 198 338 225 328.5 c 128,-1,7
 252 319 252 319 287 303 c 0,8,9
 319 289 319 289 346.5 281 c 128,-1,10
 374 273 374 273 406 273 c 0,11,12
 457 273 457 273 488 291 c 128,-1,13
 519 309 519 309 541 329 c 1,14,-1
 541 432 l 1,15,16
 538 428 538 428 526.5 417 c 128,-1,17
 515 406 515 406 498 394.5 c 128,-1,18
 481 383 481 383 460 374 c 128,-1,19
 439 365 439 365 415 365 c 0,20,21
 404 365 404 365 394 366.5 c 128,-1,22
 384 368 384 368 372.5 372 c 128,-1,23
 361 376 361 376 346.5 382 c 128,-1,24
 332 388 332 388 311 397 c 0,25,26
 257 420 257 420 226 425.5 c 128,-1,27
 195 431 195 431 178 431 c 0,28,29
 162 431 162 431 144.5 428 c 128,-1,30
 127 425 127 425 109 418.5 c 128,-1,31
 91 412 91 412 74 400.5 c 128,-1,32
 57 389 57 389 42 372 c 1,33,-1
 42 272 l 1,0,1
EndSplineSet
Validated: 9
EndChar

StartChar: dieresis
Encoding: 168 168 95
Width: 333
GlyphClass: 1
Flags: W
LayerCount: 2
Fore
SplineSet
131 640 m 256,0,1
 131 660 131 660 117.5 673.5 c 128,-1,2
 104 687 104 687 84 687 c 256,3,4
 64 687 64 687 50.5 673.5 c 128,-1,5
 37 660 37 660 37 640 c 256,6,7
 37 620 37 620 50.5 606.5 c 128,-1,8
 64 593 64 593 84 593 c 256,9,10
 104 593 104 593 117.5 606.5 c 128,-1,11
 131 620 131 620 131 640 c 256,0,1
296 640 m 256,12,13
 296 660 296 660 282.5 673.5 c 128,-1,14
 269 687 269 687 249 687 c 256,15,16
 229 687 229 687 215.5 673.5 c 128,-1,17
 202 660 202 660 202 640 c 256,18,19
 202 620 202 620 215.5 606.5 c 128,-1,20
 229 593 229 593 249 593 c 256,21,22
 269 593 269 593 282.5 606.5 c 128,-1,23
 296 620 296 620 296 640 c 256,12,13
EndSplineSet
Validated: 9
EndChar

StartChar: copyright
Encoding: 169 169 96
Width: 740
GlyphClass: 1
Flags: W
LayerCount: 2
Fore
SplineSet
488 300 m 1,0,1
 480 268 480 268 464 249.5 c 128,-1,2
 448 231 448 231 429.5 221.5 c 128,-1,3
 411 212 411 212 394 209 c 128,-1,4
 377 206 377 206 367 206 c 0,5,6
 342 206 342 206 319.5 215 c 128,-1,7
 297 224 297 224 280.5 242.5 c 128,-1,8
 264 261 264 261 254 289.5 c 128,-1,9
 244 318 244 318 244 357 c 0,10,11
 244 384 244 384 251 412 c 128,-1,12
 258 440 258 440 273 462 c 128,-1,13
 288 484 288 484 312.5 498 c 128,-1,14
 337 512 337 512 372 512 c 0,15,16
 398 512 398 512 418 503.5 c 128,-1,17
 438 495 438 495 452 483 c 0,18,19
 466 470 466 470 472.5 458 c 128,-1,20
 479 446 479 446 483 437 c 1,21,-1
 541 451 l 1,22,23
 523 511 523 511 477 538.5 c 128,-1,24
 431 566 431 566 374 566 c 0,25,26
 281 566 281 566 229 510.5 c 128,-1,27
 177 455 177 455 177 359 c 0,28,29
 177 309 177 309 191.5 270 c 128,-1,30
 206 231 206 231 231.5 204 c 128,-1,31
 257 177 257 177 293 162.5 c 128,-1,32
 329 148 329 148 371 148 c 0,33,34
 400 148 400 148 428.5 156 c 128,-1,35
 457 164 457 164 480.5 180.5 c 128,-1,36
 504 197 504 197 522 222 c 128,-1,37
 540 247 540 247 548 282 c 1,38,-1
 488 300 l 1,0,1
370 728 m 256,39,40
 294 728 294 728 227 699.5 c 128,-1,41
 160 671 160 671 109.5 621 c 128,-1,42
 59 571 59 571 30 504 c 128,-1,43
 1 437 1 437 1 360 c 256,44,45
 1 283 1 283 30 216 c 128,-1,46
 59 149 59 149 109 99 c 128,-1,47
 159 49 159 49 226 20 c 128,-1,48
 293 -9 293 -9 370 -9 c 0,49,50
 446 -9 446 -9 513.5 20 c 128,-1,51
 581 49 581 49 631 99.5 c 128,-1,52
 681 150 681 150 710 217 c 128,-1,53
 739 284 739 284 739 360 c 256,54,55
 739 436 739 436 710 503.5 c 128,-1,56
 681 571 681 571 630.5 620.5 c 128,-1,57
 580 670 580 670 513 699 c 128,-1,58
 446 728 446 728 370 728 c 256,39,40
370 666 m 256,59,60
 433 666 433 666 489 642 c 128,-1,61
 545 618 545 618 586.5 577 c 128,-1,62
 628 536 628 536 652.5 480 c 128,-1,63
 677 424 677 424 677 360 c 256,64,65
 677 296 677 296 653 240 c 128,-1,66
 629 184 629 184 587.5 142.5 c 128,-1,67
 546 101 546 101 490 77 c 128,-1,68
 434 53 434 53 370 53 c 256,69,70
 306 53 306 53 250 77 c 128,-1,71
 194 101 194 101 152.5 142.5 c 128,-1,72
 111 184 111 184 87 240 c 128,-1,73
 63 296 63 296 63 360 c 256,74,75
 63 424 63 424 87.5 480 c 128,-1,76
 112 536 112 536 153.5 577 c 128,-1,77
 195 618 195 618 251 642 c 128,-1,78
 307 666 307 666 370 666 c 256,59,60
EndSplineSet
Validated: 9
EndChar

StartChar: acute
Encoding: 180 180 97
Width: 333
GlyphClass: 1
Flags: W
LayerCount: 2
Fore
SplineSet
121 623 m 2,0,1
 115 612 115 612 113 607 c 128,-1,2
 111 602 111 602 111 597 c 256,3,4
 111 592 111 592 116.5 585.5 c 128,-1,5
 122 579 122 579 133 579 c 0,6,7
 142 579 142 579 151.5 584 c 128,-1,8
 161 589 161 589 174 601 c 128,-1,9
 187 613 187 613 204.5 631.5 c 128,-1,10
 222 650 222 650 248 677 c 0,11,12
 265 695 265 695 268.5 700 c 128,-1,13
 272 705 272 705 272 710 c 256,14,15
 272 715 272 715 265.5 716.5 c 128,-1,16
 259 718 259 718 242 718 c 2,17,-1
 218 718 l 2,18,19
 201 718 201 718 191 717.5 c 128,-1,20
 181 717 181 717 174 712.5 c 128,-1,21
 167 708 167 708 161 698.5 c 128,-1,22
 155 689 155 689 146 672 c 2,23,-1
 121 623 l 2,0,1
EndSplineSet
Validated: 9
EndChar

StartChar: AE
Encoding: 198 198 104
Width: 1000
GlyphClass: 1
Flags: W
LayerCount: 2
Fore
SplineSet
188 202 m 1,0,-1
 478 202 l 1,1,-1
 478 80 l 2,2,3
 478 52 478 52 481 36 c 128,-1,4
 484 20 484 20 492.5 12 c 128,-1,5
 501 4 501 4 517 2 c 128,-1,6
 533 0 533 0 559 0 c 2,7,-1
 889 0 l 2,8,9
 901 0 901 0 912.5 0.5 c 128,-1,10
 924 1 924 1 933.5 5 c 128,-1,11
 943 9 943 9 949 16.5 c 128,-1,12
 955 24 955 24 955 39 c 256,13,14
 955 54 955 54 949 61.5 c 128,-1,15
 943 69 943 69 933.5 72.5 c 128,-1,16
 924 76 924 76 912 76.5 c 128,-1,17
 900 77 900 77 889 77 c 2,18,-1
 574 77 l 1,19,-1
 574 332 l 1,20,-1
 853 332 l 2,21,22
 864 332 864 332 875.5 332.5 c 128,-1,23
 887 333 887 333 896.5 336.5 c 128,-1,24
 906 340 906 340 912 347.5 c 128,-1,25
 918 355 918 355 918 370 c 256,26,27
 918 385 918 385 912 392.5 c 128,-1,28
 906 400 906 400 896.5 404 c 128,-1,29
 887 408 887 408 875.5 408.5 c 128,-1,30
 864 409 864 409 853 409 c 2,31,-1
 574 409 l 1,32,-1
 574 639 l 1,33,-1
 878 639 l 2,34,35
 889 639 889 639 900.5 639.5 c 128,-1,36
 912 640 912 640 921.5 643.5 c 128,-1,37
 931 647 931 647 937 654.5 c 128,-1,38
 943 662 943 662 943 677 c 256,39,40
 943 692 943 692 937 699.5 c 128,-1,41
 931 707 931 707 921.5 711 c 128,-1,42
 912 715 912 715 900.5 715.5 c 128,-1,43
 889 716 889 716 878 716 c 2,44,-1
 393 716 l 2,45,46
 369 716 369 716 356 715 c 128,-1,47
 343 714 343 714 335 709 c 128,-1,48
 327 704 327 704 320.5 692 c 128,-1,49
 314 680 314 680 304 659 c 2,50,-1
 30 80 l 2,51,52
 21 60 21 60 17 50.5 c 128,-1,53
 13 41 13 41 13 30 c 0,54,55
 13 27 13 27 15 20 c 128,-1,56
 17 13 17 13 22 6 c 128,-1,57
 27 -1 27 -1 36 -6.5 c 128,-1,58
 45 -12 45 -12 59 -12 c 0,59,60
 70 -12 70 -12 77.5 -9.5 c 128,-1,61
 85 -7 85 -7 91 0 c 128,-1,62
 97 7 97 7 103.5 19.5 c 128,-1,63
 110 32 110 32 119 52 c 2,64,-1
 188 202 l 1,0,-1
223 279 m 1,65,-1
 389 641 l 1,66,-1
 478 641 l 1,67,-1
 478 279 l 1,68,-1
 223 279 l 1,65,-1
EndSplineSet
Validated: 9
EndChar

StartChar: Ccedilla
Encoding: 199 199 105
Width: 729
GlyphClass: 1
Flags: W
LayerCount: 2
Fore
SplineSet
394 -12 m 1,0,1
 446 -12 446 -12 487 1 c 128,-1,2
 528 14 528 14 559.5 35.5 c 128,-1,3
 591 57 591 57 613 83 c 128,-1,4
 635 109 635 109 649.5 135.5 c 128,-1,5
 664 162 664 162 670.5 185.5 c 128,-1,6
 677 209 677 209 677 224 c 0,7,8
 677 241 677 241 664.5 252 c 128,-1,9
 652 263 652 263 636 263 c 0,10,11
 615 263 615 263 606.5 249.5 c 128,-1,12
 598 236 598 236 593 222 c 0,13,14
 567 147 567 147 515 106 c 128,-1,15
 463 65 463 65 385 65 c 0,16,17
 350 65 350 65 309 77 c 128,-1,18
 268 89 268 89 233.5 121.5 c 128,-1,19
 199 154 199 154 176 210 c 128,-1,20
 153 266 153 266 153 354 c 256,21,22
 153 442 153 442 176.5 499.5 c 128,-1,23
 200 557 200 557 235.5 590.5 c 128,-1,24
 271 624 271 624 313 637.5 c 128,-1,25
 355 651 355 651 393 651 c 0,26,27
 430 651 430 651 454.5 642 c 128,-1,28
 479 633 479 633 495 623 c 0,29,30
 518 609 518 609 538 587.5 c 128,-1,31
 558 566 558 566 572 540 c 0,32,33
 577 530 577 530 583 519.5 c 128,-1,34
 589 509 589 509 596.5 500.5 c 128,-1,35
 604 492 604 492 612.5 486.5 c 128,-1,36
 621 481 621 481 632 481 c 0,37,38
 652 481 652 481 661.5 495 c 128,-1,39
 671 509 671 509 671 523 c 0,40,41
 671 532 671 532 664.5 550.5 c 128,-1,42
 658 569 658 569 644.5 591.5 c 128,-1,43
 631 614 631 614 609 638.5 c 128,-1,44
 587 663 587 663 555.5 682.5 c 128,-1,45
 524 702 524 702 482.5 715 c 128,-1,46
 441 728 441 728 389 728 c 0,47,48
 316 728 316 728 254.5 701.5 c 128,-1,49
 193 675 193 675 149 626.5 c 128,-1,50
 105 578 105 578 80 510 c 128,-1,51
 55 442 55 442 55 358 c 0,52,53
 55 277 55 277 81 201 c 128,-1,54
 107 125 107 125 157 74 c 0,55,56
 193 36 193 36 238.5 17 c 128,-1,57
 284 -2 284 -2 350 -10 c 1,58,59
 330 -24 330 -24 322.5 -31 c 128,-1,60
 315 -38 315 -38 315 -47 c 0,61,62
 315 -60 315 -60 325 -68.5 c 128,-1,63
 335 -77 335 -77 343 -77 c 0,64,65
 345 -77 345 -77 351.5 -75.5 c 128,-1,66
 358 -74 358 -74 360 -74 c 0,67,68
 372 -74 372 -74 387 -85 c 128,-1,69
 402 -96 402 -96 402 -113 c 0,70,71
 402 -127 402 -127 391 -138 c 128,-1,72
 380 -149 380 -149 362.5 -151 c 128,-1,73
 345 -153 345 -153 312 -154 c 0,74,75
 283 -156 283 -156 268.5 -160 c 128,-1,76
 254 -164 254 -164 254 -178 c 0,77,78
 254 -188 254 -188 262 -193.5 c 128,-1,79
 270 -199 270 -199 280.5 -201.5 c 128,-1,80
 291 -204 291 -204 301 -204.5 c 128,-1,81
 311 -205 311 -205 315 -205 c 0,82,83
 323 -205 323 -205 349 -203.5 c 128,-1,84
 375 -202 375 -202 403 -193.5 c 128,-1,85
 431 -185 431 -185 453 -166.5 c 128,-1,86
 475 -148 475 -148 475 -114 c 0,87,88
 475 -92 475 -92 465 -78 c 128,-1,89
 455 -64 455 -64 441 -55.5 c 128,-1,90
 427 -47 427 -47 412 -43 c 128,-1,91
 397 -39 397 -39 387 -37 c 1,92,-1
 394 -12 l 1,0,1
EndSplineSet
Validated: 9
EndChar

StartChar: Eth
Encoding: 208 208 114
Width: 729
GlyphClass: 1
Flags: W
LayerCount: 2
Fore
SplineSet
85 326 m 1,0,-1
 85 92 l 2,1,2
 85 66 85 66 86 48 c 128,-1,3
 87 30 87 30 93.5 19.5 c 128,-1,4
 100 9 100 9 114 4.5 c 128,-1,5
 128 0 128 0 154 0 c 0,6,7
 220 0 220 0 267 0 c 256,8,9
 314 0 314 0 346 0.5 c 128,-1,10
 378 1 378 1 398.5 2.5 c 128,-1,11
 419 4 419 4 433.5 6 c 128,-1,12
 448 8 448 8 459.5 11 c 128,-1,13
 471 14 471 14 485 19 c 0,14,15
 548 41 548 41 586 84 c 128,-1,16
 624 127 624 127 643.5 176.5 c 128,-1,17
 663 226 663 226 669 275 c 128,-1,18
 675 324 675 324 675 359 c 0,19,20
 675 430 675 430 658 498 c 128,-1,21
 641 566 641 566 596 620 c 0,22,23
 567 655 567 655 534 674.5 c 128,-1,24
 501 694 501 694 467.5 703 c 128,-1,25
 434 712 434 712 401.5 714 c 128,-1,26
 369 716 369 716 340 716 c 2,27,-1
 166 716 l 2,28,29
 139 716 139 716 123 713.5 c 128,-1,30
 107 711 107 711 98.5 703 c 128,-1,31
 90 695 90 695 87.5 679 c 128,-1,32
 85 663 85 663 85 636 c 2,33,-1
 85 390 l 1,34,-1
 54 390 l 2,35,36
 35 390 35 390 20 386 c 128,-1,37
 5 382 5 382 5 358 c 256,38,39
 5 334 5 334 20 330 c 128,-1,40
 35 326 35 326 54 326 c 2,41,-1
 85 326 l 1,0,-1
330 326 m 2,42,43
 349 326 349 326 364 330 c 128,-1,44
 379 334 379 334 379 358 c 256,45,46
 379 382 379 382 364 386 c 128,-1,47
 349 390 349 390 330 390 c 2,48,-1
 181 390 l 1,49,-1
 181 639 l 1,50,-1
 323 639 l 2,51,52
 363 639 363 639 392.5 635.5 c 128,-1,53
 422 632 422 632 445 623.5 c 128,-1,54
 468 615 468 615 485.5 601 c 128,-1,55
 503 587 503 587 519 566 c 0,56,57
 542 536 542 536 559.5 481 c 128,-1,58
 577 426 577 426 577 354 c 0,59,60
 577 347 577 347 576 323.5 c 128,-1,61
 575 300 575 300 569.5 269.5 c 128,-1,62
 564 239 564 239 552.5 206.5 c 128,-1,63
 541 174 541 174 519 148 c 0,64,65
 501 126 501 126 481.5 112.5 c 128,-1,66
 462 99 462 99 439.5 91 c 128,-1,67
 417 83 417 83 390 80 c 128,-1,68
 363 77 363 77 329 77 c 2,69,-1
 181 77 l 1,70,-1
 181 326 l 1,71,-1
 330 326 l 2,42,43
EndSplineSet
Validated: 9
EndChar

StartChar: multiply
Encoding: 215 215 121
Width: 583
GlyphClass: 1
Flags: W
LayerCount: 2
Fore
SplineSet
79 200 m 1,0,-1
 137 141 l 1,1,-1
 291 295 l 1,2,-1
 445 141 l 1,3,-1
 504 201 l 1,4,-1
 351 354 l 1,5,-1
 504 507 l 1,6,-1
 445 566 l 1,7,-1
 292 413 l 1,8,-1
 139 567 l 1,9,-1
 79 507 l 1,10,-1
 233 353 l 1,11,-1
 79 200 l 1,0,-1
EndSplineSet
Validated: 9
EndChar

StartChar: Oslash
Encoding: 216 216 122
Width: 781
GlyphClass: 1
Flags: W
LayerCount: 2
Fore
SplineSet
164 65 m 1,0,1
 195 36 195 36 231 20.5 c 128,-1,2
 267 5 267 5 300 -2 c 128,-1,3
 333 -9 333 -9 358.5 -10.5 c 128,-1,4
 384 -12 384 -12 393 -12 c 0,5,6
 458 -12 458 -12 508.5 4.5 c 128,-1,7
 559 21 559 21 596.5 49 c 128,-1,8
 634 77 634 77 659.5 114.5 c 128,-1,9
 685 152 685 152 700.5 193.5 c 128,-1,10
 716 235 716 235 723 278 c 128,-1,11
 730 321 730 321 730 360 c 0,12,13
 730 401 730 401 723 438.5 c 128,-1,14
 716 476 716 476 705.5 507.5 c 128,-1,15
 695 539 695 539 682 563.5 c 128,-1,16
 669 588 669 588 657 605 c 1,17,-1
 716 669 l 2,18,19
 718 672 718 672 724 680 c 128,-1,20
 730 688 730 688 730 702 c 0,21,22
 730 711 730 711 721.5 719.5 c 128,-1,23
 713 728 713 728 702 728 c 256,24,25
 691 728 691 728 683.5 722 c 128,-1,26
 676 716 676 716 663 702 c 2,27,-1
 616 650 l 1,28,29
 591 673 591 673 563.5 688 c 128,-1,30
 536 703 536 703 507 712 c 128,-1,31
 478 721 478 721 449 724.5 c 128,-1,32
 420 728 420 728 392 728 c 0,33,34
 325 728 325 728 273.5 711.5 c 128,-1,35
 222 695 222 695 184.5 667 c 128,-1,36
 147 639 147 639 121 601.5 c 128,-1,37
 95 564 95 564 79.5 523 c 128,-1,38
 64 482 64 482 57.5 439.5 c 128,-1,39
 51 397 51 397 51 358 c 0,40,41
 51 304 51 304 60 262.5 c 128,-1,42
 69 221 69 221 81 190.5 c 128,-1,43
 93 160 93 160 105 140.5 c 128,-1,44
 117 121 117 121 124 111 c 1,45,-1
 65 46 l 2,46,47
 60 41 60 41 55.5 33.5 c 128,-1,48
 51 26 51 26 51 15 c 0,49,50
 51 10 51 10 56.5 -1 c 128,-1,51
 62 -12 62 -12 79 -12 c 0,52,53
 90 -12 90 -12 96.5 -7 c 128,-1,54
 103 -2 103 -2 117 13 c 2,55,-1
 164 65 l 1,0,1
592 533 m 1,56,57
 605 509 605 509 613 483.5 c 128,-1,58
 621 458 621 458 625.5 434 c 128,-1,59
 630 410 630 410 631 390 c 128,-1,60
 632 370 632 370 632 358 c 0,61,62
 632 268 632 268 605.5 210.5 c 128,-1,63
 579 153 579 153 541.5 121 c 128,-1,64
 504 89 504 89 462 77 c 128,-1,65
 420 65 420 65 390 65 c 0,66,67
 350 65 350 65 307 80.5 c 128,-1,68
 264 96 264 96 226 133 c 1,69,-1
 592 533 l 1,56,57
189 182 m 1,70,71
 178 202 178 202 163.5 246.5 c 128,-1,72
 149 291 149 291 149 354 c 0,73,74
 149 444 149 444 174.5 502 c 128,-1,75
 200 560 200 560 237 593 c 128,-1,76
 274 626 274 626 315.5 638.5 c 128,-1,77
 357 651 357 651 389 651 c 0,78,79
 424 651 424 651 468.5 637 c 128,-1,80
 513 623 513 623 554 582 c 1,81,-1
 189 182 l 1,70,71
EndSplineSet
Validated: 9
EndChar

StartChar: Thorn
Encoding: 222 222 128
Width: 635
GlyphClass: 1
Flags: W
LayerCount: 2
Fore
SplineSet
183 147 m 1,0,-1
 346 147 l 2,1,2
 378 147 378 147 402 150.5 c 128,-1,3
 426 154 426 154 443.5 159.5 c 128,-1,4
 461 165 461 165 473 170.5 c 128,-1,5
 485 176 485 176 493 180 c 0,6,7
 518 193 518 193 536.5 213.5 c 128,-1,8
 555 234 555 234 567 258.5 c 128,-1,9
 579 283 579 283 584.5 309.5 c 128,-1,10
 590 336 590 336 590 361 c 0,11,12
 590 414 590 414 570 457 c 128,-1,13
 550 500 550 500 514 527 c 0,14,15
 479 554 479 554 435.5 561.5 c 128,-1,16
 392 569 392 569 347 569 c 2,17,-1
 183 569 l 1,18,-1
 183 649 l 2,19,20
 183 672 183 672 181.5 688 c 128,-1,21
 180 704 180 704 170 713 c 0,22,23
 163 721 163 721 153.5 724.5 c 128,-1,24
 144 728 144 728 135 728 c 0,25,26
 122 728 122 728 113 723 c 128,-1,27
 104 718 104 718 99 713 c 0,28,29
 90 704 90 704 88.5 688 c 128,-1,30
 87 672 87 672 87 648 c 2,31,-1
 87 67 l 2,32,33
 87 44 87 44 88.5 28 c 128,-1,34
 90 12 90 12 99 3 c 0,35,36
 114 -12 114 -12 138 -12 c 0,37,38
 155 -12 155 -12 164 -4.5 c 128,-1,39
 173 3 173 3 177.5 14.5 c 128,-1,40
 182 26 182 26 182.5 40 c 128,-1,41
 183 54 183 54 183 67 c 2,42,-1
 183 147 l 1,0,-1
321 492 m 2,43,44
 336 492 336 492 354.5 491 c 128,-1,45
 373 490 373 490 391.5 486.5 c 128,-1,46
 410 483 410 483 427 475 c 128,-1,47
 444 467 444 467 457 454 c 0,48,49
 475 435 475 435 483.5 409.5 c 128,-1,50
 492 384 492 384 492 359 c 0,51,52
 492 311 492 311 473 284 c 128,-1,53
 454 257 454 257 427 243.5 c 128,-1,54
 400 230 400 230 370.5 227 c 128,-1,55
 341 224 341 224 321 224 c 2,56,-1
 183 224 l 1,57,-1
 183 492 l 1,58,-1
 321 492 l 2,43,44
EndSplineSet
Validated: 9
EndChar

StartChar: germandbls
Encoding: 223 223 129
Width: 531
GlyphClass: 1
Flags: W
LayerCount: 2
Fore
SplineSet
140 510 m 2,0,1
 140 535 140 535 143 561 c 128,-1,2
 146 587 146 587 157.5 608.5 c 128,-1,3
 169 630 169 630 190.5 644 c 128,-1,4
 212 658 212 658 250 658 c 0,5,6
 263 658 263 658 278 654.5 c 128,-1,7
 293 651 293 651 306 643 c 128,-1,8
 319 635 319 635 327.5 621.5 c 128,-1,9
 336 608 336 608 336 588 c 0,10,11
 336 565 336 565 321.5 536 c 128,-1,12
 307 507 307 507 293 484 c 0,13,14
 278 459 278 459 263.5 430 c 128,-1,15
 249 401 249 401 249 376 c 0,16,17
 249 345 249 345 268 320.5 c 128,-1,18
 287 296 287 296 324 267 c 0,19,20
 368 233 368 233 393.5 204.5 c 128,-1,21
 419 176 419 176 419 141 c 0,22,23
 419 125 419 125 412.5 110 c 128,-1,24
 406 95 406 95 395.5 83.5 c 128,-1,25
 385 72 385 72 370 65 c 128,-1,26
 355 58 355 58 339 58 c 0,27,28
 316 58 316 58 298.5 71.5 c 128,-1,29
 281 85 281 85 270 99 c 0,30,31
 258 114 258 114 251 117.5 c 128,-1,32
 244 121 244 121 236 121 c 0,33,34
 225 121 225 121 217.5 117 c 128,-1,35
 210 113 210 113 205.5 107 c 128,-1,36
 201 101 201 101 199 95 c 128,-1,37
 197 89 197 89 197 85 c 0,38,39
 197 73 197 73 207.5 56.5 c 128,-1,40
 218 40 218 40 237 24.5 c 128,-1,41
 256 9 256 9 283 -1.5 c 128,-1,42
 310 -12 310 -12 343 -12 c 0,43,44
 378 -12 378 -12 407.5 0.5 c 128,-1,45
 437 13 437 13 458 35 c 128,-1,46
 479 57 479 57 491 86 c 128,-1,47
 503 115 503 115 503 147 c 0,48,49
 503 162 503 162 500 179.5 c 128,-1,50
 497 197 497 197 486 218 c 128,-1,51
 475 239 475 239 453 264 c 128,-1,52
 431 289 431 289 394 318 c 0,53,54
 374 334 374 334 357.5 351.5 c 128,-1,55
 341 369 341 369 341 395 c 0,56,57
 341 401 341 401 342.5 407 c 128,-1,58
 344 413 344 413 348 422 c 128,-1,59
 352 431 352 431 359.5 444 c 128,-1,60
 367 457 367 457 379 477 c 0,61,62
 395 503 395 503 404 521.5 c 128,-1,63
 413 540 413 540 417 553.5 c 128,-1,64
 421 567 421 567 422 576 c 128,-1,65
 423 585 423 585 423 592 c 0,66,67
 423 616 423 616 413.5 640 c 128,-1,68
 404 664 404 664 383.5 683.5 c 128,-1,69
 363 703 363 703 330 715.5 c 128,-1,70
 297 728 297 728 251 728 c 0,71,72
 232 728 232 728 211 725 c 128,-1,73
 190 722 190 722 169 714.5 c 128,-1,74
 148 707 148 707 128 693 c 128,-1,75
 108 679 108 679 91 658 c 0,76,77
 69 630 69 630 61 594.5 c 128,-1,78
 53 559 53 559 53 517 c 2,79,-1
 53 59 l 2,80,81
 53 37 53 37 54.5 23 c 128,-1,82
 56 9 56 9 65 0 c 0,83,84
 73 -8 73 -8 81 -10 c 128,-1,85
 89 -12 89 -12 96 -12 c 0,86,87
 115 -12 115 -12 127 0 c 0,88,89
 135 8 135 8 137.5 22.5 c 128,-1,90
 140 37 140 37 140 59 c 2,91,-1
 140 510 l 2,0,1
EndSplineSet
Validated: 9
EndChar

StartChar: ae
Encoding: 230 230 136
Width: 896
GlyphClass: 1
Flags: W
LayerCount: 2
Fore
SplineSet
392 325 m 1,0,1
 368 318 368 318 351.5 313.5 c 128,-1,2
 335 309 335 309 320 305 c 128,-1,3
 305 301 305 301 287.5 298 c 128,-1,4
 270 295 270 295 244 291 c 0,5,6
 215 286 215 286 182.5 279 c 128,-1,7
 150 272 150 272 118 258 c 0,8,9
 91 246 91 246 66.5 213.5 c 128,-1,10
 42 181 42 181 42 133 c 0,11,12
 42 109 42 109 50.5 83.5 c 128,-1,13
 59 58 59 58 79 37 c 128,-1,14
 99 16 99 16 131.5 2 c 128,-1,15
 164 -12 164 -12 211 -12 c 0,16,17
 251 -12 251 -12 284.5 -3 c 128,-1,18
 318 6 318 6 345.5 20 c 128,-1,19
 373 34 373 34 394.5 50.5 c 128,-1,20
 416 67 416 67 433 82 c 1,21,22
 441 71 441 71 454 55 c 128,-1,23
 467 39 467 39 490 24 c 128,-1,24
 513 9 513 9 547 -1.5 c 128,-1,25
 581 -12 581 -12 631 -12 c 0,26,27
 685 -12 685 -12 724.5 4.5 c 128,-1,28
 764 21 764 21 790.5 45 c 128,-1,29
 817 69 817 69 830 96 c 128,-1,30
 843 123 843 123 843 144 c 0,31,32
 843 167 843 167 830.5 173 c 128,-1,33
 818 179 818 179 810 179 c 0,34,35
 787 179 787 179 776 156 c 0,36,37
 770 142 770 142 761 124 c 128,-1,38
 752 106 752 106 735.5 90 c 128,-1,39
 719 74 719 74 693.5 63 c 128,-1,40
 668 52 668 52 629 52 c 0,41,42
 587 52 587 52 558 67.5 c 128,-1,43
 529 83 529 83 511 109.5 c 128,-1,44
 493 136 493 136 485 170 c 128,-1,45
 477 204 477 204 476 242 c 1,46,-1
 772 242 l 2,47,48
 789 242 789 242 804 243 c 128,-1,49
 819 244 819 244 829.5 249 c 128,-1,50
 840 254 840 254 846 265.5 c 128,-1,51
 852 277 852 277 852 298 c 0,52,53
 852 334 852 334 839 375 c 128,-1,54
 826 416 826 416 797.5 450.5 c 128,-1,55
 769 485 769 485 725 507.5 c 128,-1,56
 681 530 681 530 618 530 c 0,57,58
 581 530 581 530 553 522 c 128,-1,59
 525 514 525 514 505 502.5 c 128,-1,60
 485 491 485 491 472 479 c 128,-1,61
 459 467 459 467 451 459 c 1,62,63
 445 469 445 469 435 481 c 128,-1,64
 425 493 425 493 406 504 c 128,-1,65
 387 515 387 515 356 522.5 c 128,-1,66
 325 530 325 530 277 530 c 0,67,68
 257 530 257 530 234.5 528 c 128,-1,69
 212 526 212 526 188.5 520 c 128,-1,70
 165 514 165 514 142.5 503 c 128,-1,71
 120 492 120 492 101 474 c 0,72,73
 77 451 77 451 68.5 425 c 128,-1,74
 60 399 60 399 60 385 c 256,75,76
 60 371 60 371 70 358.5 c 128,-1,77
 80 346 80 346 99 346 c 0,78,79
 121 346 121 346 129.5 359 c 128,-1,80
 138 372 138 372 144 388 c 0,81,82
 153 413 153 413 168.5 428 c 128,-1,83
 184 443 184 443 202.5 451 c 128,-1,84
 221 459 221 459 241.5 461.5 c 128,-1,85
 262 464 262 464 282 464 c 0,86,87
 287 464 287 464 299.5 463.5 c 128,-1,88
 312 463 312 463 327 458.5 c 128,-1,89
 342 454 342 454 356.5 445 c 128,-1,90
 371 436 371 436 381 420 c 0,91,92
 385 414 385 414 387 408.5 c 128,-1,93
 389 403 389 403 390 394.5 c 128,-1,94
 391 386 391 386 391.5 373 c 128,-1,95
 392 360 392 360 392 339 c 2,96,-1
 392 325 l 1,0,1
476 301 m 1,97,98
 480 378 480 378 520 421 c 128,-1,99
 560 464 560 464 623 464 c 0,100,101
 637 464 637 464 661 459 c 128,-1,102
 685 454 685 454 708 437.5 c 128,-1,103
 731 421 731 421 748 388.5 c 128,-1,104
 765 356 765 356 767 301 c 1,105,-1
 476 301 l 1,97,98
392 203 m 2,106,107
 392 178 392 178 388 160.5 c 128,-1,108
 384 143 384 143 379 131 c 128,-1,109
 374 119 374 119 368 112 c 128,-1,110
 362 105 362 105 358 101 c 0,111,112
 335 76 335 76 303.5 63.5 c 128,-1,113
 272 51 272 51 238 51 c 0,114,115
 207 51 207 51 186 60 c 128,-1,116
 165 69 165 69 152.5 82.5 c 128,-1,117
 140 96 140 96 134.5 111 c 128,-1,118
 129 126 129 126 129 139 c 0,119,120
 129 165 129 165 141 182 c 128,-1,121
 153 199 153 199 170.5 209.5 c 128,-1,122
 188 220 188 220 208 225 c 128,-1,123
 228 230 228 230 245 233 c 0,124,125
 270 237 270 237 286.5 240 c 128,-1,126
 303 243 303 243 317.5 246 c 128,-1,127
 332 249 332 249 349 253.5 c 128,-1,128
 366 258 366 258 392 265 c 1,129,-1
 392 203 l 2,106,107
EndSplineSet
Validated: 9
EndChar

StartChar: ccedilla
Encoding: 231 231 137
Width: 563
GlyphClass: 1
Flags: W
LayerCount: 2
Fore
SplineSet
299 -12 m 1,0,1
 362 -10 362 -10 404 11.5 c 128,-1,2
 446 33 446 33 470.5 60.5 c 128,-1,3
 495 88 495 88 505.5 114 c 128,-1,4
 516 140 516 140 516 152 c 0,5,6
 516 170 516 170 503 181 c 128,-1,7
 490 192 490 192 476 192 c 0,8,9
 465 192 465 192 458.5 187 c 128,-1,10
 452 182 452 182 447 176 c 0,11,12
 445 174 445 174 441.5 167.5 c 128,-1,13
 438 161 438 161 434 153.5 c 128,-1,14
 430 146 430 146 426 139.5 c 128,-1,15
 422 133 422 133 421 130 c 0,16,17
 401 94 401 94 365.5 75 c 128,-1,18
 330 56 330 56 288 56 c 0,19,20
 214 56 214 56 171.5 110.5 c 128,-1,21
 129 165 129 165 129 262 c 0,22,23
 129 355 129 355 173 408.5 c 128,-1,24
 217 462 217 462 290 462 c 0,25,26
 323 462 323 462 346.5 452.5 c 128,-1,27
 370 443 370 443 385.5 429.5 c 128,-1,28
 401 416 401 416 410.5 402 c 128,-1,29
 420 388 420 388 425 380 c 0,30,31
 432 367 432 367 438 360 c 128,-1,32
 444 353 444 353 449 349.5 c 128,-1,33
 454 346 454 346 458.5 345.5 c 128,-1,34
 463 345 463 345 467 345 c 0,35,36
 482 345 482 345 494 355.5 c 128,-1,37
 506 366 506 366 506 383 c 0,38,39
 506 396 506 396 500.5 408.5 c 128,-1,40
 495 421 495 421 488 431 c 0,41,42
 477 448 477 448 461 465.5 c 128,-1,43
 445 483 445 483 421.5 497.5 c 128,-1,44
 398 512 398 512 365.5 521 c 128,-1,45
 333 530 333 530 289 530 c 0,46,47
 215 530 215 530 167.5 504.5 c 128,-1,48
 120 479 120 479 92 439 c 128,-1,49
 64 399 64 399 53 351 c 128,-1,50
 42 303 42 303 42 258 c 0,51,52
 42 200 42 200 53.5 161.5 c 128,-1,53
 65 123 65 123 79 99 c 0,54,55
 88 82 88 82 101.5 65 c 128,-1,56
 115 48 115 48 136 33 c 128,-1,57
 157 18 157 18 187.5 6.5 c 128,-1,58
 218 -5 218 -5 262 -10 c 1,59,60
 246 -22 246 -22 240 -28.5 c 128,-1,61
 234 -35 234 -35 234 -46 c 0,62,63
 234 -59 234 -59 243 -66 c 128,-1,64
 252 -73 252 -73 257 -73 c 2,65,-1
 289 -72 l 1,66,67
 289 -72 289 -72 294 -74 c 128,-1,68
 299 -76 299 -76 305 -80.5 c 128,-1,69
 311 -85 311 -85 316 -91 c 128,-1,70
 321 -97 321 -97 321 -106 c 0,71,72
 321 -118 321 -118 315 -125 c 128,-1,73
 309 -132 309 -132 301 -136.5 c 128,-1,74
 293 -141 293 -141 286 -143 c 128,-1,75
 279 -145 279 -145 276 -145 c 0,76,77
 270 -146 270 -146 265.5 -146.5 c 128,-1,78
 261 -147 261 -147 254 -147.5 c 128,-1,79
 247 -148 247 -148 237 -148 c 256,80,81
 227 -148 227 -148 211 -148 c 0,82,83
 197 -148 197 -148 189.5 -155 c 128,-1,84
 182 -162 182 -162 182 -170 c 0,85,86
 182 -180 182 -180 189.5 -185 c 128,-1,87
 197 -190 197 -190 207.5 -192.5 c 128,-1,88
 218 -195 218 -195 228.5 -195.5 c 128,-1,89
 239 -196 239 -196 244 -196 c 0,90,91
 267 -196 267 -196 292.5 -191.5 c 128,-1,92
 318 -187 318 -187 339 -176.5 c 128,-1,93
 360 -166 360 -166 373.5 -149.5 c 128,-1,94
 387 -133 387 -133 387 -108 c 0,95,96
 387 -88 387 -88 377 -72.5 c 128,-1,97
 367 -57 367 -57 356 -50 c 0,98,99
 340 -40 340 -40 323.5 -38 c 128,-1,100
 307 -36 307 -36 295 -35 c 1,101,-1
 299 -12 l 1,0,1
EndSplineSet
Validated: 9
EndChar

StartChar: eth
Encoding: 240 240 146
Width: 552
GlyphClass: 1
Flags: W
LayerCount: 2
Fore
SplineSet
317 666 m 1,0,-1
 271 708 l 2,1,2
 255 720 255 720 245.5 724 c 128,-1,3
 236 728 236 728 227 728 c 0,4,5
 216 728 216 728 206 721 c 128,-1,6
 196 714 196 714 196 700 c 0,7,8
 196 694 196 694 198.5 686.5 c 128,-1,9
 201 679 201 679 211 670 c 0,10,11
 213 668 213 668 219 663 c 128,-1,12
 225 658 225 658 231 652.5 c 128,-1,13
 237 647 237 647 243 642 c 128,-1,14
 249 637 249 637 251 635 c 1,15,-1
 179 602 l 2,16,17
 161 594 161 594 152 588 c 128,-1,18
 143 582 143 582 143 568 c 256,19,20
 143 554 143 554 153 548 c 128,-1,21
 163 542 163 542 170 542 c 0,22,23
 176 542 176 542 181.5 543.5 c 128,-1,24
 187 545 187 545 201 552 c 2,25,-1
 291 594 l 1,26,27
 302 581 302 581 310.5 570 c 128,-1,28
 319 559 319 559 327 547 c 128,-1,29
 335 535 335 535 342.5 521.5 c 128,-1,30
 350 508 350 508 360 490 c 1,31,32
 339 501 339 501 316.5 509.5 c 128,-1,33
 294 518 294 518 256 518 c 0,34,35
 222 518 222 518 183.5 506 c 128,-1,36
 145 494 145 494 112 463.5 c 128,-1,37
 79 433 79 433 57.5 381.5 c 128,-1,38
 36 330 36 330 36 252 c 0,39,40
 36 172 36 172 56.5 126.5 c 128,-1,41
 77 81 77 81 108 51 c 0,42,43
 129 31 129 31 151.5 18.5 c 128,-1,44
 174 6 174 6 195.5 -1 c 128,-1,45
 217 -8 217 -8 237.5 -10 c 128,-1,46
 258 -12 258 -12 275 -12 c 0,47,48
 330 -12 330 -12 374.5 7 c 128,-1,49
 419 26 419 26 450.5 61 c 128,-1,50
 482 96 482 96 499 145 c 128,-1,51
 516 194 516 194 516 254 c 0,52,53
 516 362 516 362 474.5 451.5 c 128,-1,54
 433 541 433 541 360 626 c 1,55,-1
 400 645 l 2,56,57
 418 653 418 653 426.5 659.5 c 128,-1,58
 435 666 435 666 435 680 c 256,59,60
 435 694 435 694 425 700 c 128,-1,61
 415 706 415 706 409 706 c 256,62,63
 403 706 403 706 397 703.5 c 128,-1,64
 391 701 391 701 377 694 c 2,65,-1
 317 666 l 1,0,-1
427 257 m 0,66,67
 427 195 427 195 411 155.5 c 128,-1,68
 395 116 395 116 371.5 94 c 128,-1,69
 348 72 348 72 321.5 64 c 128,-1,70
 295 56 295 56 275 56 c 0,71,72
 268 56 268 56 254.5 57.5 c 128,-1,73
 241 59 241 59 224.5 65 c 128,-1,74
 208 71 208 71 190.5 83 c 128,-1,75
 173 95 173 95 158.5 116.5 c 128,-1,76
 144 138 144 138 134.5 170 c 128,-1,77
 125 202 125 202 125 248 c 0,78,79
 125 286 125 286 133.5 326 c 128,-1,80
 142 366 142 366 165 398 c 0,81,82
 184 424 184 424 212.5 437 c 128,-1,83
 241 450 241 450 272 450 c 0,84,85
 294 450 294 450 321 442 c 128,-1,86
 348 434 348 434 371.5 412 c 128,-1,87
 395 390 395 390 411 352.5 c 128,-1,88
 427 315 427 315 427 257 c 0,66,67
EndSplineSet
Validated: 9
EndChar

StartChar: oslash
Encoding: 248 248 153
Width: 573
GlyphClass: 1
Flags: W
LayerCount: 2
Fore
SplineSet
130 39 m 1,0,1
 164 12 164 12 206.5 0 c 128,-1,2
 249 -12 249 -12 287 -12 c 0,3,4
 333 -12 333 -12 376.5 2.5 c 128,-1,5
 420 17 420 17 454 49 c 128,-1,6
 488 81 488 81 509 133.5 c 128,-1,7
 530 186 530 186 530 261 c 0,8,9
 530 292 530 292 525.5 320 c 128,-1,10
 521 348 521 348 514 370.5 c 128,-1,11
 507 393 507 393 498.5 410 c 128,-1,12
 490 427 490 427 483 437 c 1,13,-1
 514 472 l 2,14,15
 522 480 522 480 526 487.5 c 128,-1,16
 530 495 530 495 530 503 c 256,17,18
 530 511 530 511 522 520.5 c 128,-1,19
 514 530 514 530 500 530 c 0,20,21
 492 530 492 530 485.5 526 c 128,-1,22
 479 522 479 522 470 511 c 2,23,-1
 443 479 l 1,24,25
 409 506 409 506 369 518 c 128,-1,26
 329 530 329 530 286 530 c 0,27,28
 275 530 275 530 256 528.5 c 128,-1,29
 237 527 237 527 214.5 521 c 128,-1,30
 192 515 192 515 167.5 503.5 c 128,-1,31
 143 492 143 492 121 472 c 0,32,33
 76 431 76 431 59.5 373 c 128,-1,34
 43 315 43 315 43 254 c 0,35,36
 43 197 43 197 58 152 c 128,-1,37
 73 107 73 107 90 82 c 1,38,-1
 59 47 l 2,39,40
 52 39 52 39 47 32.5 c 128,-1,41
 42 26 42 26 42 18 c 0,42,43
 42 7 42 7 50.5 -2.5 c 128,-1,44
 59 -12 59 -12 72 -12 c 0,45,46
 82 -12 82 -12 88 -7 c 128,-1,47
 94 -2 94 -2 102 8 c 2,48,-1
 130 39 l 1,0,1
422 369 m 1,49,50
 427 357 427 357 434 330.5 c 128,-1,51
 441 304 441 304 441 259 c 0,52,53
 441 165 441 165 400 110.5 c 128,-1,54
 359 56 359 56 287 56 c 0,55,56
 263 56 263 56 245 61 c 128,-1,57
 227 66 227 66 214.5 73 c 128,-1,58
 202 80 202 80 194 87 c 128,-1,59
 186 94 186 94 183 98 c 1,60,-1
 422 369 l 1,49,50
151 150 m 1,61,62
 146 161 146 161 139 187.5 c 128,-1,63
 132 214 132 214 132 259 c 0,64,65
 132 352 132 352 172.5 407 c 128,-1,66
 213 462 213 462 286 462 c 0,67,68
 309 462 309 462 327 457 c 128,-1,69
 345 452 345 452 357.5 445 c 128,-1,70
 370 438 370 438 378 431 c 128,-1,71
 386 424 386 424 390 420 c 1,72,-1
 151 150 l 1,61,62
EndSplineSet
Validated: 9
EndChar

StartChar: thorn
Encoding: 254 254 159
Width: 615
GlyphClass: 1
Flags: W
LayerCount: 2
Fore
SplineSet
161 54 m 1,0,1
 171 43 171 43 183.5 31.5 c 128,-1,2
 196 20 196 20 212 10.5 c 128,-1,3
 228 1 228 1 249.5 -5.5 c 128,-1,4
 271 -12 271 -12 299 -12 c 0,5,6
 340 -12 340 -12 380.5 5 c 128,-1,7
 421 22 421 22 453 56 c 128,-1,8
 485 90 485 90 504.5 141.5 c 128,-1,9
 524 193 524 193 524 263 c 0,10,11
 524 317 524 317 510.5 365.5 c 128,-1,12
 497 414 497 414 469.5 450.5 c 128,-1,13
 442 487 442 487 400.5 508.5 c 128,-1,14
 359 530 359 530 304 530 c 0,15,16
 274 530 274 530 252 524 c 128,-1,17
 230 518 230 518 213.5 508 c 128,-1,18
 197 498 197 498 184 486.5 c 128,-1,19
 171 475 171 475 161 464 c 1,20,-1
 161 655 l 2,21,22
 161 678 161 678 160 691.5 c 128,-1,23
 159 705 159 705 150 714 c 0,24,25
 136 728 136 728 118 728 c 0,26,27
 107 728 107 728 98.5 723.5 c 128,-1,28
 90 719 90 719 85 714 c 0,29,30
 77 706 77 706 75.5 692 c 128,-1,31
 74 678 74 678 74 655 c 2,32,-1
 74 -137 l 2,33,34
 74 -160 74 -160 75.5 -174 c 128,-1,35
 77 -188 77 -188 86 -196 c 0,36,37
 98 -210 98 -210 118 -210 c 0,38,39
 129 -210 129 -210 137 -205.5 c 128,-1,40
 145 -201 145 -201 150 -196 c 0,41,42
 159 -187 159 -187 160 -173.5 c 128,-1,43
 161 -160 161 -160 161 -137 c 2,44,-1
 161 54 l 1,0,1
152 256 m 0,45,46
 152 303 152 303 163 341 c 128,-1,47
 174 379 174 379 193.5 406 c 128,-1,48
 213 433 213 433 239 447.5 c 128,-1,49
 265 462 265 462 296 462 c 0,50,51
 320 462 320 462 344.5 452 c 128,-1,52
 369 442 369 442 389.5 418.5 c 128,-1,53
 410 395 410 395 422.5 357 c 128,-1,54
 435 319 435 319 435 263 c 0,55,56
 435 257 435 257 434.5 239 c 128,-1,57
 434 221 434 221 430 198.5 c 128,-1,58
 426 176 426 176 418.5 151.5 c 128,-1,59
 411 127 411 127 396 109 c 0,60,61
 380 89 380 89 354 72.5 c 128,-1,62
 328 56 328 56 292 56 c 0,63,64
 254 56 254 56 227.5 74 c 128,-1,65
 201 92 201 92 184 117 c 0,66,67
 164 148 164 148 158 184 c 128,-1,68
 152 220 152 220 152 256 c 0,45,46
EndSplineSet
Validated: 9
EndChar

StartChar: dotlessi
Encoding: 305 305 161
Width: 240
GlyphClass: 1
Flags: W
LayerCount: 2
Fore
SplineSet
164 459 m 2,0,1
 164 472 164 472 163.5 487 c 128,-1,2
 163 502 163 502 158 510 c 128,-1,3
 153 518 153 518 145.5 524 c 128,-1,4
 138 530 138 530 121 530 c 0,5,6
 101 530 101 530 88 517 c 0,7,8
 80 508 80 508 78 495 c 128,-1,9
 76 482 76 482 76 459 c 2,10,-1
 76 59 l 2,11,12
 76 47 76 47 77 34.5 c 128,-1,13
 78 22 78 22 82 11.5 c 128,-1,14
 86 1 86 1 95 -5.5 c 128,-1,15
 104 -12 104 -12 120 -12 c 0,16,17
 132 -12 132 -12 143.5 -5 c 128,-1,18
 155 2 155 2 160 16 c 0,19,20
 162 21 162 21 163 29.5 c 128,-1,21
 164 38 164 38 164 59 c 2,22,-1
 164 459 l 2,0,1
EndSplineSet
Validated: 9
EndChar

StartChar: circumflex
Encoding: 710 710 162
Width: 333
GlyphClass: 1
Flags: W
LayerCount: 2
Fore
SplineSet
167 677 m 1,0,-1
 213 619 l 2,1,2
 230 599 230 599 235 594 c 128,-1,3
 240 589 240 589 248 588 c 0,4,5
 253 586 253 586 265 586 c 0,6,7
 278 586 278 586 291 586 c 0,8,9
 295 586 295 586 301 587.5 c 128,-1,10
 307 589 307 589 307 594 c 0,11,12
 307 597 307 597 305 601 c 128,-1,13
 303 605 303 605 292 618 c 2,14,-1
 250 671 l 2,15,16
 236 688 236 688 227 699 c 128,-1,17
 218 710 218 710 210 716 c 128,-1,18
 202 722 202 722 192.5 724 c 128,-1,19
 183 726 183 726 169 726 c 0,20,21
 153 726 153 726 142.5 724 c 128,-1,22
 132 722 132 722 123.5 716.5 c 128,-1,23
 115 711 115 711 106 700 c 128,-1,24
 97 689 97 689 83 671 c 2,25,-1
 43 620 l 2,26,27
 39 615 39 615 32.5 606.5 c 128,-1,28
 26 598 26 598 26 594 c 256,29,30
 26 590 26 590 30 588 c 0,31,32
 33 586 33 586 39 586 c 256,33,34
 45 586 45 586 72 586 c 0,35,36
 81 586 81 586 87 587 c 128,-1,37
 93 588 93 588 98 591.5 c 128,-1,38
 103 595 103 595 108.5 601.5 c 128,-1,39
 114 608 114 608 122 619 c 2,40,-1
 167 677 l 1,0,-1
EndSplineSet
Validated: 9
EndChar

StartChar: ring
Encoding: 730 730 163
Width: 333
GlyphClass: 1
Flags: W
LayerCount: 2
Fore
SplineSet
259 656 m 256,0,1
 259 675 259 675 251.5 692 c 128,-1,2
 244 709 244 709 231.5 721.5 c 128,-1,3
 219 734 219 734 202.5 741.5 c 128,-1,4
 186 749 186 749 167 749 c 256,5,6
 148 749 148 749 131 742 c 128,-1,7
 114 735 114 735 101.5 722 c 128,-1,8
 89 709 89 709 81.5 692 c 128,-1,9
 74 675 74 675 74 656 c 256,10,11
 74 637 74 637 81 620.5 c 128,-1,12
 88 604 88 604 100.5 591.5 c 128,-1,13
 113 579 113 579 130 571.5 c 128,-1,14
 147 564 147 564 166 564 c 256,15,16
 185 564 185 564 202 571.5 c 128,-1,17
 219 579 219 579 232 591.5 c 128,-1,18
 245 604 245 604 252 620.5 c 128,-1,19
 259 637 259 637 259 656 c 256,0,1
219 656 m 256,20,21
 219 634 219 634 203.5 619 c 128,-1,22
 188 604 188 604 166 604 c 0,23,24
 145 604 145 604 129.5 619 c 128,-1,25
 114 634 114 634 114 656 c 256,26,27
 114 678 114 678 129 693.5 c 128,-1,28
 144 709 144 709 166 709 c 0,29,30
 189 709 189 709 204 693.5 c 128,-1,31
 219 678 219 678 219 656 c 256,20,21
EndSplineSet
Validated: 9
EndChar

StartChar: tilde
Encoding: 732 732 164
Width: 333
GlyphClass: 1
Flags: W
LayerCount: 2
Fore
SplineSet
45 595 m 256,0,1
 53 595 53 595 56.5 601.5 c 128,-1,2
 60 608 60 608 62 611 c 0,3,4
 67 624 67 624 72.5 632.5 c 128,-1,5
 78 641 78 641 92 641 c 0,6,7
 99 641 99 641 109.5 638.5 c 128,-1,8
 120 636 120 636 131 632.5 c 128,-1,9
 142 629 142 629 151 625.5 c 128,-1,10
 160 622 160 622 165 620 c 0,11,12
 187 612 187 612 200 608 c 128,-1,13
 213 604 213 604 221 602 c 128,-1,14
 229 600 229 600 233.5 599.5 c 128,-1,15
 238 599 238 599 243 599 c 0,16,17
 264 599 264 599 278 607 c 128,-1,18
 292 615 292 615 300 626.5 c 128,-1,19
 308 638 308 638 311.5 650.5 c 128,-1,20
 315 663 315 663 315 671 c 0,21,22
 315 686 315 686 306.5 694.5 c 128,-1,23
 298 703 298 703 290 703 c 0,24,25
 280 703 280 703 275.5 695.5 c 128,-1,26
 271 688 271 688 268 680 c 0,27,28
 263 669 263 669 257 663.5 c 128,-1,29
 251 658 251 658 238 658 c 0,30,31
 234 658 234 658 230 658.5 c 128,-1,32
 226 659 226 659 218.5 661 c 128,-1,33
 211 663 211 663 198.5 667.5 c 128,-1,34
 186 672 186 672 165 680 c 0,35,36
 155 685 155 685 131.5 692.5 c 128,-1,37
 108 700 108 700 86 700 c 0,38,39
 70 700 70 700 57.5 693.5 c 128,-1,40
 45 687 45 687 36 676.5 c 128,-1,41
 27 666 27 666 22.5 653 c 128,-1,42
 18 640 18 640 18 628 c 0,43,44
 18 610 18 610 27.5 602.5 c 128,-1,45
 37 595 37 595 45 595 c 256,0,1
EndSplineSet
Validated: 9
EndChar

